<svg viewBox="-250 -250 500 500" width="500" height="500" xmlns="http://www.w3.org/2000/svg"><path d="M14.118115219604526,-11.52740308474802L-5.624026273254542,-20.323756344722476L-8.032906831143409,-19.383678981393178zM14.118115219604526,-11.52740308474802L-8.032906831143409,-19.383678981393178L-10.407648860139236,-18.36275455955318zM14.118115219604526,-11.52740308474802L-3.204006232125118,-21.173989407284992L-5.624026273254542,-20.323756344722476zM14.118115219604526,-11.52740308474802L-10.407648860139236,-18.36275455955318L-12.725540356517937,-17.270712513134274zM14.118115219604526,-11.52740308474802L-0.7959879365593467,-21.9261129992121L-3.204006232125118,-21.173989407284992zM14.118115219604526,-11.52740308474802L-12.725540356517937,-17.270712513134274L-14.964284474811851,-16.117926648898468zM14.118115219604526,-11.52740308474802L1.5768676458910105,-22.572770691157537L-0.7959879365593467,-21.9261129992121zM14.118115219604526,-11.52740308474802L-14.964284474811851,-16.117926648898468L-17.10232700914898,-14.915328433136963zM14.118115219604526,-11.52740308474802L3.8917358699683366,-23.107501588245626L1.5768676458910105,-22.572770691157537zM14.118115219604526,-11.52740308474802L-17.10232700914898,-14.915328433136963L-19.11884552032608,-13.67439717483607zM14.118115219604526,-11.52740308474802L6.126081132923311,-23.52478028201799L3.8917358699683366,-23.107501588245626zM14.118115219604526,-11.52740308474802L-19.11884552032608,-13.67439717483607L-20.994027467173456,-12.406954861500434zM14.118115219604526,-11.52740308474802L8.257979575355325,-23.820178804934937L6.126081132923311,-23.52478028201799zM14.118115219604526,-11.52740308474802L-20.994027467173456,-12.406954861500434L-22.709151733682294,-11.125180769137462zM14.118115219604526,-11.52740308474802L10.26629683748526,-23.990270660110053L8.257979575355325,-23.820178804934937zM14.118115219604526,-11.52740308474802L-22.709151733682294,-11.125180769137462L-24.24689933323899,-9.841476102789082zM14.118115219604526,-11.52740308474802L12.130809894357613,-24.032806363346694L10.26629683748526,-23.990270660110053z" style="fill:rgb(82,237,172)"/><path d="M28.743420141823805,1.8322423952907105L19.74386689857673,-20.821555344138556L28.9252721143645,2.791299880635999z" style="fill:rgb(246,171,139)"/><path d="M14.118115219604526,-11.52740308474802L-24.24689933323899,-9.841476102789082L-25.5913653937918,-8.568351919252638z" style="fill:rgb(82,237,172)"/><path d="M-18.649779806867095,22.30175487202268L-28.09484643516138,-0.22809247255575452L-19.21203617099349,21.498493440190153z" style="fill:rgb(11,75,140)"/><path d="M14.118115219604526,-11.52740308474802L13.832437829086006,-23.946690574085192L12.130809894357613,-24.032806363346694zM14.118115219604526,-11.52740308474802L-25.5913653937918,-8.568351919252638L-26.728272311987315,-7.31843481021706z" style="fill:rgb(82,237,172)"/><path d="M28.9252721143645,2.791299880635999L19.905951430607406,-19.907788178934823L28.856749296780773,3.841899551772013z" style="fill:rgb(246,166,151)"/><path d="M14.118115219604526,-11.52740308474802L15.35339817362489,-23.732017280285902L13.832437829086006,-23.946690574085192zM14.118115219604526,-11.52740308474802L-26.728272311987315,-7.31843481021706L-27.645205155611755,-6.104188918849852z" style="fill:rgb(82,237,172)"/><path d="M-19.21203617099349,21.498493440190153L-28.09484643516138,-0.22809247255575452L-28.639724327994024,-0.9851164095558739z" style="fill:rgb(11,75,140)"/><path d="M-17.845075763669772,22.994418093594547L-27.305080741057065,0.4180048071249435L-18.649779806867095,22.30175487202268z" style="fill:rgb(15,71,152)"/><path d="M28.9252721143645,2.791299880635999L19.74386689857673,-20.821555344138556L19.905951430607406,-19.907788178934823z" style="fill:rgb(246,171,139)"/><path d="M14.118115219604526,-11.52740308474802L16.67750406657185,-23.39016753208066L15.35339817362489,-23.732017280285902zM14.118115219604526,-11.52740308474802L-27.645205155611755,-6.104188918849852L-28.331669189918774,-4.937904729243298z" style="fill:rgb(82,237,172)"/><path d="M28.856749296780773,3.841899551772013L19.815656817653817,-18.901093713965864L28.536813711245877,4.973659209335841z" style="fill:rgb(245,161,162)"/><path d="M14.118115219604526,-11.52740308474802L17.790190328074004,-22.923695017377213L16.67750406657185,-23.39016753208066zM14.118115219604526,-11.52740308474802L-28.331669189918774,-4.937904729243298L-28.779283585633628,-3.831586003358328z" style="fill:rgb(82,237,172)"/><path d="M-18.649779806867095,22.30175487202268L-27.305080741057065,0.4180048071249435L-28.09484643516138,-0.22809247255575452z" style="fill:rgb(15,71,152)"/><path d="M-16.80464835390618,23.568487151708748L-26.276963705629992,0.9455743815435299L-17.845075763669772,22.994418093594547z" style="fill:rgb(20,68,163)"/><path d="M28.856749296780773,3.841899551772013L19.905951430607406,-19.907788178934823L19.815656817653817,-18.901093713965864z" style="fill:rgb(246,166,151)"/><path d="M14.118115219604526,-11.52740308474802L18.67882519326161,-22.33648788733126L17.790190328074004,-22.923695017377213z" style="fill:rgb(82,237,172)"/><path d="M28.536813711245877,4.973659209335841L19.472111223160695,-17.811327628075695L27.967105897761005,6.175266088729277z" style="fill:rgb(242,155,174)"/><path d="M14.118115219604526,-11.52740308474802L-28.779283585633628,-3.831586003358328L-28.98192852159148,-2.7967672457174646z" style="fill:rgb(82,237,172)"/><path d="M-17.845075763669772,22.994418093594547L-26.276963705629992,0.9455743815435299L-27.305080741057065,0.4180048071249435z" style="fill:rgb(20,68,163)"/><path d="M-15.537825722721696,24.01709018288573L-25.019695831873566,1.3483336677414595L-16.80464835390618,23.568487151708748z" style="fill:rgb(26,66,175)"/><path d="M28.536813711245877,4.973659209335841L19.815656817653817,-18.901093713965864L19.472111223160695,-17.811327628075695z" style="fill:rgb(245,161,162)"/><path d="M14.118115219604526,-11.52740308474802L19.33282806769157,-21.633660987017517L18.67882519326161,-22.33648788733126zM14.118115219604526,-11.52740308474802L-28.98192852159148,-2.7967672457174646L-28.935848280002624,-1.8445086806206554z" style="fill:rgb(82,237,172)"/><path d="M27.967105897761005,6.175266088729277L18.87722950080197,-16.649372428381195L27.152013837724226,7.434458947366272z" style="fill:rgb(239,149,184)"/><path d="M-14.056566421412143,24.334701575150643L-23.54501998166352,1.6211308647875724L-15.537825722721696,24.01709018288573z" style="fill:rgb(32,65,185)"/><path d="M14.118115219604526,-11.52740308474802L19.74386689857673,-20.821555344138556L19.33282806769157,-21.633660987017517z" style="fill:rgb(82,237,172)"/><path d="M-16.80464835390618,23.568487151708748L-25.019695831873566,1.3483336677414595L-26.276963705629992,0.9455743815435299z" style="fill:rgb(26,66,175)"/><path d="M14.118115219604526,-11.52740308474802L-28.935848280002624,-1.8445086806206554L-28.639724327994024,-0.9851164095558739z" style="fill:rgb(82,237,172)"/><path d="M27.967105897761005,6.175266088729277L19.472111223160695,-17.811327628075695L18.87722950080197,-16.649372428381195z" style="fill:rgb(242,155,174)"/><path d="M27.152013837724226,7.434458947366272L18.03561761154478,-15.427027722475826L26.098685138965863,8.738209761745537z" style="fill:rgb(234,143,195)"/><path d="M14.118115219604526,-11.52740308474802L19.905951430607406,-19.907788178934823L19.74386689857673,-20.821555344138556zM14.118115219604526,-11.52740308474802L-28.639724327994024,-0.9851164095558739L-28.09484643516138,-0.22809247255575452z" style="fill:rgb(82,237,172)"/><path d="M-12.375254823080233,24.517085458448605L-21.86733444994515,1.7603116771805123L-14.056566421412143,24.334701575150643z" style="fill:rgb(40,64,196)"/><path d="M-15.537825722721696,24.01709018288573L-23.54501998166352,1.6211308647875724L-25.019695831873566,1.3483336677414595z" style="fill:rgb(32,65,185)"/><path d="M27.152013837724226,7.434458947366272L18.87722950080197,-16.649372428381195L18.03561761154478,-15.427027722475826z" style="fill:rgb(239,149,184)"/><path d="M26.098685138965863,8.738209761745537L16.954684223909876,-14.156965000118612L24.816958811474766,10.072855243483373z" style="fill:rgb(228,137,204)"/><path d="M14.118115219604526,-11.52740308474802L19.815656817653817,-18.901093713965864L19.905951430607406,-19.907788178934823zM14.118115219604526,-11.52740308474802L-28.09484643516138,-0.22809247255575452L-27.305080741057065,0.4180048071249435z" style="fill:rgb(82,237,172)"/><path d="M-10.510751284066053,24.5615115301507L-20.00335882291183,1.7635302299052793L-12.375254823080233,24.517085458448605z" style="fill:rgb(49,63,205)"/><path d="M-14.056566421412143,24.334701575150643L-21.86733444994515,1.7603116771805123L-23.54501998166352,1.6211308647875724z" style="fill:rgb(40,64,196)"/><path d="M14.118115219604526,-11.52740308474802L19.472111223160695,-17.811327628075695L19.815656817653817,-18.901093713965864zM14.118115219604526,-11.52740308474802L-27.305080741057065,0.4180048071249435L-26.276963705629992,0.9455743815435299z" style="fill:rgb(82,237,172)"/><path d="M26.098685138965863,8.738209761745537L18.03561761154478,-15.427027722475826L16.954684223909876,-14.156965000118612z" style="fill:rgb(234,143,195)"/><path d="M24.816958811474766,10.072855243483373L15.644578360098992,-12.8524706466049L23.31940989989886,11.42414536696222z" style="fill:rgb(221,130,213)"/><path d="M-8.48213388303996,24.46675290217284L-17.972176084657423,1.6300073507999167L-10.510751284066053,24.5615115301507z" style="fill:rgb(58,64,214)"/><path d="M14.118115219604526,-11.52740308474802L18.87722950080197,-16.649372428381195L19.472111223160695,-17.811327628075695z" style="fill:rgb(82,237,172)"/><path d="M-12.375254823080233,24.517085458448605L-20.00335882291183,1.7635302299052793L-21.86733444994515,1.7603116771805123z" style="fill:rgb(49,63,205)"/><path d="M14.118115219604526,-11.52740308474802L-26.276963705629992,0.9455743815435299L-25.019695831873566,1.3483336677414595z" style="fill:rgb(82,237,172)"/><path d="M23.31940989989886,11.42414536696222L14.118115219604526,-11.52740308474802L21.62116866884504,12.777579916321042z" style="fill:rgb(213,124,221)"/><path d="M24.816958811474766,10.072855243483373L16.954684223909876,-14.156965000118612L15.644578360098992,-12.8524706466049z" style="fill:rgb(228,137,204)"/><path d="M-6.31054268841377,24.23313158674869L-15.79491477430655,1.3605721983580847L-8.48213388303996,24.46675290217284z" style="fill:rgb(69,65,222)"/><path d="M14.118115219604526,-11.52740308474802L18.03561761154478,-15.427027722475826L18.87722950080197,-16.649372428381195zM14.118115219604526,-11.52740308474802L-25.019695831873566,1.3483336677414595L-23.54501998166352,1.6211308647875724z" style="fill:rgb(82,237,172)"/><path d="M21.62116866884504,12.777579916321042L12.390734435785825,-10.195990094724177L19.73973275429064,14.118475172589145z" style="fill:rgb(204,117,228)"/><path d="M-10.510751284066053,24.5615115301507L-17.972176084657423,1.6300073507999167L-20.00335882291183,1.7635302299052793z" style="fill:rgb(58,64,214)"/><path d="M23.31940989989886,11.42414536696222L15.644578360098992,-12.8524706466049L14.118115219604526,-11.52740308474802z" style="fill:rgb(221,130,213)"/><path d="M-4.01891119272626,23.86261551961278L-13.494612753377213,0.9574818616317475L-6.31054268841377,24.23313158674869z" style="fill:rgb(79,66,228)"/><path d="M14.118115219604526,-11.52740308474802L16.954684223909876,-14.156965000118612L18.03561761154478,-15.427027722475826zM14.118115219604526,-11.52740308474802L-23.54501998166352,1.6211308647875724L-21.86733444994515,1.7603116771805123z" style="fill:rgb(82,237,172)"/><path d="M19.73973275429064,14.118475172589145L10.480329747590789,-8.87263936751149L17.694944562021064,15.43216368202447z" style="fill:rgb(195,111,234)"/><path d="M-1.6317690247206287,23.358680807443225L-11.09589438940606,0.42468664647537796L-4.01891119272626,23.86261551961278z" style="fill:rgb(91,68,234)"/><path d="M-8.48213388303996,24.46675290217284L-15.79491477430655,1.3605721983580847L-17.972176084657423,1.6300073507999167z" style="fill:rgb(69,65,222)"/><path d="M21.62116866884504,12.777579916321042L14.118115219604526,-11.52740308474802L12.390734435785825,-10.195990094724177z" style="fill:rgb(213,124,221)"/><path d="M17.694944562021064,15.43216368202447L8.406984146746277,-7.571870575859895L15.508619692621696,16.704226323155467z" style="fill:rgb(184,105,239)"/><path d="M14.118115219604526,-11.52740308474802L15.644578360098992,-12.8524706466049L16.954684223909876,-14.156965000118612zM14.118115219604526,-11.52740308474802L-21.86733444994515,1.7603116771805123L-20.00335882291183,1.7635302299052793z" style="fill:rgb(82,237,172)"/><path d="M0.8250426393493331,22.72644761142424L-8.624650285818532,-0.232475489994733L-1.6317690247206287,23.358680807443225z" style="fill:rgb(102,71,239)"/><path d="M15.508619692621696,16.704226323155467L6.192861598240183,-6.307955399030941L13.20437844891759,17.920576864861886z" style="fill:rgb(174,99,242)"/><path d="M-6.31054268841377,24.23313158674869L-13.494612753377213,0.9574818616317475L-15.79491477430655,1.3605721983580847z" style="fill:rgb(79,66,228)"/><path d="M3.3248383305480247,21.972520179920124L-6.107837561974168,-1.0070349001121324L0.8250426393493331,22.72644761142424z" style="fill:rgb(114,75,243)"/><path d="M19.73973275429064,14.118475172589145L12.390734435785825,-10.195990094724177L10.480329747590789,-8.87263936751149z" style="fill:rgb(204,117,228)"/><path d="M13.20437844891759,17.920576864861886L3.8618738191138693,-5.094834348087066L10.80724194607622,19.067777361471297z" style="fill:rgb(162,93,245)"/><path d="M14.118115219604526,-11.52740308474802L-20.00335882291183,1.7635302299052793L-17.972176084657423,1.6300073507999167z" style="fill:rgb(82,237,172)"/><path d="M5.840195638272762,21.104935750785472L-3.5729958258568146,-1.8907181881934054L3.3248383305480247,21.972520179920124z" style="fill:rgb(126,79,245)"/><path d="M10.80724194607622,19.067777361471297L1.4394280075972348,-3.9459369872948984L8.34349720171548,20.133144170574766z" style="fill:rgb(151,88,246)"/><path d="M8.34349720171548,20.133144170574766L-1.047970717360974,-2.873939485906448L5.840195638272762,21.104935750785472z" style="fill:rgb(139,83,246)"/><path d="M-4.01891119272626,23.86261551961278L-11.09589438940606,0.42468664647537796L-13.494612753377213,0.9574818616317475z" style="fill:rgb(91,68,234)"/><path d="M17.694944562021064,15.43216368202447L10.480329747590789,-8.87263936751149L8.406984146746277,-7.571870575859895z" style="fill:rgb(195,111,234)"/><path d="M14.118115219604526,-11.52740308474802L-17.972176084657423,1.6300073507999167L-15.79491477430655,1.3605721983580847z" style="fill:rgb(82,237,172)"/><path d="M-1.6317690247206287,23.358680807443225L-8.624650285818532,-0.232475489994733L-11.09589438940606,0.42468664647537796z" style="fill:rgb(102,71,239)"/><path d="M14.118115219604526,-11.52740308474802L10.480329747590789,-8.87263936751149L12.390734435785825,-10.195990094724177z" style="fill:rgb(82,237,172)"/><path d="M15.508619692621696,16.704226323155467L8.406984146746277,-7.571870575859895L6.192861598240183,-6.307955399030941z" style="fill:rgb(184,105,239)"/><path d="M14.118115219604526,-11.52740308474802L-15.79491477430655,1.3605721983580847L-13.494612753377213,0.9574818616317475z" style="fill:rgb(82,237,172)"/><path d="M0.8250426393493331,22.72644761142424L-6.107837561974168,-1.0070349001121324L-8.624650285818532,-0.232475489994733z" style="fill:rgb(114,75,243)"/><path d="M13.20437844891759,17.920576864861886L6.192861598240183,-6.307955399030941L3.8618738191138693,-5.094834348087066z" style="fill:rgb(174,99,242)"/><path d="M14.118115219604526,-11.52740308474802L8.406984146746277,-7.571870575859895L10.480329747590789,-8.87263936751149zM14.118115219604526,-11.52740308474802L-13.494612753377213,0.9574818616317475L-11.09589438940606,0.42468664647537796z" style="fill:rgb(82,237,172)"/><path d="M3.3248383305480247,21.972520179920124L-3.5729958258568146,-1.8907181881934054L-6.107837561974168,-1.0070349001121324z" style="fill:rgb(126,79,245)"/><path d="M10.80724194607622,19.067777361471297L3.8618738191138693,-5.094834348087066L1.4394280075972348,-3.9459369872948984z" style="fill:rgb(162,93,245)"/><path d="M5.840195638272762,21.104935750785472L-1.047970717360974,-2.873939485906448L-3.5729958258568146,-1.8907181881934054z" style="fill:rgb(139,83,246)"/><path d="M8.34349720171548,20.133144170574766L1.4394280075972348,-3.9459369872948984L-1.047970717360974,-2.873939485906448z" style="fill:rgb(151,88,246)"/><path d="M14.118115219604526,-11.52740308474802L6.192861598240183,-6.307955399030941L8.406984146746277,-7.571870575859895zM14.118115219604526,-11.52740308474802L-11.09589438940606,0.42468664647537796L-8.624650285818532,-0.232475489994733zM14.118115219604526,-11.52740308474802L3.8618738191138693,-5.094834348087066L6.192861598240183,-6.307955399030941zM14.118115219604526,-11.52740308474802L-8.624650285818532,-0.232475489994733L-6.107837561974168,-1.0070349001121324zM14.118115219604526,-11.52740308474802L1.4394280075972348,-3.9459369872948984L3.8618738191138693,-5.094834348087066zM14.118115219604526,-11.52740308474802L-6.107837561974168,-1.0070349001121324L-3.5729958258568146,-1.8907181881934054zM14.118115219604526,-11.52740308474802L-1.047970717360974,-2.873939485906448L1.4394280075972348,-3.9459369872948984zM14.118115219604526,-11.52740308474802L-3.5729958258568146,-1.8907181881934054L-1.047970717360974,-2.873939485906448z" style="fill:rgb(82,237,172)"/></svg>