<svg viewBox="-250 -250 500 500" width="500" height="500" xmlns="http://www.w3.org/2000/svg"><path d="M76.49902555253144,-129.62817018594384L46.76638689449806,-170.9947445108527L90.89695443647432,-104.40379449201198zM90.89695443647432,-104.40379449201198L32.29260718980799,-185.48530533616102L104.50077959406622,-77.17550795727605zM104.50077959406622,-77.17550795727605L18.76735117722572,-194.6926154426346L116.99669213250722,-48.66089866654651zM46.76638689449806,-170.9947445108527L76.49902555253144,-129.62817018594384L61.65591400430165,-152.09284584837374zM116.99669213250722,-48.66089866654651L6.794955082176837,-197.76929983662592L128.09332736063902,-19.55918985658627zM90.89695443647432,-104.40379449201198L46.76638689449806,-170.9947445108527L32.29260718980799,-185.48530533616102zM128.09332736063902,-19.55918985658627L-2.9658522127187243,-193.97105634349168L137.50937592579314,9.42729410658207zM104.50077959406622,-77.17550795727605L32.29260718980799,-185.48530533616102L18.76735117722572,-194.6926154426346zM137.50937592579314,9.42729410658207L-2.9658522127187243,-193.97105634349168L144.96642552140185,37.56804443262322zM116.99669213250722,-48.66089866654651L18.76735117722572,-194.6926154426346L6.794955082176837,-197.76929983662592zM144.96642552140185,37.56804443262322L-13.180542556384166,-163.99029409584924L150.18510222194578,64.08152786319062zM128.09332736063902,-19.55918985658627L6.794955082176837,-197.76929983662592L-2.9658522127187243,-193.97105634349168zM150.18510222194578,64.08152786319062L-12.48790032462786,-137.9552916455164L152.88778152558308,88.11830659201638zM144.96642552140185,37.56804443262322L-2.9658522127187243,-193.97105634349168L-9.836386696000133,-182.76966422460737z" style="fill:rgb(237,172,172)"/><path d="M-25.835558998798255,193.8386512655749L133.95063020793233,140.1980809264828L-42.61726040022698,192.78525152280505z" style="fill:rgb(158,10,168)"/><path d="M152.88778152558308,88.11830659201638L-7.47266630368047,-105.59253520364345L152.8096527969663,108.75211430228396z" style="fill:rgb(237,172,172)"/><path d="M-165.92316144769413,-107.56785970971647L-9.836386696000133,-182.76966422460737L-154.79960980238434,-120.34824205713596z" style="fill:rgb(67,232,169)"/><path d="M144.96642552140185,37.56804443262322L-9.836386696000133,-182.76966422460737L-13.180542556384166,-163.99029409584924z" style="fill:rgb(237,172,172)"/><path d="M-154.79960980238434,-120.34824205713596L-9.836386696000133,-182.76966422460737L-2.9658522127187243,-193.97105634349168z" style="fill:rgb(67,232,169)"/><path d="M152.8096527969663,108.75211430228396L1.8380993896137585,-68.47150263451708L149.71938059374116,124.98976188451354z" style="fill:rgb(237,172,172)"/><path d="M-42.61726040022698,192.78525152280505L121.32350602728035,137.31273581135366L-61.787440038792504,184.3093924046698z" style="fill:rgb(146,18,190)"/><path d="M-42.61726040022698,192.78525152280505L133.95063020793233,140.1980809264828L121.32350602728035,137.31273581135366z" style="fill:rgb(158,10,168)"/><path d="M150.18510222194578,64.08152786319062L-13.180542556384166,-163.99029409584924L-12.48790032462786,-137.9552916455164z" style="fill:rgb(237,172,172)"/><path d="M-173.5250311348212,-87.82204224708792L-13.180542556384166,-163.99029409584924L-165.92316144769413,-107.56785970971647z" style="fill:rgb(64,218,191)"/><path d="M149.71938059374116,124.98976188451354L15.048952733337572,-28.721294720087663L143.45153695162756,135.80371058281483z" style="fill:rgb(237,172,172)"/><path d="M-165.92316144769413,-107.56785970971647L-13.180542556384166,-163.99029409584924L-9.836386696000133,-182.76966422460737z" style="fill:rgb(64,218,191)"/><path d="M-61.787440038792504,184.3093924046698L105.8927283273908,126.56357842565563L-82.5278980793156,168.21774384938192z" style="fill:rgb(133,29,209)"/><path d="M-61.787440038792504,184.3093924046698L121.32350602728035,137.31273581135366L105.8927283273908,126.56357842565563z" style="fill:rgb(146,18,190)"/><path d="M152.88778152558308,88.11830659201638L-12.48790032462786,-137.9552916455164L-7.47266630368047,-105.59253520364345zM143.45153695162756,135.80371058281483L31.402741952131066,11.172938503596846L133.95063020793233,140.1980809264828z" style="fill:rgb(237,172,172)"/><path d="M-176.8909448358066,-61.5664742371434L-12.48790032462786,-137.9552916455164L-173.5250311348212,-87.82204224708792zM-173.5250311348212,-87.82204224708792L-12.48790032462786,-137.9552916455164L-13.180542556384166,-163.99029409584924z" style="fill:rgb(63,200,210)"/><path d="M-82.5278980793156,168.21774384938192L88.23712342193755,107.80235690514782L-103.77675114363828,144.84674983529501z" style="fill:rgb(121,45,225)"/><path d="M152.8096527969663,108.75211430228396L-7.47266630368047,-105.59253520364345L1.8380993896137585,-68.47150263451708zM133.95063020793233,140.1980809264828L49.85382100786231,48.66486186935673L121.32350602728035,137.31273581135366z" style="fill:rgb(237,172,172)"/><path d="M-82.5278980793156,168.21774384938192L105.8927283273908,126.56357842565563L88.23712342193755,107.80235690514782z" style="fill:rgb(133,29,209)"/><path d="M-175.5087590777269,-29.807834344112607L-7.47266630368047,-105.59253520364345L-176.8909448358066,-61.5664742371434z" style="fill:rgb(65,180,225)"/><path d="M121.32350602728035,137.31273581135366L69.20027283716003,81.46556261382726L105.8927283273908,126.56357842565563zM149.71938059374116,124.98976188451354L1.8380993896137585,-68.47150263451708L15.048952733337572,-28.721294720087663z" style="fill:rgb(237,172,172)"/><path d="M-103.77675114363828,144.84674983529501L69.20027283716003,81.46556261382726L-124.29754955601503,115.14727758804298z" style="fill:rgb(108,64,236)"/><path d="M-176.8909448358066,-61.5664742371434L-7.47266630368047,-105.59253520364345L-12.48790032462786,-137.9552916455164z" style="fill:rgb(65,180,225)"/><path d="M-169.1749509862607,5.887773493252175L1.8380993896137585,-68.47150263451708L-175.5087590777269,-29.807834344112607z" style="fill:rgb(70,157,237)"/><path d="M-103.77675114363828,144.84674983529501L88.23712342193755,107.80235690514782L69.20027283716003,81.46556261382726z" style="fill:rgb(121,45,225)"/><path d="M143.45153695162756,135.80371058281483L15.048952733337572,-28.721294720087663L31.402741952131066,11.172938503596846z" style="fill:rgb(237,172,172)"/><path d="M-124.29754955601503,115.14727758804298L49.85382100786231,48.66486186935673L-142.79615987658843,80.6777429073938z" style="fill:rgb(96,86,244)"/><path d="M-158.07304722809621,43.485888599152155L15.048952733337572,-28.721294720087663L-169.1749509862607,5.887773493252175z" style="fill:rgb(77,134,244)"/><path d="M105.8927283273908,126.56357842565563L69.20027283716003,81.46556261382726L88.23712342193755,107.80235690514782z" style="fill:rgb(237,172,172)"/><path d="M-142.79615987658843,80.6777429073938L31.402741952131066,11.172938503596846L-158.07304722809621,43.485888599152155z" style="fill:rgb(85,109,246)"/><path d="M133.95063020793233,140.1980809264828L31.402741952131066,11.172938503596846L49.85382100786231,48.66486186935673zM121.32350602728035,137.31273581135366L49.85382100786231,48.66486186935673L69.20027283716003,81.46556261382726z" style="fill:rgb(237,172,172)"/><path d="M-175.5087590777269,-29.807834344112607L1.8380993896137585,-68.47150263451708L-7.47266630368047,-105.59253520364345z" style="fill:rgb(70,157,237)"/><path d="M-124.29754955601503,115.14727758804298L69.20027283716003,81.46556261382726L49.85382100786231,48.66486186935673z" style="fill:rgb(108,64,236)"/><path d="M-169.1749509862607,5.887773493252175L15.048952733337572,-28.721294720087663L1.8380993896137585,-68.47150263451708z" style="fill:rgb(77,134,244)"/><path d="M-142.79615987658843,80.6777429073938L49.85382100786231,48.66486186935673L31.402741952131066,11.172938503596846z" style="fill:rgb(96,86,244)"/><path d="M-158.07304722809621,43.485888599152155L31.402741952131066,11.172938503596846L15.048952733337572,-28.721294720087663z" style="fill:rgb(85,109,246)"/></svg>