<svg viewBox="-250 -250 500 500" width="500" height="500" xmlns="http://www.w3.org/2000/svg"><path d="M1.1458069065453265,-136.1160687355553L-22.7520852535638,-129.16306113621695L-34.554750568186634,-124.78805008914169zM13.13684073358625,-138.6525952242412L-34.554750568186634,-124.78805008914169L-46.192502285463114,-119.84329440987449zM25.0844778480936,-140.5365719756689L-46.192502285463114,-119.84329440987449L-57.615811530803164,-114.35216658137865zM-22.7520852535638,-129.16306113621695L1.1458069065453265,-136.1160687355553L-10.834737671531046,-132.9461442733543zM36.93307274964632,-141.7502433449739L-57.615811530803164,-114.35216658137865L-68.77584381829614,-108.33881841348253zM1.1458069065453265,-136.1160687355553L-34.554750568186634,-124.78805008914169L13.13684073358625,-138.6525952242412zM48.62557056956037,-142.2770127358505L-68.77584381829614,-108.33881841348253L-79.62457186351143,-101.82865848099239zM13.13684073358625,-138.6525952242412L-46.192502285463114,-119.84329440987449L25.0844778480936,-140.5365719756689zM60.10305061043882,-142.10209859314696L-79.62457186351143,-101.82865848099239L-90.11424137187186,-94.84823139192581zM25.0844778480936,-140.5365719756689L-57.615811530803164,-114.35216658137865L36.93307274964632,-141.7502433449739zM71.3049070160089,-141.21227804070125L-90.11424137187186,-94.84823139192581L-100.19739831212752,-87.42532751155339zM36.93307274964632,-141.7502433449739L-68.77584381829614,-108.33881841348253L48.62557056956037,-142.2770127358505zM82.16871626837377,-139.59672161026546L-100.19739831212752,-87.42532751155339L-109.8268101398484,-79.58915379079345zM48.62557056956037,-142.2770127358505L-79.62457186351143,-101.82865848099239L60.10305061043882,-142.10209859314696zM92.63037001796334,-137.2469026499496L-109.8268101398484,-79.58915379079345L-118.95546919827999,-71.37053482153271zM60.10305061043882,-142.10209859314696L-90.11424137187186,-94.84823139192581L71.3049070160089,-141.21227804070125zM102.6241475990206,-134.15712674185323L-118.95546919827999,-71.37053482153271L-127.53631388442014,-62.80196975803611zM71.3049070160089,-141.21227804070125L-100.19739831212752,-87.42532751155339L82.16871626837377,-139.59672161026546zM82.16871626837377,-139.59672161026546L-109.8268101398484,-79.58915379079345L92.63037001796334,-137.2469026499496zM120.93914176781531,-125.75206700856131L-127.53631388442014,-62.80196975803611L-135.52269796561814,-53.91793212843837zM120.93914176781531,-125.75206700856131L-135.52269796561814,-53.91793212843837L-142.8677567550937,-44.75489959913429zM92.63037001796334,-137.2469026499496L-118.95546919827999,-71.37053482153271L102.6241475990206,-134.15712674185323zM102.6241475990206,-134.15712674185323L-127.53631388442014,-62.80196975803611L112.08312627671864,-130.32510813013903zM136.56658093849822,-114.41008019242204L-142.8677567550937,-44.75489959913429L-149.5251911659768,-35.351691546951976zM112.08312627671864,-130.32510813013903L-127.53631388442014,-62.80196975803611L120.93914176781531,-125.75206700856131zM143.20053310003345,-107.66685790993648L-149.5251911659768,-35.351691546951976L-155.44905155546408,-25.74963451522778zM143.20053310003345,-107.66685790993648L-155.44905155546408,-25.74963451522778L-160.59393646579673,-15.992639555722572zM120.93914176781531,-125.75206700856131L-142.8677567550937,-44.75489959913429L129.12326085035934,-120.44363329091325zM129.12326085035934,-120.44363329091325L-142.8677567550937,-44.75489959913429L136.56658093849822,-114.41008019242204zM148.95755719509637,-100.23539795125201L-160.59393646579673,-15.992639555722572L-164.91545354500084,-6.127436294262289zM136.56658093849822,-114.41008019242204L-149.5251911659768,-35.351691546951976L143.20053310003345,-107.66685790993648zM153.77241654510095,-92.14315775273342L-164.91545354500084,-6.127436294262289L-168.3706475258656,3.7963484215659675zM157.5826438270706,-83.42464077822663L-168.3706475258656,3.7963484215659675L-170.91815867946278,13.726149418320487zM143.20053310003345,-107.66685790993648L-160.59393646579673,-15.992639555722572L148.95755719509637,-100.23539795125201zM160.32993577152783,-74.12123800484156L-170.91815867946278,13.726149418320487L-172.51905366350064,23.606273549081436zM148.95755719509637,-100.23539795125201L-164.91545354500084,-6.127436294262289L153.77241654510095,-92.14315775273342zM161.96131620860112,-64.28191842195535L-172.51905366350064,23.606273549081436L-173.13724326252134,33.37797768502054zM153.77241654510095,-92.14315775273342L-168.3706475258656,3.7963484215659675L157.5826438270706,-83.42464077822663z" style="fill:rgb(83,212,212)"/><path d="M174.4079355559754,-33.413916761804174L157.5826438270706,-83.42464077822663L177.1976736679034,-24.035373448399056z" style="fill:rgb(246,165,150)"/><path d="M-123.7873074545764,128.92429638155156L-154.74535401870088,86.10719004026878L-129.60997206431063,121.10628542111496z" style="fill:rgb(26,53,149)"/><path d="M162.4303236313311,-53.963373131724985L-173.13724326252134,33.37797768502054L-172.74018522818943,42.97962490921847zM157.5826438270706,-83.42464077822663L-170.91815867946278,13.726149418320487L160.32993577152783,-74.12123800484156z" style="fill:rgb(83,212,212)"/><path d="M177.1976736679034,-24.035373448399056L160.32993577152783,-74.12123800484156L178.9189553259045,-14.155540417722143z" style="fill:rgb(247,158,158)"/><path d="M-116.93278017775427,136.17683343792075L-147.88190952552443,93.26648848422177L-123.7873074545764,128.92429638155156z" style="fill:rgb(31,48,157)"/><path d="M-129.60997206431063,121.10628542111496L-154.74535401870088,86.10719004026878L-160.52172602293786,78.36413701529733z" style="fill:rgb(26,53,149)"/><path d="M161.69834488716273,-43.22998821072984L-172.74018522818943,42.97962490921847L-171.29988571811006,52.3469652412845zM160.32993577152783,-74.12123800484156L-172.51905366350064,23.606273549081436L161.96131620860112,-64.28191842195535z" style="fill:rgb(83,212,212)"/><path d="M177.1976736679034,-24.035373448399056L157.5826438270706,-83.42464077822663L160.32993577152783,-74.12123800484156z" style="fill:rgb(246,165,150)"/><path d="M178.9189553259045,-14.155540417722143L161.96131620860112,-64.28191842195535L179.52768990780513,-3.832747275540182z" style="fill:rgb(246,150,165)"/><path d="M-109.0665343593942,142.793846233224L-139.94881524216373,99.7709597483948L-116.93278017775427,136.17683343792075z" style="fill:rgb(37,44,164)"/><path d="M-123.7873074545764,128.92429638155156L-147.88190952552443,93.26648848422177L-154.74535401870088,86.10719004026878z" style="fill:rgb(31,48,157)"/><path d="M159.7360533978166,-32.15368585410975L-171.29988571811006,52.3469652412845L-168.79333895959792,61.4130067813131zM161.96131620860112,-64.28191842195535L-173.13724326252134,33.37797768502054L162.4303236313311,-53.963373131724985z" style="fill:rgb(83,212,212)"/><path d="M178.9189553259045,-14.155540417722143L160.32993577152783,-74.12123800484156L161.96131620860112,-64.28191842195535z" style="fill:rgb(247,158,158)"/><path d="M179.52768990780513,-3.832747275540182L162.4303236313311,-53.963373131724985L178.98724916151113,6.867424420151708z" style="fill:rgb(245,143,172)"/><path d="M-100.21878682144096,148.70716741845266L-130.9737936456098,105.5514971979524L-109.0665343593942,142.793846233224z" style="fill:rgb(44,41,171)"/><path d="M-116.93278017775427,136.17683343792075L-139.94881524216373,99.7709597483948L-147.88190952552443,93.26648848422177z" style="fill:rgb(37,44,164)"/><path d="M156.5246663793853,-20.813758871273226L-168.79333895959792,61.4130067813131L-165.20382381464768,70.10893317936932zM162.4303236313311,-53.963373131724985L-172.74018522818943,42.97962490921847L161.69834488716273,-43.22998821072984z" style="fill:rgb(83,212,212)"/><path d="M178.98724916151113,6.867424420151708L161.69834488716273,-43.22998821072984L177.26993578181802,17.872385831770607z" style="fill:rgb(243,135,179)"/><path d="M179.52768990780513,-3.832747275540182L161.96131620860112,-64.28191842195535L162.4303236313311,-53.963373131724985z" style="fill:rgb(246,150,165)"/><path d="M-90.43036563342304,153.85120181332672L-120.99634379838714,110.54163737082106L-100.21878682144096,148.70716741845266z" style="fill:rgb(51,38,177)"/><path d="M-109.0665343593942,142.793846233224L-130.9737936456098,105.5514971979524L-139.94881524216373,99.7709597483948z" style="fill:rgb(44,41,171)"/><path d="M152.0569439877167,-9.296355759568973L-165.20382381464768,70.10893317936932L-160.52172602293786,78.36413701529733zM161.69834488716273,-43.22998821072984L-171.29988571811006,52.3469652412845L159.7360533978166,-32.15368585410975z" style="fill:rgb(83,212,212)"/><path d="M177.26993578181802,17.872385831770607L159.7360533978166,-32.15368585410975L174.35771780232537,29.102725713443498z" style="fill:rgb(241,128,185)"/><path d="M178.98724916151113,6.867424420151708L162.4303236313311,-53.963373131724985L161.69834488716273,-43.22998821072984z" style="fill:rgb(245,143,172)"/><path d="M-79.75348121301461,158.16444228695283L-110.06777166897128,114.67910010821353L-90.43036563342304,153.85120181332672z" style="fill:rgb(59,35,184)"/><path d="M-100.21878682144096,148.70716741845266L-120.99634379838714,110.54163737082106L-130.9737936456098,105.5514971979524z" style="fill:rgb(51,38,177)"/><path d="M146.33879308929116,2.3063400973502213L-160.52172602293786,78.36413701529733L-154.74535401870088,86.10719004026878z" style="fill:rgb(83,212,212)"/><path d="M174.35771780232537,29.102725713443498L156.5246663793853,-20.813758871273226L170.24384508568556,40.472820662360554z" style="fill:rgb(237,120,191)"/><path d="M159.7360533978166,-32.15368585410975L-168.79333895959792,61.4130067813131L156.5246663793853,-20.813758871273226z" style="fill:rgb(83,212,212)"/><path d="M-68.25177522617417,161.59057322165233L-98.25182798471636,117.90701457700088L-79.75348121301461,158.16444228695283z" style="fill:rgb(67,34,190)"/><path d="M177.26993578181802,17.872385831770607L161.69834488716273,-43.22998821072984L159.7360533978166,-32.15368585410975z" style="fill:rgb(243,135,179)"/><path d="M-90.43036563342304,153.85120181332672L-110.06777166897128,114.67910010821353L-120.99634379838714,110.54163737082106z" style="fill:rgb(59,35,184)"/><path d="M139.3897473411545,13.896945891227368L-154.74535401870088,86.10719004026878L-147.88190952552443,93.26648848422177z" style="fill:rgb(83,212,212)"/><path d="M170.24384508568556,40.472820662360554L152.0569439877167,-9.296355759568973L164.9336335935831,51.89162696255616z" style="fill:rgb(233,112,196)"/><path d="M156.5246663793853,-20.813758871273226L-165.20382381464768,70.10893317936932L152.0569439877167,-9.296355759568973z" style="fill:rgb(83,212,212)"/><path d="M-56.00037104681754,164.07952382771504L-85.62468916114635,120.17499349913453L-68.25177522617417,161.59057322165233z" style="fill:rgb(76,32,195)"/><path d="M174.35771780232537,29.102725713443498L159.7360533978166,-32.15368585410975L156.5246663793853,-20.813758871273226z" style="fill:rgb(241,128,185)"/><path d="M-79.75348121301461,158.16444228695283L-98.25182798471636,117.90701457700088L-110.06777166897128,114.67910010821353z" style="fill:rgb(67,34,190)"/><path d="M164.9336335935831,51.89162696255616L146.33879308929116,2.3063400973502213L158.44521523695275,63.26357209497749z" style="fill:rgb(228,105,201)"/><path d="M-43.08553846394394,165.58920350173477L-72.2747824860254,121.44099492582484L-56.00037104681754,164.07952382771504z" style="fill:rgb(85,32,200)"/><path d="M131.24367410867995,25.374205488522737L-147.88190952552443,93.26648848422177L-139.94881524216373,99.7709597483948zM152.0569439877167,-9.296355759568973L-160.52172602293786,78.36413701529733L146.33879308929116,2.3063400973502213z" style="fill:rgb(83,212,212)"/><path d="M170.24384508568556,40.472820662360554L156.5246663793853,-20.813758871273226L152.0569439877167,-9.296355759568973z" style="fill:rgb(237,120,191)"/><path d="M158.44521523695275,63.26357209497749L139.3897473411545,13.896945891227368L150.81012438746654,74.48982560747636z" style="fill:rgb(223,97,206)"/><path d="M-68.25177522617417,161.59057322165233L-85.62468916114635,120.17499349913453L-98.25182798471636,117.90701457700088z" style="fill:rgb(76,32,195)"/><path d="M-29.60429865871269,166.08603747601066L-58.302033906954435,121.6718620588407L-43.08553846394394,165.58920350173477z" style="fill:rgb(94,32,205)"/><path d="M121.94951995844761,36.634366746815964L-139.94881524216373,99.7709597483948L-130.9737936456098,105.5514971979524zM146.33879308929116,2.3063400973502213L-154.74535401870088,86.10719004026878L139.3897473411545,13.896945891227368z" style="fill:rgb(83,212,212)"/><path d="M164.9336335935831,51.89162696255616L152.0569439877167,-9.296355759568973L146.33879308929116,2.3063400973502213z" style="fill:rgb(233,112,196)"/><path d="M150.81012438746654,74.48982560747636L131.24367410867995,25.374205488522737L142.074035506242,85.46964355867753z" style="fill:rgb(217,90,210)"/><path d="M-15.663335108643658,165.54673539321186L-43.817578037718405,120.84515619199396L-29.60429865871269,166.08603747601066z" style="fill:rgb(103,33,209)"/><path d="M-56.00037104681754,164.07952382771504L-72.2747824860254,121.44099492582484L-85.62468916114635,120.17499349913453z" style="fill:rgb(85,32,200)"/><path d="M111.57103760832644,47.57258303455445L-130.9737936456098,105.5514971979524L-120.99634379838714,110.54163737082106z" style="fill:rgb(83,212,212)"/><path d="M142.074035506242,85.46964355867753L121.94951995844761,36.634366746815964L132.29611552668004,96.10175088672017z" style="fill:rgb(210,83,213)"/><path d="M158.44521523695275,63.26357209497749L146.33879308929116,2.3063400973502213L139.3897473411545,13.896945891227368z" style="fill:rgb(228,105,201)"/><path d="M-1.3782500464086795,163.9585285485101L-28.94217857381568,118.9494988879253L-15.663335108643658,165.54673539321186z" style="fill:rgb(113,34,213)"/><path d="M139.3897473411545,13.896945891227368L-147.88190952552443,93.26648848422177L131.24367410867995,25.374205488522737z" style="fill:rgb(83,212,212)"/><path d="M-43.08553846394394,165.58920350173477L-58.302033906954435,121.6718620588407L-72.2747824860254,121.44099492582484z" style="fill:rgb(94,32,205)"/><path d="M132.29611552668004,96.10175088672017L111.57103760832644,47.57258303455445L121.54941743187604,106.2860798407299z" style="fill:rgb(203,77,216)"/><path d="M13.128401405459087,161.3205360166217L-13.804569021355954,115.98589859436493L-1.3782500464086795,163.9585285485101z" style="fill:rgb(122,36,216)"/><path d="M100.1863270603193,58.08479028242551L-120.99634379838714,110.54163737082106L-110.06777166897128,114.67910010821353z" style="fill:rgb(83,212,212)"/><path d="M150.81012438746654,74.48982560747636L139.3897473411545,13.896945891227368L131.24367410867995,25.374205488522737z" style="fill:rgb(223,97,206)"/><path d="M121.54941743187604,106.2860798407299L100.1863270603193,58.08479028242551L109.91977285023644,115.9253624249469z" style="fill:rgb(195,70,219)"/><path d="M131.24367410867995,25.374205488522737L-139.94881524216373,99.7709597483948L121.94951995844761,36.634366746815964z" style="fill:rgb(83,212,212)"/><path d="M27.728302480295092,157.6439714065157L1.459902243455239,111.96803342967786L13.128401405459087,161.3205360166217z" style="fill:rgb(132,38,218)"/><path d="M-29.60429865871269,166.08603747601066L-43.817578037718405,120.84515619199396L-58.302033906954435,121.6718620588407z" style="fill:rgb(103,33,209)"/><path d="M109.91977285023644,115.9253624249469L87.88756569520966,68.06936147793563L97.50507297775324,124.92696030052525z" style="fill:rgb(187,64,221)"/><path d="M42.28952680128558,152.9523289299142L16.71158567717101,106.92235349215566L27.728302480295092,157.6439714065157z" style="fill:rgb(141,41,220)"/><path d="M97.50507297775324,124.92696030052525L74.77966814655332,77.42907837921875L84.41382448133575,133.20441474376517z" style="fill:rgb(178,59,222)"/><path d="M56.67886972128387,147.28136357146366L31.809045297537267,100.88809869771816L42.28952680128558,152.9523289299142z" style="fill:rgb(151,45,222)"/><path d="M142.074035506242,85.46964355867753L131.24367410867995,25.374205488522737L121.94951995844761,36.634366746815964z" style="fill:rgb(217,90,210)"/><path d="M84.41382448133575,133.20441474376517L60.97887413930827,86.07279101913868L70.76359882419052,140.67907911909262z" style="fill:rgb(169,54,222)"/><path d="M87.88756569520966,68.06936147793563L-110.06777166897128,114.67910010821353L-98.25182798471636,117.90701457700088z" style="fill:rgb(83,212,212)"/><path d="M70.76359882419052,140.67907911909262L46.61090973471409,93.91717594774143L56.67886972128387,147.28136357146366z" style="fill:rgb(160,49,222)"/><path d="M121.94951995844761,36.634366746815964L-130.9737936456098,105.5514971979524L111.57103760832644,47.57258303455445z" style="fill:rgb(83,212,212)"/><path d="M-15.663335108643658,165.54673539321186L-28.94217857381568,118.9494988879253L-43.817578037718405,120.84515619199396z" style="fill:rgb(113,34,213)"/><path d="M132.29611552668004,96.10175088672017L121.94951995844761,36.634366746815964L111.57103760832644,47.57258303455445z" style="fill:rgb(210,83,213)"/><path d="M60.97887413930827,86.07279101913868L-98.25182798471636,117.90701457700088L-85.62468916114635,120.17499349913453z" style="fill:rgb(83,212,212)"/><path d="M-1.3782500464086795,163.9585285485101L-13.804569021355954,115.98589859436493L-28.94217857381568,118.9494988879253z" style="fill:rgb(122,36,216)"/><path d="M111.57103760832644,47.57258303455445L-120.99634379838714,110.54163737082106L100.1863270603193,58.08479028242551z" style="fill:rgb(83,212,212)"/><path d="M121.54941743187604,106.2860798407299L111.57103760832644,47.57258303455445L100.1863270603193,58.08479028242551z" style="fill:rgb(203,77,216)"/><path d="M13.128401405459087,161.3205360166217L1.459902243455239,111.96803342967786L-13.804569021355954,115.98589859436493z" style="fill:rgb(132,38,218)"/><path d="M60.97887413930827,86.07279101913868L-85.62468916114635,120.17499349913453L-72.2747824860254,121.44099492582484z" style="fill:rgb(83,212,212)"/><path d="M109.91977285023644,115.9253624249469L100.1863270603193,58.08479028242551L87.88756569520966,68.06936147793563z" style="fill:rgb(195,70,219)"/><path d="M100.1863270603193,58.08479028242551L-110.06777166897128,114.67910010821353L87.88756569520966,68.06936147793563z" style="fill:rgb(83,212,212)"/><path d="M27.728302480295092,157.6439714065157L16.71158567717101,106.92235349215566L1.459902243455239,111.96803342967786z" style="fill:rgb(141,41,220)"/><path d="M97.50507297775324,124.92696030052525L87.88756569520966,68.06936147793563L74.77966814655332,77.42907837921875z" style="fill:rgb(187,64,221)"/><path d="M42.28952680128558,152.9523289299142L31.809045297537267,100.88809869771816L16.71158567717101,106.92235349215566z" style="fill:rgb(151,45,222)"/><path d="M31.809045297537267,100.88809869771816L-72.2747824860254,121.44099492582484L-58.302033906954435,121.6718620588407z" style="fill:rgb(83,212,212)"/><path d="M84.41382448133575,133.20441474376517L74.77966814655332,77.42907837921875L60.97887413930827,86.07279101913868z" style="fill:rgb(178,59,222)"/><path d="M56.67886972128387,147.28136357146366L46.61090973471409,93.91717594774143L31.809045297537267,100.88809869771816z" style="fill:rgb(160,49,222)"/><path d="M70.76359882419052,140.67907911909262L60.97887413930827,86.07279101913868L46.61090973471409,93.91717594774143z" style="fill:rgb(169,54,222)"/><path d="M87.88756569520966,68.06936147793563L-98.25182798471636,117.90701457700088L74.77966814655332,77.42907837921875zM74.77966814655332,77.42907837921875L-98.25182798471636,117.90701457700088L60.97887413930827,86.07279101913868zM31.809045297537267,100.88809869771816L-58.302033906954435,121.6718620588407L-43.817578037718405,120.84515619199396zM16.71158567717101,106.92235349215566L-43.817578037718405,120.84515619199396L-28.94217857381568,118.9494988879253zM46.61090973471409,93.91717594774143L-72.2747824860254,121.44099492582484L31.809045297537267,100.88809869771816zM60.97887413930827,86.07279101913868L-72.2747824860254,121.44099492582484L46.61090973471409,93.91717594774143zM1.459902243455239,111.96803342967786L-28.94217857381568,118.9494988879253L-13.804569021355954,115.98589859436493zM31.809045297537267,100.88809869771816L-43.817578037718405,120.84515619199396L16.71158567717101,106.92235349215566zM16.71158567717101,106.92235349215566L-28.94217857381568,118.9494988879253L1.459902243455239,111.96803342967786z" style="fill:rgb(83,212,212)"/></svg>