<svg viewBox="-250 -250 500 500" width="500" height="500" xmlns="http://www.w3.org/2000/svg"><path d="M77.60494195257323,-63.36422626821731L-26.181932040530423,-94.61463755180779L-37.381452013382,-90.20272249100786zM77.60494195257323,-63.36422626821731L-37.381452013382,-90.20272249100786L-48.45503637220383,-85.49173324676306zM77.60494195257323,-63.36422626821731L-14.934522897518733,-98.69625922206014L-26.181932040530423,-94.61463755180779zM77.60494195257323,-63.36422626821731L-48.45503637220383,-85.49173324676306L-59.32502563377539,-80.51410265108863zM77.60494195257323,-63.36422626821731L-3.718068660089679,-102.41712196335192L-14.934522897518733,-98.69625922206014zM77.60494195257323,-63.36422626821731L-59.32502563377539,-80.51410265108863L-69.91364105191138,-75.3034961430251zM77.60494195257323,-63.36422626821731L7.387245839310043,-105.7480041552445L-3.718068660089679,-102.41712196335192zM77.60494195257323,-63.36422626821731L-69.91364105191138,-75.3034961430251L-80.14349800524623,-69.89496773680197zM77.60494195257323,-63.36422626821731L18.300470973929453,-108.6605505165381L7.387245839310043,-105.7480041552445zM77.60494195257323,-63.36422626821731L-80.14349800524623,-69.89496773680197L-89.93655630757782,-64.32544214970214zM77.60494195257323,-63.36422626821731L28.938614002262053,-111.12724779478796L18.300470973929453,-108.6605505165381zM77.60494195257323,-63.36422626821731L-89.93655630757782,-64.32544214970214L-99.21452640949005,-58.633349541550146zM77.60494195257323,-63.36422626821731L39.21714314495079,-113.12202378403936L28.938614002262053,-111.12724779478796zM77.60494195257323,-63.36422626821731L-99.21452640949005,-58.633349541550146L-107.89845347192235,-52.85929715309804zM77.60494195257323,-63.36422626821731L49.049921056014945,-114.61979919519534L39.21714314495079,-113.12202378403936zM77.60494195257323,-63.36422626821731L-107.89845347192235,-52.85929715309804L-115.90948477298015,-47.04603292991432zM77.60494195257323,-63.36422626821731L58.34894871801391,-115.59730951658219L49.049921056014945,-114.61979919519534zM77.60494195257323,-63.36422626821731L-115.90948477298015,-47.04603292991432L-123.16840461657881,-41.23852791159652zM77.60494195257323,-63.36422626821731L67.02480029929775,-116.03320928594331L58.34894871801391,-115.59730951658219zM77.60494195257323,-63.36422626821731L-123.16840461657881,-41.23852791159652L-129.59633213151045,-35.48460960278127z" style="fill:rgb(82,237,172)"/><path d="M144.063106266029,13.902145146102903L102.78716501706784,-102.79664932401408L145.0646929287052,19.313470585646026z" style="fill:rgb(246,166,151)"/><path d="M77.60494195257323,-63.36422626821731L74.98686487744902,-115.90851438499028L67.02480029929775,-116.03320928594331zM77.60494195257323,-63.36422626821731L-129.59633213151045,-35.48460960278127L-135.11566931937483,-29.834163529616152z" style="fill:rgb(82,237,172)"/><path d="M-89.77934461023355,115.68590761264853L-142.50366279261726,2.1815433048933706L-92.95979592812286,111.16305946834184z" style="fill:rgb(15,71,152)"/><path d="M77.60494195257323,-63.36422626821731L82.14450655190797,-115.20751321178803L74.98686487744902,-115.90851438499028zM77.60494195257323,-63.36422626821731L-135.11566931937483,-29.834163529616152L-139.65051574849346,-24.339580472057904z" style="fill:rgb(82,237,172)"/><path d="M145.0646929287052,19.313470585646026L103.3303844118919,-98.56131932650865L144.78073102710937,25.233721728490746z" style="fill:rgb(245,161,162)"/><path d="M-92.95979592812286,111.16305946834184L-142.50366279261726,2.1815433048933706L-145.19374199537614,-1.1787784527592275z" style="fill:rgb(15,71,152)"/><path d="M-85.32421418867429,119.66704708628875L-138.4735085332615,4.982957835552646L-89.77934461023355,115.68590761264853z" style="fill:rgb(20,68,163)"/><path d="M77.60494195257323,-63.36422626821731L88.40713059564318,-113.91773003899995L82.14450655190797,-115.20751321178803zM77.60494195257323,-63.36422626821731L-139.65051574849346,-24.339580472057904L-143.12796618252327,-19.055620696126724z" style="fill:rgb(82,237,172)"/><path d="M145.0646929287052,19.313470585646026L102.78716501706784,-102.79664932401408L103.3303844118919,-98.56131932650865z" style="fill:rgb(246,166,151)"/><path d="M144.78073102710937,25.233721728490746L102.52928708373022,-93.78452612520175L143.16966435595657,31.612522813913024z" style="fill:rgb(242,155,174)"/><path d="M77.60494195257323,-63.36422626821731L93.68594113928097,-112.0313974684923L88.40713059564318,-113.91773003899995zM77.60494195257323,-63.36422626821731L-143.12796618252327,-19.055620696126724L-145.47954898865532,-14.038832413450375z" style="fill:rgb(82,237,172)"/><path d="M-89.77934461023355,115.68590761264853L-138.4735085332615,4.982957835552646L-142.50366279261726,2.1815433048933706z" style="fill:rgb(20,68,163)"/><path d="M-79.60150131787418,123.04143899932996L-133.1014175684074,7.172953809573124L-85.32421418867429,119.66704708628875z" style="fill:rgb(26,66,175)"/><path d="M144.78073102710937,25.233721728490746L103.3303844118919,-98.56131932650865L102.52928708373022,-93.78452612520175z" style="fill:rgb(245,161,162)"/><path d="M77.60494195257323,-63.36422626821731L97.89513310781958,-109.54580025841001L93.68594113928097,-112.0313974684923zM77.60494195257323,-63.36422626821731L-145.47954898865532,-14.038832413450375L-146.64269464029744,-9.347703257089657z" style="fill:rgb(82,237,172)"/><path d="M143.16966435595657,31.612522813913024L100.34429215538322,-88.5018371518071L140.20561976847958,38.38952538064014z" style="fill:rgb(239,149,184)"/><path d="M-72.63671429728664,125.74854433379996L-126.40397908022614,8.703215885079034L-79.60150131787418,123.04143899932996z" style="fill:rgb(32,65,185)"/><path d="M-85.32421418867429,119.66704708628875L-133.1014175684074,7.172953809573124L-138.4735085332615,4.982957835552646z" style="fill:rgb(26,66,175)"/><path d="M77.60494195257323,-63.36422626821731L100.95369090580796,-106.46409202352682L97.89513310781958,-109.54580025841001zM77.60494195257323,-63.36422626821731L-146.64269464029744,-9.347703257089657L-146.56239545002023,-5.041285283619375z" style="fill:rgb(82,237,172)"/><path d="M143.16966435595657,31.612522813913024L102.52928708373022,-93.78452612520175L100.34429215538322,-88.5018371518071z" style="fill:rgb(242,155,174)"/><path d="M140.20561976847958,38.38952538064014L96.75223442624296,-82.75843028240422L135.88079028769522,45.494814846166015z" style="fill:rgb(234,143,195)"/><path d="M77.60494195257323,-63.36422626821731L102.78716501706784,-102.79664932401408L100.95369090580796,-106.46409202352682zM77.60494195257323,-63.36422626821731L-146.56239545002023,-5.041285283619375L-145.19374199537614,-1.1787784527592275z" style="fill:rgb(82,237,172)"/><path d="M-64.47470141395732,127.73326990615458L-118.41917047285017,9.532695860235986L-72.63671429728664,125.74854433379996z" style="fill:rgb(40,64,196)"/><path d="M-79.60150131787418,123.04143899932996L-126.40397908022614,8.703215885079034L-133.1014175684074,7.172953809573124z" style="fill:rgb(32,65,185)"/><path d="M140.20561976847958,38.38952538064014L100.34429215538322,-88.5018371518071L96.75223442624296,-82.75843028240422z" style="fill:rgb(239,149,184)"/><path d="M135.88079028769522,45.494814846166015L91.74932052907347,-76.60962023008548L130.20730111408702,52.84931589443652z" style="fill:rgb(228,137,204)"/><path d="M77.60494195257323,-63.36422626821731L103.3303844118919,-98.56131932650865L102.78716501706784,-102.79664932401408zM77.60494195257323,-63.36422626821731L-145.19374199537614,-1.1787784527592275L-142.50366279261726,2.1815433048933706z" style="fill:rgb(82,237,172)"/><path d="M-55.181656533249935,128.94843161676667L-109.20672602466098,9.627851220310136L-64.47470141395732,127.73326990615458z" style="fill:rgb(49,63,205)"/><path d="M-72.63671429728664,125.74854433379996L-118.41917047285017,9.532695860235986L-126.40397908022614,8.703215885079034z" style="fill:rgb(40,64,196)"/><path d="M77.60494195257323,-63.36422626821731L102.52928708373022,-93.78452612520175L103.3303844118919,-98.56131932650865z" style="fill:rgb(82,237,172)"/><path d="M135.88079028769522,45.494814846166015L96.75223442624296,-82.75843028240422L91.74932052907347,-76.60962023008548z" style="fill:rgb(234,143,195)"/><path d="M77.60494195257323,-63.36422626821731L-142.50366279261726,2.1815433048933706L-138.4735085332615,4.982957835552646z" style="fill:rgb(82,237,172)"/><path d="M130.20730111408702,52.84931589443652L85.35324309752494,-70.12014170361637L123.21955486432431,60.365082687127625z" style="fill:rgb(221,130,213)"/><path d="M-44.845223774766055,129.3562473864902L-98.85008625276247,8.965323200720238L-55.181656533249935,128.94843161676667z" style="fill:rgb(58,64,214)"/><path d="M77.60494195257323,-63.36422626821731L100.34429215538322,-88.5018371518071L102.52928708373022,-93.78452612520175z" style="fill:rgb(82,237,172)"/><path d="M-64.47470141395732,127.73326990615458L-109.20672602466098,9.627851220310136L-118.41917047285017,9.532695860235986z" style="fill:rgb(49,63,205)"/><path d="M77.60494195257323,-63.36422626821731L-138.4735085332615,4.982957835552646L-133.1014175684074,7.172953809573124z" style="fill:rgb(82,237,172)"/><path d="M123.21955486432431,60.365082687127625L77.60494195257323,-63.36422626821731L114.97499269578852,67.94739822115926z" style="fill:rgb(213,124,221)"/><path d="M130.20730111408702,52.84931589443652L91.74932052907347,-76.60962023008548L85.35324309752494,-70.12014170361637z" style="fill:rgb(228,137,204)"/><path d="M-33.57463557076009,128.9300464217088L-87.45601482696289,7.53345137045744L-44.845223774766055,129.3562473864902z" style="fill:rgb(69,65,222)"/><path d="M77.60494195257323,-63.36422626821731L96.75223442624296,-82.75843028240422L100.34429215538322,-88.5018371518071zM77.60494195257323,-63.36422626821731L-133.1014175684074,7.172953809573124L-126.40397908022614,8.703215885079034z" style="fill:rgb(82,237,172)"/><path d="M114.97499269578852,67.94739822115926L68.5702736131576,-56.42456741975534L105.55445577065088,75.49585304442219z" style="fill:rgb(204,117,228)"/><path d="M-55.181656533249935,128.94843161676667L-98.85008625276247,8.965323200720238L-109.20672602466098,9.627851220310136z" style="fill:rgb(58,64,214)"/><path d="M123.21955486432431,60.365082687127625L85.35324309752494,-70.12014170361637L77.60494195257323,-63.36422626821731z" style="fill:rgb(221,130,213)"/><path d="M-21.499703608248254,127.6562572265339L-75.15442749828101,5.3324243137628065L-33.57463557076009,128.9300464217088z" style="fill:rgb(79,66,228)"/><path d="M77.60494195257323,-63.36422626821731L91.74932052907347,-76.60962023008548L96.75223442624296,-82.75843028240422zM77.60494195257323,-63.36422626821731L-126.40397908022614,8.703215885079034L-118.41917047285017,9.532695860235986z" style="fill:rgb(82,237,172)"/><path d="M105.55445577065088,75.49585304442219L58.34035400782236,-49.390900300952325L95.06281993751398,82.9064477827884z" style="fill:rgb(195,111,234)"/><path d="M-8.769495477975683,125.53482913883695L-62.09664770543294,2.3767004394491993L-21.499703608248254,127.6562572265339z" style="fill:rgb(91,68,234)"/><path d="M-44.845223774766055,129.3562473864902L-87.45601482696289,7.53345137045744L-98.85008625276247,8.965323200720238z" style="fill:rgb(69,65,222)"/><path d="M114.97499269578852,67.94739822115926L77.60494195257323,-63.36422626821731L68.5702736131576,-56.42456741975534z" style="fill:rgb(213,124,221)"/><path d="M95.06281993751398,82.9064477827884L47.030800165417276,-42.358963180571L83.62707273226073,90.07413795357047z" style="fill:rgb(184,105,239)"/><path d="M77.60494195257323,-63.36422626821731L85.35324309752494,-70.12014170361637L91.74932052907347,-76.60962023008548zM77.60494195257323,-63.36422626821731L-118.41917047285017,9.532695860235986L-109.20672602466098,9.627851220310136z" style="fill:rgb(82,237,172)"/><path d="M4.450081961305299,122.58100337687797L-48.45273183498827,-1.3060323841122872L-8.769495477975683,125.53482913883695z" style="fill:rgb(102,71,239)"/><path d="M83.62707273226073,90.07413795357047L34.78109016824367,-35.42749374106804L71.39479534368905,96.89482338432545z" style="fill:rgb(174,99,242)"/><path d="M-33.57463557076009,128.9300464217088L-75.15442749828101,5.3324243137628065L-87.45601482696289,7.53345137045744z" style="fill:rgb(79,66,228)"/><path d="M17.98037263256123,118.82505590770064L-34.40881612854828,-5.673182752717072L4.450081961305299,122.58100337687797z" style="fill:rgb(114,75,243)"/><path d="M105.55445577065088,75.49585304442219L68.5702736131576,-56.42456741975534L58.34035400782236,-49.390900300952325z" style="fill:rgb(204,117,228)"/><path d="M71.39479534368905,96.89482338432545L21.751839018843132,-28.696436434241466L58.53068434074135,103.2687214177725z" style="fill:rgb(162,93,245)"/><path d="M77.60494195257323,-63.36422626821731L-109.20672602466098,9.627851220310136L-98.85008625276247,8.965323200720238z" style="fill:rgb(82,237,172)"/><path d="M31.632694992881966,114.31226568403311L-20.16214748288901,-10.669180938602029L17.98037263256123,118.82505590770064z" style="fill:rgb(126,79,245)"/><path d="M58.53068434074135,103.2687214177725L8.121789198522583,-22.264446872170208L45.21385089886182,109.10256894033515z" style="fill:rgb(151,88,246)"/><path d="M45.21385089886182,109.10256894033515L-5.916720613853842,-16.225927611843808L31.632694992881966,114.31226568403311z" style="fill:rgb(139,83,246)"/><path d="M-21.499703608248254,127.6562572265339L-62.09664770543294,2.3767004394491993L-75.15442749828101,5.3324243137628065z" style="fill:rgb(91,68,234)"/><path d="M95.06281993751398,82.9064477827884L58.34035400782236,-49.390900300952325L47.030800165417276,-42.358963180571z" style="fill:rgb(195,111,234)"/><path d="M77.60494195257323,-63.36422626821731L-98.85008625276247,8.965323200720238L-87.45601482696289,7.53345137045744z" style="fill:rgb(82,237,172)"/><path d="M-8.769495477975683,125.53482913883695L-48.45273183498827,-1.3060323841122872L-62.09664770543294,2.3767004394491993z" style="fill:rgb(102,71,239)"/><path d="M77.60494195257323,-63.36422626821731L58.34035400782236,-49.390900300952325L68.5702736131576,-56.42456741975534z" style="fill:rgb(82,237,172)"/><path d="M83.62707273226073,90.07413795357047L47.030800165417276,-42.358963180571L34.78109016824367,-35.42749374106804z" style="fill:rgb(184,105,239)"/><path d="M77.60494195257323,-63.36422626821731L-87.45601482696289,7.53345137045744L-75.15442749828101,5.3324243137628065z" style="fill:rgb(82,237,172)"/><path d="M4.450081961305299,122.58100337687797L-34.40881612854828,-5.673182752717072L-48.45273183498827,-1.3060323841122872z" style="fill:rgb(114,75,243)"/><path d="M71.39479534368905,96.89482338432545L34.78109016824367,-35.42749374106804L21.751839018843132,-28.696436434241466z" style="fill:rgb(174,99,242)"/><path d="M77.60494195257323,-63.36422626821731L47.030800165417276,-42.358963180571L58.34035400782236,-49.390900300952325zM77.60494195257323,-63.36422626821731L-75.15442749828101,5.3324243137628065L-62.09664770543294,2.3767004394491993z" style="fill:rgb(82,237,172)"/><path d="M17.98037263256123,118.82505590770064L-20.16214748288901,-10.669180938602029L-34.40881612854828,-5.673182752717072z" style="fill:rgb(126,79,245)"/><path d="M58.53068434074135,103.2687214177725L21.751839018843132,-28.696436434241466L8.121789198522583,-22.264446872170208z" style="fill:rgb(162,93,245)"/><path d="M31.632694992881966,114.31226568403311L-5.916720613853842,-16.225927611843808L-20.16214748288901,-10.669180938602029z" style="fill:rgb(139,83,246)"/><path d="M45.21385089886182,109.10256894033515L8.121789198522583,-22.264446872170208L-5.916720613853842,-16.225927611843808z" style="fill:rgb(151,88,246)"/><path d="M77.60494195257323,-63.36422626821731L34.78109016824367,-35.42749374106804L47.030800165417276,-42.358963180571zM77.60494195257323,-63.36422626821731L-62.09664770543294,2.3767004394491993L-48.45273183498827,-1.3060323841122872zM77.60494195257323,-63.36422626821731L21.751839018843132,-28.696436434241466L34.78109016824367,-35.42749374106804zM77.60494195257323,-63.36422626821731L-48.45273183498827,-1.3060323841122872L-34.40881612854828,-5.673182752717072zM77.60494195257323,-63.36422626821731L8.121789198522583,-22.264446872170208L21.751839018843132,-28.696436434241466zM77.60494195257323,-63.36422626821731L-34.40881612854828,-5.673182752717072L-20.16214748288901,-10.669180938602029zM77.60494195257323,-63.36422626821731L-5.916720613853842,-16.225927611843808L8.121789198522583,-22.264446872170208zM77.60494195257323,-63.36422626821731L-20.16214748288901,-10.669180938602029L-5.916720613853842,-16.225927611843808z" style="fill:rgb(82,237,172)"/></svg>