<svg viewBox="-250 -250 500 500" width="500" height="500" xmlns="http://www.w3.org/2000/svg"><path d="M15.091665833660933,0L15.01423112171038,-1.5267936595951441L14.782738724781813,-3.037937237426185zM15.091665833660933,0L14.782738724781813,-3.037937237426185L14.399547579213786,-4.517886256947955zM15.091665833660933,0L14.399547579213786,-4.517886256947955L13.868606996362612,-5.951488797982799zM15.091665833660933,0L13.868606996362612,-5.951488797982799L13.19535303635686,-7.324015900948841zM15.091665833660933,0L13.19535303635686,-7.324015900948841L12.38668116228257,-8.621385550671883zM15.091665833660933,0L12.38668116228257,-8.621385550671883L11.450922492501991,-9.830288611058755zM15.091665833660933,0L11.450922492501991,-9.830288611058755L10.397659576217137,-10.938333829878346zM15.091665833660933,0L10.397659576217137,-10.938333829878346L9.237699047655001,-11.934127357512489zM15.091665833660933,0L9.237699047655001,-11.934127357512489L7.982947850274322,-12.807451214378775zM15.091665833660933,0L7.982947850274322,-12.807451214378775L6.64627938619847,-13.549373393816383zM15.091665833660933,0L6.64627938619847,-13.549373393816383L5.24141117967563,-14.152239226565646zM15.091665833660933,0L5.24141117967563,-14.152239226565646L3.7827713863250394,-14.60989446504653zM15.091665833660933,0L3.7827713863250394,-14.60989446504653L2.28530071588648,-14.917628432848979zM15.091665833660933,0L2.28530071588648,-14.917628432848979L0.7643777709496445,-15.07230355753977zM15.091665833660933,0L0.7643777709496445,-15.07230355753977L-0.7643777709496445,-15.07230355753977zM15.091665833660933,0L-0.7643777709496445,-15.07230355753977L-2.28530071588648,-14.917628432848979zM15.091665833660933,0L-2.28530071588648,-14.917628432848979L-3.7827713863250394,-14.60989446504653zM15.091665833660933,0L-3.7827713863250394,-14.60989446504653L-5.24141117967563,-14.152239226565646zM15.091665833660933,0L-5.24141117967563,-14.152239226565646L-6.64627938619847,-13.549373393816383zM15.091665833660933,0L-6.64627938619847,-13.549373393816383L-7.982947850274322,-12.807451214378775zM15.091665833660933,0L-7.982947850274322,-12.807451214378775L-9.237699047655001,-11.934127357512489zM15.091665833660933,0L-9.237699047655001,-11.934127357512489L-10.397659576217137,-10.938333829878346zM15.091665833660933,0L-10.397659576217137,-10.938333829878346L-11.450922492501991,-9.830288611058755zM15.091665833660933,0L-11.450922492501991,-9.830288611058755L-12.38668116228257,-8.621385550671883zM15.091665833660933,0L-12.38668116228257,-8.621385550671883L-13.19535303635686,-7.324015900948841zM15.091665833660933,0L-13.19535303635686,-7.324015900948841L-13.868606996362612,-5.951488797982799zM15.091665833660933,0L-13.868606996362612,-5.951488797982799L-14.399547579213786,-4.517886256947955zM15.091665833660933,0L-14.399547579213786,-4.517886256947955L-14.782738724781813,-3.037937237426185zM15.091665833660933,0L-14.782738724781813,-3.037937237426185L-15.01423112171038,-1.5267936595951441zM15.091665833660933,0L-15.01423112171038,-1.5267936595951441L-15.091665833660933,0zM15.091665833660933,0L-15.091665833660933,0L-15.01423112171038,1.5267936595951441zM15.091665833660933,0L-15.01423112171038,1.5267936595951441L-14.782738724781813,3.037937237426185zM15.091665833660933,0L-14.782738724781813,3.037937237426185L-14.399547579213786,4.517886256947955zM15.091665833660933,0L-14.399547579213786,4.517886256947955L-13.868606996362612,5.951488797982799zM15.091665833660933,0L-13.868606996362612,5.951488797982799L-13.19535303635686,7.324015900948841zM15.091665833660933,0L-13.19535303635686,7.324015900948841L-12.38668116228257,8.621385550671883zM15.091665833660933,0L-12.38668116228257,8.621385550671883L-11.450922492501991,9.830288611058755zM15.091665833660933,0L-11.450922492501991,9.830288611058755L-10.397659576217137,10.938333829878346zM15.091665833660933,0L-10.397659576217137,10.938333829878346L-9.237699047655001,11.934127357512489zM15.091665833660933,0L-9.237699047655001,11.934127357512489L-7.982947850274322,12.807451214378775zM15.091665833660933,0L-7.982947850274322,12.807451214378775L-6.64627938619847,13.549373393816383zM15.091665833660933,0L-6.64627938619847,13.549373393816383L-5.24141117967563,14.152239226565646zM15.091665833660933,0L-5.24141117967563,14.152239226565646L-3.7827713863250394,14.60989446504653zM15.091665833660933,0L-3.7827713863250394,14.60989446504653L-2.28530071588648,14.917628432848979zM15.091665833660933,0L-2.28530071588648,14.917628432848979L-0.7643777709496445,15.07230355753977zM15.091665833660933,0L-0.7643777709496445,15.07230355753977L0.7643777709496445,15.07230355753977zM15.091665833660933,0L0.7643777709496445,15.07230355753977L2.28530071588648,14.917628432848979zM15.091665833660933,0L2.28530071588648,14.917628432848979L3.7827713863250394,14.60989446504653zM15.091665833660933,0L3.7827713863250394,14.60989446504653L5.24141117967563,14.152239226565646zM15.091665833660933,0L5.24141117967563,14.152239226565646L6.64627938619847,13.549373393816383zM15.091665833660933,0L6.64627938619847,13.549373393816383L7.982947850274322,12.807451214378775zM15.091665833660933,0L7.982947850274322,12.807451214378775L9.237699047655001,11.934127357512489zM15.091665833660933,0L9.237699047655001,11.934127357512489L10.397659576217137,10.938333829878346zM15.091665833660933,0L10.397659576217137,10.938333829878346L11.450922492501991,9.830288611058755zM15.091665833660933,0L11.450922492501991,9.830288611058755L12.38668116228257,8.621385550671883zM15.091665833660933,0L12.38668116228257,8.621385550671883L13.19535303635686,7.324015900948841zM15.091665833660933,0L13.19535303635686,7.324015900948841L13.868606996362612,5.951488797982799zM15.091665833660933,0L13.868606996362612,5.951488797982799L14.399547579213786,4.517886256947955zM15.091665833660933,0L14.399547579213786,4.517886256947955L14.782738724781813,3.037937237426185zM15.091665833660933,0L14.782738724781813,3.037937237426185L15.01423112171038,1.5267936595951441z" style="fill:rgb(127,127,255)"/></svg>