<svg viewBox="-250 -250 500 500" width="500" height="500" xmlns="http://www.w3.org/2000/svg"><path d="M22.899451298251684,-18.69734036225679L-8.899618724713177,-32.16088861144872L-12.710702474771818,-30.671359892257936zM22.899451298251684,-18.69734036225679L-12.710702474771818,-30.671359892257936L-16.469551814620793,-29.058084274538004zM22.899451298251684,-18.69734036225679L-5.071121188579408,-33.513001708120825L-8.899618724713177,-32.16088861144872zM22.899451298251684,-18.69734036225679L-16.469551814620793,-29.058084274538004L-20.141741052412545,-27.335752312634717zM22.899451298251684,-18.69734036225679L-1.260266237201048,-34.71502350325104L-5.071121188579408,-33.513001708120825zM22.899451298251684,-18.69734036225679L-20.141741052412545,-27.335752312634717L-23.69337189797063,-25.51996595355853zM22.899451298251684,-18.69734036225679L2.4977766902065697,-35.755531298185005L-1.260266237201048,-34.71502350325104zM22.899451298251684,-18.69734036225679L-23.69337189797063,-25.51996595355853L-27.091528264368996,-23.62713808492332zM22.899451298251684,-18.69734036225679L6.16822082501032,-36.62431811225034L2.4977766902065697,-35.755531298185005zM22.899451298251684,-18.69734036225679L-27.091528264368996,-23.62713808492332L-30.30419925823838,-21.674512526499903zM22.899451298251684,-18.69734036225679L9.716523588258251,-37.31244780457951L6.16822082501032,-36.62431811225034zM22.899451298251684,-18.69734036225679L-30.30419925823838,-21.674512526499903L-33.300669300031444,-19.679878075289068zM22.899451298251684,-18.69734036225679L13.10884053345893,-37.812508808358814L9.716523588258251,-37.31244780457951zM22.899451298251684,-18.69734036225679L-33.300669300031444,-19.679878075289068L-36.05160661513098,-17.66163022356665zM22.899451298251684,-18.69734036225679L16.312259922456082,-38.11847025393873L13.10884053345893,-37.812508808358814zM22.899451298251684,-18.69734036225679L-36.05160661513098,-17.66163022356665L-38.5295254829606,-15.638593581841977z" style="fill:rgb(82,237,172)"/><path d="M45.897903650179806,2.925750815591415L31.69541178872741,-33.42545683195539L46.25330937930987,4.463462139233331z" style="fill:rgb(246,171,139)"/><path d="M22.899451298251684,-18.69734036225679L19.294957470164356,-38.225970129591715L16.312259922456082,-38.11847025393873zM22.899451298251684,-18.69734036225679L-38.5295254829606,-15.638593581841977L-40.70878907862345,-13.629879674841067z" style="fill:rgb(82,237,172)"/><path d="M-29.825734075514863,35.66616963409634L-45.172001084886844,-0.3667360646203113L-30.681747821252213,34.33323508232024z" style="fill:rgb(11,75,140)"/><path d="M22.899451298251684,-18.69734036225679L22.026538160429595,-38.1323017868167L19.294957470164356,-38.225970129591715zM22.899451298251684,-18.69734036225679L-40.70878907862345,-13.629879674841067L-42.565947063050544,-11.654928724157543z" style="fill:rgb(82,237,172)"/><path d="M46.25330937930987,4.463462139233331L32.00164597080008,-32.00459880477621L46.208112635236,6.152007123038928z" style="fill:rgb(246,166,151)"/><path d="M22.899451298251684,-18.69734036225679L24.478272992399337,-37.83649659038469L22.026538160429595,-38.1323017868167zM22.899451298251684,-18.69734036225679L-42.565947063050544,-11.654928724157543L-44.08011990076477,-9.733093964224079z" style="fill:rgb(82,237,172)"/><path d="M-30.681747821252213,34.33323508232024L-45.172001084886844,-0.3667360646203113L-45.98185932681309,-1.5816312910685792z" style="fill:rgb(11,75,140)"/><path d="M-28.578571990696847,36.82515230391121L-43.96478827982171,0.6730429775863171L-29.825734075514863,35.66616963409634z" style="fill:rgb(15,71,152)"/><path d="M46.25330937930987,4.463462139233331L31.69541178872741,-33.42545683195539L32.00164597080008,-32.00459880477621z" style="fill:rgb(246,171,139)"/><path d="M22.899451298251684,-18.69734036225679L26.62357616225273,-37.339514609166926L24.478272992399337,-37.83649659038469zM22.899451298251684,-18.69734036225679L-44.08011990076477,-9.733093964224079L-45.23311958873794,-7.883645458317491z" style="fill:rgb(82,237,172)"/><path d="M46.208112635236,6.152007123038928L31.901968355238452,-30.42957894815463L45.7583002247667,7.975178785527035z" style="fill:rgb(245,161,162)"/><path d="M22.899451298251684,-18.69734036225679L28.43806475560137,-36.644100558782846L26.62357616225273,-37.339514609166926z" style="fill:rgb(82,237,172)"/><path d="M-29.825734075514863,35.66616963409634L-43.96478827982171,0.6730429775863171L-45.172001084886844,-0.3667360646203113z" style="fill:rgb(15,71,152)"/><path d="M22.899451298251684,-18.69734036225679L-45.23311958873794,-7.883645458317491L-46.00979985583425,-6.125604364694307z" style="fill:rgb(82,237,172)"/><path d="M-26.949072860076267,37.796023104853155L-42.36847890078366,1.524626234688027L-28.578571990696847,36.82515230391121z" style="fill:rgb(20,68,163)"/><path d="M46.208112635236,6.152007123038928L32.00164597080008,-32.00459880477621L31.901968355238452,-30.42957894815463z" style="fill:rgb(246,166,151)"/><path d="M22.899451298251684,-18.69734036225679L29.90009033491328,-35.75508623726682L28.43806475560137,-36.644100558782846z" style="fill:rgb(82,237,172)"/><path d="M45.7583002247667,7.975178785527035L31.3927648940366,-28.71526432191766L44.90422887572404,9.915061030286886z" style="fill:rgb(242,155,174)"/><path d="M22.899451298251684,-18.69734036225679L-46.00979985583425,-6.125604364694307L-46.39834999840553,-4.477458614743341z" style="fill:rgb(82,237,172)"/><path d="M-28.578571990696847,36.82515230391121L-42.36847890078366,1.524626234688027L-43.96478827982171,0.6730429775863171z" style="fill:rgb(20,68,163)"/><path d="M-24.950433773046367,38.566323803791946L-40.395843160120876,2.176967927012398L-26.949072860076267,37.796023104853155z" style="fill:rgb(26,66,175)"/><path d="M45.7583002247667,7.975178785527035L31.901968355238452,-30.42957894815463L31.3927648940366,-28.71526432191766z" style="fill:rgb(245,161,162)"/><path d="M22.899451298251684,-18.69734036225679L30.990979814371517,-34.67926930359709L29.90009033491328,-35.75508623726682zM22.899451298251684,-18.69734036225679L-46.39834999840553,-4.477458614743341L-46.39052823740431,-2.957153051276025z" style="fill:rgb(82,237,172)"/><path d="M44.90422887572404,9.915061030286886L30.47499433570463,-26.87838967187415L43.650830052049066,11.951979178411493z" style="fill:rgb(239,149,184)"/><path d="M-22.600365174662418,39.12571004374667L-38.06405283633792,2.620800956633233L-24.950433773046367,38.566323803791946z" style="fill:rgb(32,65,185)"/><path d="M22.899451298251684,-18.69734036225679L31.69541178872741,-33.42545683195539L30.990979814371517,-34.67926930359709z" style="fill:rgb(82,237,172)"/><path d="M-26.949072860076267,37.796023104853155L-40.395843160120876,2.176967927012398L-42.36847890078366,1.524626234688027z" style="fill:rgb(26,66,175)"/><path d="M22.899451298251684,-18.69734036225679L-46.39052823740431,-2.957153051276025L-45.98185932681309,-1.5816312910685792z" style="fill:rgb(82,237,172)"/><path d="M44.90422887572404,9.915061030286886L31.3927648940366,-28.71526432191766L30.47499433570463,-26.87838967187415z" style="fill:rgb(242,155,174)"/><path d="M43.650830052049066,11.951979178411493L29.154134098586262,-24.937412438583255L42.00772283671628,14.06478111084795z" style="fill:rgb(234,143,195)"/><path d="M22.899451298251684,-18.69734036225679L32.00164597080008,-32.00459880477621L31.69541178872741,-33.42545683195539zM22.899451298251684,-18.69734036225679L-45.98185932681309,-1.5816312910685792L-45.172001084886844,-0.3667360646203113z" style="fill:rgb(82,237,172)"/><path d="M-19.920833644033433,39.46591709315135L-35.394942629801605,2.8492787251685523L-22.600365174662418,39.12571004374667z" style="fill:rgb(40,64,196)"/><path d="M-24.950433773046367,38.566323803791946L-38.06405283633792,2.620800956633233L-40.395843160120876,2.176967927012398z" style="fill:rgb(32,65,185)"/><path d="M43.650830052049066,11.951979178411493L30.47499433570463,-26.87838967187415L29.154134098586262,-24.937412438583255z" style="fill:rgb(239,149,184)"/><path d="M42.00772283671628,14.06478111084795L27.440448258675644,-22.912456549193813L39.989185181174214,16.23104896513632z" style="fill:rgb(228,137,204)"/><path d="M22.899451298251684,-18.69734036225679L31.901968355238452,-30.42957894815463L32.00164597080008,-32.00459880477621zM22.899451298251684,-18.69734036225679L-45.172001084886844,-0.3667360646203113L-43.96478827982171,0.6730429775863171z" style="fill:rgb(82,237,172)"/><path d="M-16.938198495721828,39.58116279312374L-32.41453486038078,2.8577206768457497L-19.920833644033433,39.46591709315135z" style="fill:rgb(49,63,205)"/><path d="M-22.600365174662418,39.12571004374667L-35.394942629801605,2.8492787251685523L-38.06405283633792,2.620800956633233z" style="fill:rgb(40,64,196)"/><path d="M22.899451298251684,-18.69734036225679L31.3927648940366,-28.71526432191766L31.901968355238452,-30.42957894815463zM22.899451298251684,-18.69734036225679L-43.96478827982171,0.6730429775863171L-42.36847890078366,1.524626234688027z" style="fill:rgb(82,237,172)"/><path d="M42.00772283671628,14.06478111084795L29.154134098586262,-24.937412438583255L27.440448258675644,-22.912456549193813z" style="fill:rgb(234,143,195)"/><path d="M39.989185181174214,16.23104896513632L25.348970716275065,-20.824907808541983L37.61429611459099,18.427189561555476z" style="fill:rgb(221,130,213)"/><path d="M-13.682836140012313,39.4682016877833L-29.153150078342907,2.6440787527804765L-16.938198495721828,39.58116279312374z" style="fill:rgb(58,64,214)"/><path d="M22.899451298251684,-18.69734036225679L30.47499433570463,-26.87838967187415L31.3927648940366,-28.71526432191766z" style="fill:rgb(82,237,172)"/><path d="M-19.920833644033433,39.46591709315135L-32.41453486038078,2.8577206768457497L-35.394942629801605,2.8492787251685523z" style="fill:rgb(49,63,205)"/><path d="M22.899451298251684,-18.69734036225679L-42.36847890078366,1.524626234688027L-40.395843160120876,2.176967927012398z" style="fill:rgb(82,237,172)"/><path d="M37.61429611459099,18.427189561555476L22.899451298251684,-18.69734036225679L34.90669349206873,20.62899894731997z" style="fill:rgb(213,124,221)"/><path d="M39.989185181174214,16.23104896513632L27.440448258675644,-22.912456549193813L25.348970716275065,-20.824907808541983z" style="fill:rgb(228,137,204)"/><path d="M-10.1889073221316,39.1264498243123L-25.644918358966766,2.2090504093843637L-13.682836140012313,39.4682016877833z" style="fill:rgb(69,65,222)"/><path d="M22.899451298251684,-18.69734036225679L29.154134098586262,-24.937412438583255L30.47499433570463,-26.87838967187415zM22.899451298251684,-18.69734036225679L-40.395843160120876,2.176967927012398L-38.06405283633792,2.620800956633233z" style="fill:rgb(82,237,172)"/><path d="M34.90669349206873,20.62899894731997L20.11634020075681,-16.55317580180309L31.89430402796782,22.8118052645873z" style="fill:rgb(204,117,228)"/><path d="M-16.938198495721828,39.58116279312374L-29.153150078342907,2.6440787527804765L-32.41453486038078,2.8577206768457497z" style="fill:rgb(58,64,214)"/><path d="M37.61429611459099,18.427189561555476L25.348970716275065,-20.824907808541983L22.899451298251684,-18.69734036225679z" style="fill:rgb(221,130,213)"/><path d="M-6.49392100322329,38.5581896895651L-21.927555265639473,1.5558235586658955L-10.1889073221316,39.1264498243123z" style="fill:rgb(79,66,228)"/><path d="M22.899451298251684,-18.69734036225679L27.440448258675644,-22.912456549193813L29.154134098586262,-24.937412438583255zM22.899451298251684,-18.69734036225679L-38.06405283633792,2.620800956633233L-35.394942629801605,2.8492787251685523z" style="fill:rgb(82,237,172)"/><path d="M31.89430402796782,22.8118052645873L17.028538369841215,-14.416347915595416L28.60931614207864,24.950835420131725z" style="fill:rgb(195,111,234)"/><path d="M-2.638388459022671,37.768380773684534L-18.04181828796034,0.6905364305150131L-6.49392100322329,38.5581896895651z" style="fill:rgb(91,68,234)"/><path d="M-13.682836140012313,39.4682016877833L-25.644918358966766,2.2090504093843637L-29.153150078342907,2.6440787527804765z" style="fill:rgb(69,65,222)"/><path d="M34.90669349206873,20.62899894731997L22.899451298251684,-18.69734036225679L20.11634020075681,-16.55317580180309z" style="fill:rgb(213,124,221)"/><path d="M28.60931614207864,24.950835420131725L13.66897407535792,-12.311157104233558L25.08756426589618,27.021640848773362z" style="fill:rgb(184,105,239)"/><path d="M22.899451298251684,-18.69734036225679L25.348970716275065,-20.824907808541983L27.440448258675644,-22.912456549193813zM22.899451298251684,-18.69734036225679L-35.394942629801605,2.8492787251685523L-32.41453486038078,2.8577206768457497z" style="fill:rgb(82,237,172)"/><path d="M1.334683583210424,36.764907757472265L-14.030937014038393,-0.37820072111065806L-2.638388459022671,37.768380773684534z" style="fill:rgb(102,71,239)"/><path d="M25.08756426589618,27.021640848773362L10.074409295922987,-10.261641327221573L21.368219259966253,29.00029086524989z" style="fill:rgb(174,99,242)"/><path d="M-10.1889073221316,39.1264498243123L-21.927555265639473,1.5558235586658955L-25.644918358966766,2.2090504093843637z" style="fill:rgb(79,66,228)"/><path d="M5.380616792664811,35.55833376047424L-9.940222265683381,-1.638902579652002L1.334683583210424,36.764907757472265z" style="fill:rgb(114,75,243)"/><path d="M31.89430402796782,22.8118052645873L20.11634020075681,-16.55317580180309L17.028538369841215,-14.416347915595416z" style="fill:rgb(204,117,228)"/><path d="M21.368219259966253,29.00029086524989L6.284855157994848,-8.291388437712234L17.493076786254733,30.86394245559853z" style="fill:rgb(162,93,245)"/><path d="M22.899451298251684,-18.69734036225679L-32.41453486038078,2.8577206768457497L-29.153150078342907,2.6440787527804765z" style="fill:rgb(82,237,172)"/><path d="M9.453319521867897,34.161818113283886L-5.81619326211269,-3.0777484561117103L5.380616792664811,35.55833376047424z" style="fill:rgb(126,79,245)"/><path d="M17.493076786254733,30.86394245559853L2.343098358630458,-6.423189231688849L13.50626039547842,32.59106837017718z" style="fill:rgb(151,88,246)"/><path d="M13.50626039547842,32.59106837017718L-1.706028342800684,-4.678587041818629L9.453319521867897,34.161818113283886z" style="fill:rgb(139,83,246)"/><path d="M-6.49392100322329,38.5581896895651L-18.04181828796034,0.6905364305150131L-21.927555265639473,1.5558235586658955z" style="fill:rgb(91,68,234)"/><path d="M28.60931614207864,24.950835420131725L17.028538369841215,-14.416347915595416L13.66897407535792,-12.311157104233558z" style="fill:rgb(195,111,234)"/><path d="M22.899451298251684,-18.69734036225679L-29.153150078342907,2.6440787527804765L-25.644918358966766,2.2090504093843637z" style="fill:rgb(82,237,172)"/><path d="M-2.638388459022671,37.768380773684534L-14.030937014038393,-0.37820072111065806L-18.04181828796034,0.6905364305150131z" style="fill:rgb(102,71,239)"/><path d="M22.899451298251684,-18.69734036225679L17.028538369841215,-14.416347915595416L20.11634020075681,-16.55317580180309z" style="fill:rgb(82,237,172)"/><path d="M25.08756426589618,27.021640848773362L13.66897407535792,-12.311157104233558L10.074409295922987,-10.261641327221573z" style="fill:rgb(184,105,239)"/><path d="M22.899451298251684,-18.69734036225679L-25.644918358966766,2.2090504093843637L-21.927555265639473,1.5558235586658955z" style="fill:rgb(82,237,172)"/><path d="M1.334683583210424,36.764907757472265L-9.940222265683381,-1.638902579652002L-14.030937014038393,-0.37820072111065806z" style="fill:rgb(114,75,243)"/><path d="M21.368219259966253,29.00029086524989L10.074409295922987,-10.261641327221573L6.284855157994848,-8.291388437712234z" style="fill:rgb(174,99,242)"/><path d="M22.899451298251684,-18.69734036225679L13.66897407535792,-12.311157104233558L17.028538369841215,-14.416347915595416zM22.899451298251684,-18.69734036225679L-21.927555265639473,1.5558235586658955L-18.04181828796034,0.6905364305150131z" style="fill:rgb(82,237,172)"/><path d="M5.380616792664811,35.55833376047424L-5.81619326211269,-3.0777484561117103L-9.940222265683381,-1.638902579652002z" style="fill:rgb(126,79,245)"/><path d="M17.493076786254733,30.86394245559853L6.284855157994848,-8.291388437712234L2.343098358630458,-6.423189231688849z" style="fill:rgb(162,93,245)"/><path d="M9.453319521867897,34.161818113283886L-1.706028342800684,-4.678587041818629L-5.81619326211269,-3.0777484561117103z" style="fill:rgb(139,83,246)"/><path d="M13.50626039547842,32.59106837017718L2.343098358630458,-6.423189231688849L-1.706028342800684,-4.678587041818629z" style="fill:rgb(151,88,246)"/><path d="M22.899451298251684,-18.69734036225679L10.074409295922987,-10.261641327221573L13.66897407535792,-12.311157104233558zM22.899451298251684,-18.69734036225679L-18.04181828796034,0.6905364305150131L-14.030937014038393,-0.37820072111065806zM22.899451298251684,-18.69734036225679L6.284855157994848,-8.291388437712234L10.074409295922987,-10.261641327221573zM22.899451298251684,-18.69734036225679L-14.030937014038393,-0.37820072111065806L-9.940222265683381,-1.638902579652002zM22.899451298251684,-18.69734036225679L2.343098358630458,-6.423189231688849L6.284855157994848,-8.291388437712234zM22.899451298251684,-18.69734036225679L-9.940222265683381,-1.638902579652002L-5.81619326211269,-3.0777484561117103zM22.899451298251684,-18.69734036225679L-1.706028342800684,-4.678587041818629L2.343098358630458,-6.423189231688849zM22.899451298251684,-18.69734036225679L-5.81619326211269,-3.0777484561117103L-1.706028342800684,-4.678587041818629z" style="fill:rgb(82,237,172)"/></svg>