<svg viewBox="-250 -250 500 500" width="500" height="500" xmlns="http://www.w3.org/2000/svg"><path d="M90.29353864639317,-73.72443132351793L-29.55839860333269,-106.81630240796876L-42.1995006750614,-101.82883873234752zM90.29353864639317,-73.72443132351793L-42.1995006750614,-101.82883873234752L-54.70454126843377,-96.51805879543849zM90.29353864639317,-73.72443132351793L-16.86397378666838,-111.44722464750313L-29.55839860333269,-106.81630240796876zM90.29353864639317,-73.72443132351793L-54.70454126843377,-96.51805879543849L-66.99107986512792,-90.91823599478373zM90.29353864639317,-73.72443132351793L-4.19987449800696,-115.68884225036754L-16.86397378666838,-111.44722464750313zM90.29353864639317,-73.72443132351793L-66.99107986512792,-90.91823599478373L-78.97624871224484,-85.06476777367796zM90.29353864639317,-73.72443132351793L8.348573542168761,-119.509355561136L-4.19987449800696,-115.68884225036754zM90.29353864639317,-73.72443132351793L-78.97624871224484,-85.06476777367796L-90.57718778229085,-78.9944259398192zM90.29353864639317,-73.72443132351793L20.69486187649313,-122.8774432945984L8.348573542168761,-119.509355561136zM90.29353864639317,-73.72443132351793L-90.57718778229085,-78.9944259398192L-101.7097052153898,-72.74596701835868zM90.29353864639317,-73.72443132351793L32.749693666262274,-125.76218484304896L20.69486187649313,-122.8774432945984zM90.29353864639317,-73.72443132351793L-101.7097052153898,-72.74596701835868L-112.2885858410129,-66.35979771720919zM90.29353864639317,-73.72443132351793L44.42138581436563,-128.13368490508293L32.749693666262274,-125.76218484304896zM90.29353864639317,-73.72443132351793L-112.2885858410129,-66.35979771720919L-122.22696943465743,-59.87881651288399zM90.29353864639317,-73.72443132351793L55.61562707196495,-129.96253347326794L44.42138581436563,-128.13368490508293zM90.29353864639317,-73.72443132351793L-122.22696943465743,-59.87881651288399L-131.43706443236775,-53.348459564008955zM90.29353864639317,-73.72443132351793L66.23501280699368,-131.2206893955749L55.61562707196495,-129.96253347326794zM90.29353864639317,-73.72443132351793L-131.43706443236775,-53.348459564008955L-139.8294762275577,-46.81689087574568zM90.29353864639317,-73.72443132351793L76.17937036515603,-131.88158391192027L66.23501280699368,-131.2206893955749zM90.29353864639317,-73.72443132351793L-139.8294762275577,-46.81689087574568L-147.31386778360547,-40.33582587871695z" style="fill:rgb(82,237,172)"/><path d="M164.52912741350946,15.877124055901522L118.16161554555035,-118.172518473274L165.94861498052595,22.09389224523617z" style="fill:rgb(246,166,151)"/><path d="M-102.71884768129696,132.35920995553505L-164.14484251494758,2.5128412505605597L-106.18098160832159,126.97320013545676z" style="fill:rgb(15,71,152)"/><path d="M90.29353864639317,-73.72443132351793L85.34587075617316,-131.920611755251L76.17937036515603,-131.88158391192027zM90.29353864639317,-73.72443132351793L-147.31386778360547,-40.33582587871695L-153.79990791382963,-33.959729664626956zM90.29353864639317,-73.72443132351793L93.6302046177433,-131.31618276512162L85.34587075617316,-131.920611755251z" style="fill:rgb(82,237,172)"/><path d="M165.94861498052595,22.09389224523617L119.00387475147598,-113.5114222910236L165.89901279417776,28.91441073809578z" style="fill:rgb(245,161,162)"/><path d="M90.29353864639317,-73.72443132351793L-153.79990791382963,-33.959729664626956L-159.1976558514772,-27.74643641516097z" style="fill:rgb(82,237,172)"/><path d="M-106.18098160832159,126.97320013545676L-164.14484251494758,2.5128412505605597L-166.93723851007005,-1.3553064823211547z" style="fill:rgb(15,71,152)"/><path d="M-97.78375068389643,137.14152317287883L-159.79499594223992,5.750209809418002L-102.71884768129696,132.35920995553505z" style="fill:rgb(20,68,163)"/><path d="M90.29353864639317,-73.72443132351793L100.9265356111936,-130.04971160204207L93.6302046177433,-131.31618276512162z" style="fill:rgb(82,237,172)"/><path d="M165.94861498052595,22.09389224523617L118.16161554555035,-118.172518473274L119.00387475147598,-113.5114222910236z" style="fill:rgb(246,166,151)"/><path d="M90.29353864639317,-73.72443132351793L-159.1976558514772,-27.74643641516097L-163.41897772591062,-21.757104059751374z" style="fill:rgb(82,237,172)"/><path d="M165.89901279417776,28.91441073809578L118.29780293301532,-108.20813940376911L164.32211190946308,36.28308088124779z" style="fill:rgb(242,155,174)"/><path d="M90.29353864639317,-73.72443132351793L107.12942056446042,-128.10736114593138L100.9265356111936,-130.04971160204207zM90.29353864639317,-73.72443132351793L-163.41897772591062,-21.757104059751374L-166.37918860513537,-16.05565567223125z" style="fill:rgb(82,237,172)"/><path d="M-102.71884768129696,132.35920995553505L-159.79499594223992,5.750209809418002L-164.14484251494758,2.5128412505605597z" style="fill:rgb(20,68,163)"/><path d="M-91.37479705741873,141.23962905322742L-153.8737236870903,8.292391866880424L-97.78375068389643,137.14152317287883z" style="fill:rgb(26,66,175)"/><path d="M165.89901279417776,28.91441073809578L119.00387475147598,-113.5114222910236L118.29780293301532,-108.20813940376911z" style="fill:rgb(245,161,162)"/><path d="M90.29353864639317,-73.72443132351793L112.1351542877793,-125.48055070343284L107.12942056446042,-128.10736114593138zM90.29353864639317,-73.72443132351793L-166.37918860513537,-16.05565567223125L-167.99878039571962,-10.709041800849528z" style="fill:rgb(82,237,172)"/><path d="M164.32211190946308,36.28308088124779L115.9866338419176,-102.29809747592081L161.1774689577427,44.13180117571616z" style="fill:rgb(239,149,184)"/><path d="M-83.51284779491411,144.57728636237243L-146.38883587456428,10.079221010701874L-91.37479705741873,141.23962905322742z" style="fill:rgb(32,65,185)"/><path d="M-97.78375068389643,137.14152317287883L-153.8737236870903,8.292391866880424L-159.79499594223992,5.750209809418002z" style="fill:rgb(26,66,175)"/><path d="M90.29353864639317,-73.72443132351793L115.84385082580023,-122.1670082987344L112.1351542877793,-125.48055070343284zM90.29353864639317,-73.72443132351793L-167.99878039571962,-10.709041800849528L-168.20545031508843,-5.7857382768228245z" style="fill:rgb(82,237,172)"/><path d="M164.32211190946308,36.28308088124779L118.29780293301532,-108.20813940376911L115.9866338419176,-102.29809747592081z" style="fill:rgb(242,155,174)"/><path d="M161.1774689577427,44.13180117571616L112.03244083897629,-95.82857697832317L156.44568755913875,52.38023398240922z" style="fill:rgb(234,143,195)"/><path d="M90.29353864639317,-73.72443132351793L118.16161554555035,-118.172518473274L115.84385082580023,-122.1670082987344zM90.29353864639317,-73.72443132351793L-168.20545031508843,-5.7857382768228245L-166.93723851007005,-1.3553064823211547z" style="fill:rgb(82,237,172)"/><path d="M-74.24210824927255,147.08384906693618L-137.37396821472393,11.0585494973124L-83.51284779491411,144.57728636237243z" style="fill:rgb(40,64,196)"/><path d="M-91.37479705741873,141.23962905322742L-146.38883587456428,10.079221010701874L-153.8737236870903,8.292391866880424z" style="fill:rgb(32,65,185)"/><path d="M161.1774689577427,44.13180117571616L115.9866338419176,-102.29809747592081L112.03244083897629,-95.82857697832317z" style="fill:rgb(239,149,184)"/><path d="M156.44568755913875,52.38023398240922L106.42014876720677,-88.85959192800183L150.13114201369947,60.9361232587295z" style="fill:rgb(228,137,204)"/><path d="M90.29353864639317,-73.72443132351793L119.00387475147598,-113.5114222910236L118.16161554555035,-118.172518473274zM90.29353864639317,-73.72443132351793L-166.93723851007005,-1.3553064823211547L-164.14484251494758,2.5128412505605597z" style="fill:rgb(82,237,172)"/><path d="M-63.63294754221747,148.6973987411333L-126.88967195828246,11.186809892390922L-74.24210824927255,147.08384906693618z" style="fill:rgb(49,63,205)"/><path d="M-83.51284779491411,144.57728636237243L-137.37396821472393,11.0585494973124L-146.38883587456428,10.079221010701874z" style="fill:rgb(40,64,196)"/><path d="M90.29353864639317,-73.72443132351793L118.29780293301532,-108.20813940376911L119.00387475147598,-113.5114222910236z" style="fill:rgb(82,237,172)"/><path d="M156.44568755913875,52.38023398240922L112.03244083897629,-95.82857697832317L106.42014876720677,-88.85959192800183z" style="fill:rgb(234,143,195)"/><path d="M90.29353864639317,-73.72443132351793L-164.14484251494758,2.5128412505605597L-159.79499594223992,5.750209809418002z" style="fill:rgb(82,237,172)"/><path d="M150.13114201369947,60.9361232587295L99.16065605790155,-81.4633281861231L142.26527971292356,69.69555589479253z" style="fill:rgb(221,130,213)"/><path d="M-51.78249455080639,149.36683578715483L-115.0262805338688,10.432441899199956L-63.63294754221747,148.6973987411333z" style="fill:rgb(58,64,214)"/><path d="M90.29353864639317,-73.72443132351793L115.9866338419176,-102.29809747592081L118.29780293301532,-108.20813940376911z" style="fill:rgb(82,237,172)"/><path d="M-74.24210824927255,147.08384906693618L-126.88967195828246,11.186809892390922L-137.37396821472393,11.0585494973124z" style="fill:rgb(49,63,205)"/><path d="M90.29353864639317,-73.72443132351793L-159.79499594223992,5.750209809418002L-153.8737236870903,8.292391866880424z" style="fill:rgb(82,237,172)"/><path d="M142.26527971292356,69.69555589479253L90.29353864639317,-73.72443132351793L132.90804615110693,78.54539258393247z" style="fill:rgb(213,124,221)"/><path d="M150.13114201369947,60.9361232587295L106.42014876720677,-88.85959192800183L99.16065605790155,-81.4633281861231z" style="fill:rgb(228,137,204)"/><path d="M-38.81517389812244,149.0542514453964L-101.90400580200559,8.777999702857965L-51.78249455080639,149.36683578715483z" style="fill:rgb(69,65,222)"/><path d="M90.29353864639317,-73.72443132351793L112.03244083897629,-95.82857697832317L115.9866338419176,-102.29809747592081zM90.29353864639317,-73.72443132351793L-153.8737236870903,8.292391866880424L-146.38883587456428,10.079221010701874z" style="fill:rgb(82,237,172)"/><path d="M132.90804615110693,78.54539258393247L79.88962456783054,-65.73894590237614L122.14878532314313,87.3646373237686z" style="fill:rgb(204,117,228)"/><path d="M-63.63294754221747,148.6973987411333L-115.0262805338688,10.432441899199956L-126.88967195828246,11.186809892390922z" style="fill:rgb(58,64,214)"/><path d="M142.26527971292356,69.69555589479253L99.16065605790155,-81.4633281861231L90.29353864639317,-73.72443132351793z" style="fill:rgb(221,130,213)"/><path d="M-24.881786855506068,147.7376544792783L-87.67309649079635,6.220660138766785L-38.81517389812244,149.0542514453964z" style="fill:rgb(79,66,228)"/><path d="M90.29353864639317,-73.72443132351793L106.42014876720677,-88.85959192800183L112.03244083897629,-95.82857697832317zM90.29353864639317,-73.72443132351793L-146.38883587456428,10.079221010701874L-137.37396821472393,11.0585494973124z" style="fill:rgb(82,237,172)"/><path d="M122.14878532314313,87.3646373237686L68.05189668023831,-57.612685102556824L110.10731669744979,96.02709564349574z" style="fill:rgb(195,111,234)"/><path d="M-10.15804498516596,145.41183638215276L-72.51200609602253,2.7753401048520936L-24.881786855506068,147.7376544792783z" style="fill:rgb(91,68,234)"/><path d="M-51.78249455080639,149.36683578715483L-101.90400580200559,8.777999702857965L-115.0262805338688,10.432441899199956z" style="fill:rgb(69,65,222)"/><path d="M132.90804615110693,78.54539258393247L90.29353864639317,-73.72443132351793L79.88962456783054,-65.73894590237614z" style="fill:rgb(213,124,221)"/><path d="M110.10731669744979,96.02709564349574L54.914964757127564,-49.459948842630595L96.93186935871658,104.40464179187201z" style="fill:rgb(184,105,239)"/><path d="M90.29353864639317,-73.72443132351793L99.16065605790155,-81.4633281861231L106.42014876720677,-88.85959192800183zM90.29353864639317,-73.72443132351793L-137.37396821472393,11.0585494973124L-126.88967195828246,11.186809892390922z" style="fill:rgb(82,237,172)"/><path d="M5.158349076323561,142.0907774378301L-56.62419782952432,-1.5262923944432192L-10.15804498516596,145.41183638215276z" style="fill:rgb(102,71,239)"/><path d="M96.93186935871658,104.40464179187201L40.64445941520626,-41.39983320177872L82.79728306254175,112.36992949453342z" style="fill:rgb(174,99,242)"/><path d="M-38.81517389812244,149.0542514453964L-87.67309649079635,6.220660138766785L-101.90400580200559,8.777999702857965z" style="fill:rgb(79,66,228)"/><path d="M20.85277290231769,137.80759479151726L-40.2347461107066,-6.6337379014278035L5.158349076323561,142.0907774378301z" style="fill:rgb(114,75,243)"/><path d="M122.14878532314313,87.3646373237686L79.88962456783054,-65.73894590237614L68.05189668023831,-57.612685102556824z" style="fill:rgb(204,117,228)"/><path d="M82.79728306254175,112.36992949453342L25.43373564178795,-33.55383319532708L67.90072114811042,119.80076322854853z" style="fill:rgb(162,93,245)"/><path d="M90.29353864639317,-73.72443132351793L-126.88967195828246,11.186809892390922L-115.0262805338688,10.432441899199956z" style="fill:rgb(82,237,172)"/><path d="M36.69736205241712,132.61464449307957L-23.583980360963707,-12.479908399494754L20.85277290231769,137.80759479151726z" style="fill:rgb(126,79,245)"/><path d="M67.90072114811042,119.80076322854853L9.49999248380307,-26.042547124976533L52.458068685924644,126.58311427808519z" style="fill:rgb(151,88,246)"/><path d="M52.458068685924644,126.58311427808519L-6.921629505238998,-18.981774979376198L36.69736205241712,132.61464449307957z" style="fill:rgb(139,83,246)"/><path d="M-24.881786855506068,147.7376544792783L-72.51200609602253,2.7753401048520936L-87.67309649079635,6.220660138766785z" style="fill:rgb(91,68,234)"/><path d="M90.29353864639317,-73.72443132351793L-115.0262805338688,10.432441899199956L-101.90400580200559,8.777999702857965z" style="fill:rgb(82,237,172)"/><path d="M110.10731669744979,96.02709564349574L68.05189668023831,-57.612685102556824L54.914964757127564,-49.459948842630595z" style="fill:rgb(195,111,234)"/><path d="M-10.15804498516596,145.41183638215276L-56.62419782952432,-1.5262923944432192L-72.51200609602253,2.7753401048520936z" style="fill:rgb(102,71,239)"/><path d="M90.29353864639317,-73.72443132351793L68.05189668023831,-57.612685102556824L79.88962456783054,-65.73894590237614zM90.29353864639317,-73.72443132351793L-101.90400580200559,8.777999702857965L-87.67309649079635,6.220660138766785z" style="fill:rgb(82,237,172)"/><path d="M96.93186935871658,104.40464179187201L54.914964757127564,-49.459948842630595L40.64445941520626,-41.39983320177872z" style="fill:rgb(184,105,239)"/><path d="M5.158349076323561,142.0907774378301L-40.2347461107066,-6.6337379014278035L-56.62419782952432,-1.5262923944432192z" style="fill:rgb(114,75,243)"/><path d="M82.79728306254175,112.36992949453342L40.64445941520626,-41.39983320177872L25.43373564178795,-33.55383319532708z" style="fill:rgb(174,99,242)"/><path d="M90.29353864639317,-73.72443132351793L54.914964757127564,-49.459948842630595L68.05189668023831,-57.612685102556824zM90.29353864639317,-73.72443132351793L-87.67309649079635,6.220660138766785L-72.51200609602253,2.7753401048520936z" style="fill:rgb(82,237,172)"/><path d="M20.85277290231769,137.80759479151726L-23.583980360963707,-12.479908399494754L-40.2347461107066,-6.6337379014278035z" style="fill:rgb(126,79,245)"/><path d="M67.90072114811042,119.80076322854853L25.43373564178795,-33.55383319532708L9.49999248380307,-26.042547124976533z" style="fill:rgb(162,93,245)"/><path d="M36.69736205241712,132.61464449307957L-6.921629505238998,-18.981774979376198L-23.583980360963707,-12.479908399494754z" style="fill:rgb(139,83,246)"/><path d="M90.29353864639317,-73.72443132351793L40.64445941520626,-41.39983320177872L54.914964757127564,-49.459948842630595z" style="fill:rgb(82,237,172)"/><path d="M52.458068685924644,126.58311427808519L9.49999248380307,-26.042547124976533L-6.921629505238998,-18.981774979376198z" style="fill:rgb(151,88,246)"/><path d="M90.29353864639317,-73.72443132351793L-72.51200609602253,2.7753401048520936L-56.62419782952432,-1.5262923944432192zM90.29353864639317,-73.72443132351793L25.43373564178795,-33.55383319532708L40.64445941520626,-41.39983320177872zM90.29353864639317,-73.72443132351793L-56.62419782952432,-1.5262923944432192L-40.2347461107066,-6.6337379014278035zM90.29353864639317,-73.72443132351793L9.49999248380307,-26.042547124976533L25.43373564178795,-33.55383319532708zM90.29353864639317,-73.72443132351793L-40.2347461107066,-6.6337379014278035L-23.583980360963707,-12.479908399494754zM90.29353864639317,-73.72443132351793L-6.921629505238998,-18.981774979376198L9.49999248380307,-26.042547124976533zM90.29353864639317,-73.72443132351793L-23.583980360963707,-12.479908399494754L-6.921629505238998,-18.981774979376198z" style="fill:rgb(82,237,172)"/></svg>