solid JSxCAD
facet normal 0.992709254713098 -0.12053354556705523 0
outer loop
vertex 24.91893 -2.01166 0
vertex 24.91893 -2.01166 10
vertex 24.67626 -4.01028 0
endloop
endfacet
facet normal 0.992709254713098 -0.12053354556705523 0
outer loop
vertex 24.67626 -4.01028 0
vertex 24.91893 -2.01166 10
vertex 24.67626 -4.01028 10
endloop
endfacet
facet normal 0.979790770302684 -0.20002511449733745 0
outer loop
vertex 24.67626 -4.01028 0
vertex 24.67626 -4.01028 10
vertex 24.27355 -5.98289 0
endloop
endfacet
facet normal 0.979790770302684 -0.20002511449733745 0
outer loop
vertex 24.27355 -5.98289 0
vertex 24.67626 -4.01028 10
vertex 24.27355 -5.98289 10
endloop
endfacet
facet normal 0.9605174343394185 -0.27821980218888237 0
outer loop
vertex 24.27355 -5.98289 0
vertex 24.27355 -5.98289 10
vertex 23.71341 -7.9167 0
endloop
endfacet
facet normal 0.9605174343394185 -0.27821980218888237 0
outer loop
vertex 23.71341 -7.9167 0
vertex 24.27355 -5.98289 10
vertex 23.71341 -7.9167 10
endloop
endfacet
facet normal 0.9350173462720255 -0.3546019771101385 0
outer loop
vertex 23.71341 -7.9167 0
vertex 23.71341 -7.9167 10
vertex 22.99949 -9.79917 0
endloop
endfacet
facet normal 0.9350173462720255 -0.3546019771101385 0
outer loop
vertex 22.99949 -9.79917 0
vertex 23.71341 -7.9167 10
vertex 22.99949 -9.79917 10
endloop
endfacet
facet normal 0.9034491892283987 -0.42869518598014267 0
outer loop
vertex 22.99949 -9.79917 0
vertex 22.99949 -9.79917 10
vertex 22.1364 -11.61808 0
endloop
endfacet
facet normal 0.9034491892283987 -0.42869518598014267 0
outer loop
vertex 22.1364 -11.61808 0
vertex 22.99949 -9.79917 10
vertex 22.1364 -11.61808 10
endloop
endfacet
facet normal 0.866025534733636 -0.49999977318926847 0
outer loop
vertex 22.1364 -11.61808 0
vertex 22.1364 -11.61808 10
vertex 21.12975 -13.36165 0
endloop
endfacet
facet normal 0.866025534733636 -0.49999977318926847 0
outer loop
vertex 21.12975 -13.36165 0
vertex 22.1364 -11.61808 10
vertex 21.12975 -13.36165 10
endloop
endfacet
facet normal 0.8229844222390703 -0.5680639407248305 0
outer loop
vertex 21.12975 -13.36165 0
vertex 21.12975 -13.36165 10
vertex 19.98607 -15.01856 0
endloop
endfacet
facet normal 0.8229844222390703 -0.5680639407248305 0
outer loop
vertex 19.98607 -15.01856 0
vertex 21.12975 -13.36165 10
vertex 19.98607 -15.01856 10
endloop
endfacet
facet normal 0.7746050842770174 -0.6324452256221047 0
outer loop
vertex 19.98607 -15.01856 0
vertex 19.98607 -15.01856 10
vertex 18.71277 -16.57807 0
endloop
endfacet
facet normal 0.7746050842770174 -0.6324452256221047 0
outer loop
vertex 18.71277 -16.57807 0
vertex 19.98607 -15.01856 10
vertex 18.71277 -16.57807 10
endloop
endfacet
facet normal 0.7212012874103362 -0.6927255611262468 0
outer loop
vertex 18.71277 -16.57807 0
vertex 18.71277 -16.57807 10
vertex 17.31811 -18.03006 0
endloop
endfacet
facet normal 0.7212012874103362 -0.6927255611262468 0
outer loop
vertex 17.31811 -18.03006 0
vertex 18.71277 -16.57807 10
vertex 17.31811 -18.03006 10
endloop
endfacet
facet normal 0.6631204929497373 -0.7485126664459978 0
outer loop
vertex 17.31811 -18.03006 0
vertex 17.31811 -18.03006 10
vertex 15.81113 -19.36512 0
endloop
endfacet
facet normal 0.6631204929497373 -0.7485126664459978 0
outer loop
vertex 15.81113 -19.36512 0
vertex 17.31811 -18.03006 10
vertex 15.81113 -19.36512 10
endloop
endfacet
facet normal 0.6007459776445667 -0.7994399729459829 0
outer loop
vertex 15.81113 -19.36512 0
vertex 15.81113 -19.36512 10
vertex 14.20162 -20.5746 0
endloop
endfacet
facet normal 0.6007459776445667 -0.7994399729459829 0
outer loop
vertex 14.20162 -20.5746 0
vertex 15.81113 -19.36512 10
vertex 14.20162 -20.5746 10
endloop
endfacet
facet normal 0.5344660782588423 -0.8451899261057322 0
outer loop
vertex 14.20162 -20.5746 0
vertex 14.20162 -20.5746 10
vertex 12.5 -21.65064 0
endloop
endfacet
facet normal 0.5344660782588423 -0.8451899261057322 0
outer loop
vertex 12.5 -21.65064 0
vertex 14.20162 -20.5746 10
vertex 12.5 -21.65064 10
endloop
endfacet
facet normal 0.46472010007795544 -0.8854576379384478 0
outer loop
vertex 12.5 -21.65064 0
vertex 12.5 -21.65064 10
vertex 10.71731 -22.58626 0
endloop
endfacet
facet normal 0.46472010007795544 -0.8854576379384478 0
outer loop
vertex 10.71731 -22.58626 0
vertex 12.5 -21.65064 10
vertex 10.71731 -22.58626 10
endloop
endfacet
facet normal 0.39196895989099034 -0.9199784424006767 0
outer loop
vertex 10.71731 -22.58626 0
vertex 10.71731 -22.58626 10
vertex 8.86512 -23.37541 0
endloop
endfacet
facet normal 0.39196895989099034 -0.9199784424006767 0
outer loop
vertex 8.86512 -23.37541 0
vertex 10.71731 -22.58626 10
vertex 8.86512 -23.37541 10
endloop
endfacet
facet normal 0.3166658212891025 -0.9485371672355798 0
outer loop
vertex 8.86512 -23.37541 0
vertex 8.86512 -23.37541 10
vertex 6.95544 -24.01295 0
endloop
endfacet
facet normal 0.3166658212891025 -0.9485371672355798 0
outer loop
vertex 6.95544 -24.01295 0
vertex 8.86512 -23.37541 10
vertex 6.95544 -24.01295 10
endloop
endfacet
facet normal 0.2393180398765221 -0.970941231892878 0
outer loop
vertex 6.95544 -24.01295 0
vertex 6.95544 -24.01295 10
vertex 5.00064 -24.49477 0
endloop
endfacet
facet normal 0.2393180398765221 -0.970941231892878 0
outer loop
vertex 5.00064 -24.49477 0
vertex 6.95544 -24.01295 10
vertex 5.00064 -24.49477 10
endloop
endfacet
facet normal 0.1604090142411291 -0.9870506309962975 0
outer loop
vertex 5.00064 -24.49477 0
vertex 5.00064 -24.49477 10
vertex 3.01342 -24.81772 0
endloop
endfacet
facet normal 0.1604090142411291 -0.9870506309962975 0
outer loop
vertex 3.01342 -24.81772 0
vertex 5.00064 -24.49477 10
vertex 3.01342 -24.81772 10
endloop
endfacet
facet normal 0.08046497840589929 -0.9967574365160955 0
outer loop
vertex 3.01342 -24.81772 0
vertex 3.01342 -24.81772 10
vertex 1.00665 -24.97972 0
endloop
endfacet
facet normal 0.08046497840589929 -0.9967574365160955 0
outer loop
vertex 1.00665 -24.97972 0
vertex 3.01342 -24.81772 10
vertex 1.00665 -24.97972 10
endloop
endfacet
facet normal 0 -1 0
outer loop
vertex 1.00665 -24.97972 0
vertex 1.00665 -24.97972 10
vertex -1.00665 -24.97972 0
endloop
endfacet
facet normal 0 -1 0
outer loop
vertex -1.00665 -24.97972 0
vertex 1.00665 -24.97972 10
vertex -1.00665 -24.97972 10
endloop
endfacet
facet normal -0.08046497840589929 -0.9967574365160955 0
outer loop
vertex -1.00665 -24.97972 0
vertex -1.00665 -24.97972 10
vertex -3.01342 -24.81772 0
endloop
endfacet
facet normal -0.08046497840589929 -0.9967574365160955 0
outer loop
vertex -3.01342 -24.81772 0
vertex -1.00665 -24.97972 10
vertex -3.01342 -24.81772 10
endloop
endfacet
facet normal -0.1604090142411291 -0.9870506309962975 0
outer loop
vertex -3.01342 -24.81772 0
vertex -3.01342 -24.81772 10
vertex -5.00064 -24.49477 0
endloop
endfacet
facet normal -0.1604090142411291 -0.9870506309962975 0
outer loop
vertex -5.00064 -24.49477 0
vertex -3.01342 -24.81772 10
vertex -5.00064 -24.49477 10
endloop
endfacet
facet normal -0.2393180398765221 -0.970941231892878 0
outer loop
vertex -5.00064 -24.49477 0
vertex -5.00064 -24.49477 10
vertex -6.95544 -24.01295 0
endloop
endfacet
facet normal -0.2393180398765221 -0.970941231892878 0
outer loop
vertex -6.95544 -24.01295 0
vertex -5.00064 -24.49477 10
vertex -6.95544 -24.01295 10
endloop
endfacet
facet normal -0.3166658212891025 -0.9485371672355798 0
outer loop
vertex -6.95544 -24.01295 0
vertex -6.95544 -24.01295 10
vertex -8.86512 -23.37541 0
endloop
endfacet
facet normal -0.3166658212891025 -0.9485371672355798 0
outer loop
vertex -8.86512 -23.37541 0
vertex -6.95544 -24.01295 10
vertex -8.86512 -23.37541 10
endloop
endfacet
facet normal -0.39196895989099034 -0.9199784424006767 0
outer loop
vertex -8.86512 -23.37541 0
vertex -8.86512 -23.37541 10
vertex -10.71731 -22.58626 0
endloop
endfacet
facet normal -0.39196895989099034 -0.9199784424006767 0
outer loop
vertex -10.71731 -22.58626 0
vertex -8.86512 -23.37541 10
vertex -10.71731 -22.58626 10
endloop
endfacet
facet normal -0.46472010007795544 -0.8854576379384478 0
outer loop
vertex -10.71731 -22.58626 0
vertex -10.71731 -22.58626 10
vertex -12.5 -21.65064 0
endloop
endfacet
facet normal -0.46472010007795544 -0.8854576379384478 0
outer loop
vertex -12.5 -21.65064 0
vertex -10.71731 -22.58626 10
vertex -12.5 -21.65064 10
endloop
endfacet
facet normal -0.5344660782588423 -0.8451899261057322 0
outer loop
vertex -12.5 -21.65064 0
vertex -12.5 -21.65064 10
vertex -14.20162 -20.5746 0
endloop
endfacet
facet normal -0.5344660782588423 -0.8451899261057322 0
outer loop
vertex -14.20162 -20.5746 0
vertex -12.5 -21.65064 10
vertex -14.20162 -20.5746 10
endloop
endfacet
facet normal -0.6007459776445667 -0.7994399729459829 0
outer loop
vertex -14.20162 -20.5746 0
vertex -14.20162 -20.5746 10
vertex -15.81113 -19.36512 0
endloop
endfacet
facet normal -0.6007459776445667 -0.7994399729459829 0
outer loop
vertex -15.81113 -19.36512 0
vertex -14.20162 -20.5746 10
vertex -15.81113 -19.36512 10
endloop
endfacet
facet normal -0.6631204929497373 -0.7485126664459978 0
outer loop
vertex -15.81113 -19.36512 0
vertex -15.81113 -19.36512 10
vertex -17.31811 -18.03006 0
endloop
endfacet
facet normal -0.6631204929497373 -0.7485126664459978 0
outer loop
vertex -17.31811 -18.03006 0
vertex -15.81113 -19.36512 10
vertex -17.31811 -18.03006 10
endloop
endfacet
facet normal -0.7212012874103362 -0.6927255611262468 0
outer loop
vertex -17.31811 -18.03006 0
vertex -17.31811 -18.03006 10
vertex -18.71277 -16.57807 0
endloop
endfacet
facet normal -0.7212012874103362 -0.6927255611262468 0
outer loop
vertex -18.71277 -16.57807 0
vertex -17.31811 -18.03006 10
vertex -18.71277 -16.57807 10
endloop
endfacet
facet normal -0.7746050842770174 -0.6324452256221047 0
outer loop
vertex -18.71277 -16.57807 0
vertex -18.71277 -16.57807 10
vertex -19.98607 -15.01856 0
endloop
endfacet
facet normal -0.7746050842770174 -0.6324452256221047 0
outer loop
vertex -19.98607 -15.01856 0
vertex -18.71277 -16.57807 10
vertex -19.98607 -15.01856 10
endloop
endfacet
facet normal -0.8229844222390703 -0.5680639407248305 0
outer loop
vertex -19.98607 -15.01856 0
vertex -19.98607 -15.01856 10
vertex -21.12975 -13.36165 0
endloop
endfacet
facet normal -0.8229844222390703 -0.5680639407248305 0
outer loop
vertex -21.12975 -13.36165 0
vertex -19.98607 -15.01856 10
vertex -21.12975 -13.36165 10
endloop
endfacet
facet normal -0.866025534733636 -0.49999977318926847 0
outer loop
vertex -21.12975 -13.36165 0
vertex -21.12975 -13.36165 10
vertex -22.1364 -11.61808 0
endloop
endfacet
facet normal -0.866025534733636 -0.49999977318926847 0
outer loop
vertex -22.1364 -11.61808 0
vertex -21.12975 -13.36165 10
vertex -22.1364 -11.61808 10
endloop
endfacet
facet normal -0.9034491892283987 -0.42869518598014267 0
outer loop
vertex -22.1364 -11.61808 0
vertex -22.1364 -11.61808 10
vertex -22.99949 -9.79917 0
endloop
endfacet
facet normal -0.9034491892283987 -0.42869518598014267 0
outer loop
vertex -22.99949 -9.79917 0
vertex -22.1364 -11.61808 10
vertex -22.99949 -9.79917 10
endloop
endfacet
facet normal -0.9350173462720255 -0.3546019771101385 0
outer loop
vertex -22.99949 -9.79917 0
vertex -22.99949 -9.79917 10
vertex -23.71341 -7.9167 0
endloop
endfacet
facet normal -0.9350173462720255 -0.3546019771101385 0
outer loop
vertex -23.71341 -7.9167 0
vertex -22.99949 -9.79917 10
vertex -23.71341 -7.9167 10
endloop
endfacet
facet normal -0.9605174343394185 -0.27821980218888237 0
outer loop
vertex -23.71341 -7.9167 0
vertex -23.71341 -7.9167 10
vertex -24.27355 -5.98289 0
endloop
endfacet
facet normal -0.9605174343394185 -0.27821980218888237 0
outer loop
vertex -24.27355 -5.98289 0
vertex -23.71341 -7.9167 10
vertex -24.27355 -5.98289 10
endloop
endfacet
facet normal -0.979790770302684 -0.20002511449733745 0
outer loop
vertex -24.27355 -5.98289 0
vertex -24.27355 -5.98289 10
vertex -24.67626 -4.01028 0
endloop
endfacet
facet normal -0.979790770302684 -0.20002511449733745 0
outer loop
vertex -24.67626 -4.01028 0
vertex -24.27355 -5.98289 10
vertex -24.67626 -4.01028 10
endloop
endfacet
facet normal -0.992709254713098 -0.12053354556705523 0
outer loop
vertex -24.67626 -4.01028 0
vertex -24.67626 -4.01028 10
vertex -24.91893 -2.01166 0
endloop
endfacet
facet normal -0.992709254713098 -0.12053354556705523 0
outer loop
vertex -24.91893 -2.01166 0
vertex -24.67626 -4.01028 10
vertex -24.91893 -2.01166 10
endloop
endfacet
facet normal -0.9991889407504114 -0.04026736497551091 0
outer loop
vertex -24.91893 -2.01166 0
vertex -24.91893 -2.01166 10
vertex -25 0 0
endloop
endfacet
facet normal -0.9991889407504114 -0.04026736497551091 0
outer loop
vertex -25 0 0
vertex -24.91893 -2.01166 10
vertex -25 0 10
endloop
endfacet
facet normal -0.9991889407504114 0.04026736497551091 0
outer loop
vertex -25 0 0
vertex -25 0 10
vertex -24.91893 2.01166 0
endloop
endfacet
facet normal -0.9991889407504114 0.04026736497551091 0
outer loop
vertex -24.91893 2.01166 0
vertex -25 0 10
vertex -24.91893 2.01166 10
endloop
endfacet
facet normal -0.992709254713098 0.12053354556705523 0
outer loop
vertex -24.91893 2.01166 0
vertex -24.91893 2.01166 10
vertex -24.67626 4.01028 0
endloop
endfacet
facet normal -0.992709254713098 0.12053354556705523 0
outer loop
vertex -24.67626 4.01028 0
vertex -24.91893 2.01166 10
vertex -24.67626 4.01028 10
endloop
endfacet
facet normal -0.979790770302684 0.20002511449733745 0
outer loop
vertex -24.67626 4.01028 0
vertex -24.67626 4.01028 10
vertex -24.27355 5.98289 0
endloop
endfacet
facet normal -0.979790770302684 0.20002511449733745 0
outer loop
vertex -24.27355 5.98289 0
vertex -24.67626 4.01028 10
vertex -24.27355 5.98289 10
endloop
endfacet
facet normal -0.9605174343394185 0.27821980218888237 0
outer loop
vertex -24.27355 5.98289 0
vertex -24.27355 5.98289 10
vertex -23.71341 7.9167 0
endloop
endfacet
facet normal -0.9605174343394185 0.27821980218888237 0
outer loop
vertex -23.71341 7.9167 0
vertex -24.27355 5.98289 10
vertex -23.71341 7.9167 10
endloop
endfacet
facet normal -0.9350173462720255 0.3546019771101385 0
outer loop
vertex -23.71341 7.9167 0
vertex -23.71341 7.9167 10
vertex -22.99949 9.79917 0
endloop
endfacet
facet normal -0.9350173462720255 0.3546019771101385 0
outer loop
vertex -22.99949 9.79917 0
vertex -23.71341 7.9167 10
vertex -22.99949 9.79917 10
endloop
endfacet
facet normal -0.9034491892283987 0.42869518598014267 0
outer loop
vertex -22.99949 9.79917 0
vertex -22.99949 9.79917 10
vertex -22.1364 11.61808 0
endloop
endfacet
facet normal -0.9034491892283987 0.42869518598014267 0
outer loop
vertex -22.1364 11.61808 0
vertex -22.99949 9.79917 10
vertex -22.1364 11.61808 10
endloop
endfacet
facet normal -0.866025534733636 0.49999977318926847 0
outer loop
vertex -22.1364 11.61808 0
vertex -22.1364 11.61808 10
vertex -21.12975 13.36165 0
endloop
endfacet
facet normal -0.866025534733636 0.49999977318926847 0
outer loop
vertex -21.12975 13.36165 0
vertex -22.1364 11.61808 10
vertex -21.12975 13.36165 10
endloop
endfacet
facet normal -0.8229844222390703 0.5680639407248305 0
outer loop
vertex -21.12975 13.36165 0
vertex -21.12975 13.36165 10
vertex -19.98607 15.01856 0
endloop
endfacet
facet normal -0.8229844222390703 0.5680639407248305 0
outer loop
vertex -19.98607 15.01856 0
vertex -21.12975 13.36165 10
vertex -19.98607 15.01856 10
endloop
endfacet
facet normal -0.7746050842770174 0.6324452256221047 0
outer loop
vertex -19.98607 15.01856 0
vertex -19.98607 15.01856 10
vertex -18.71277 16.57807 0
endloop
endfacet
facet normal -0.7746050842770174 0.6324452256221047 0
outer loop
vertex -18.71277 16.57807 0
vertex -19.98607 15.01856 10
vertex -18.71277 16.57807 10
endloop
endfacet
facet normal -0.7212012874103362 0.6927255611262468 0
outer loop
vertex -18.71277 16.57807 0
vertex -18.71277 16.57807 10
vertex -17.31811 18.03006 0
endloop
endfacet
facet normal -0.7212012874103362 0.6927255611262468 0
outer loop
vertex -17.31811 18.03006 0
vertex -18.71277 16.57807 10
vertex -17.31811 18.03006 10
endloop
endfacet
facet normal -0.6631204929497373 0.7485126664459978 0
outer loop
vertex -17.31811 18.03006 0
vertex -17.31811 18.03006 10
vertex -15.81113 19.36512 0
endloop
endfacet
facet normal -0.6631204929497373 0.7485126664459978 0
outer loop
vertex -15.81113 19.36512 0
vertex -17.31811 18.03006 10
vertex -15.81113 19.36512 10
endloop
endfacet
facet normal -0.6007459776445667 0.7994399729459829 0
outer loop
vertex -15.81113 19.36512 0
vertex -15.81113 19.36512 10
vertex -14.20162 20.5746 0
endloop
endfacet
facet normal -0.6007459776445667 0.7994399729459829 0
outer loop
vertex -14.20162 20.5746 0
vertex -15.81113 19.36512 10
vertex -14.20162 20.5746 10
endloop
endfacet
facet normal -0.5344660782588423 0.8451899261057322 0
outer loop
vertex -14.20162 20.5746 0
vertex -14.20162 20.5746 10
vertex -12.5 21.65064 0
endloop
endfacet
facet normal -0.5344660782588423 0.8451899261057322 0
outer loop
vertex -12.5 21.65064 0
vertex -14.20162 20.5746 10
vertex -12.5 21.65064 10
endloop
endfacet
facet normal -0.46472010007795544 0.8854576379384478 0
outer loop
vertex -12.5 21.65064 0
vertex -12.5 21.65064 10
vertex -10.71731 22.58626 0
endloop
endfacet
facet normal -0.46472010007795544 0.8854576379384478 0
outer loop
vertex -10.71731 22.58626 0
vertex -12.5 21.65064 10
vertex -10.71731 22.58626 10
endloop
endfacet
facet normal -0.39196895989099034 0.9199784424006767 0
outer loop
vertex -10.71731 22.58626 0
vertex -10.71731 22.58626 10
vertex -8.86512 23.37541 0
endloop
endfacet
facet normal -0.39196895989099034 0.9199784424006767 0
outer loop
vertex -8.86512 23.37541 0
vertex -10.71731 22.58626 10
vertex -8.86512 23.37541 10
endloop
endfacet
facet normal -0.3166658212891025 0.9485371672355798 0
outer loop
vertex -8.86512 23.37541 0
vertex -8.86512 23.37541 10
vertex -6.95544 24.01295 0
endloop
endfacet
facet normal -0.3166658212891025 0.9485371672355798 0
outer loop
vertex -6.95544 24.01295 0
vertex -8.86512 23.37541 10
vertex -6.95544 24.01295 10
endloop
endfacet
facet normal -0.2393180398765221 0.970941231892878 0
outer loop
vertex -6.95544 24.01295 0
vertex -6.95544 24.01295 10
vertex -5.00064 24.49477 0
endloop
endfacet
facet normal -0.2393180398765221 0.970941231892878 0
outer loop
vertex -5.00064 24.49477 0
vertex -6.95544 24.01295 10
vertex -5.00064 24.49477 10
endloop
endfacet
facet normal -0.1604090142411291 0.9870506309962975 0
outer loop
vertex -5.00064 24.49477 0
vertex -5.00064 24.49477 10
vertex -3.01342 24.81772 0
endloop
endfacet
facet normal -0.1604090142411291 0.9870506309962975 0
outer loop
vertex -3.01342 24.81772 0
vertex -5.00064 24.49477 10
vertex -3.01342 24.81772 10
endloop
endfacet
facet normal -0.08046497840589929 0.9967574365160955 0
outer loop
vertex -3.01342 24.81772 0
vertex -3.01342 24.81772 10
vertex -1.00665 24.97972 0
endloop
endfacet
facet normal -0.08046497840589929 0.9967574365160955 0
outer loop
vertex -1.00665 24.97972 0
vertex -3.01342 24.81772 10
vertex -1.00665 24.97972 10
endloop
endfacet
facet normal 0 1 0
outer loop
vertex -1.00665 24.97972 0
vertex -1.00665 24.97972 10
vertex 1.00665 24.97972 0
endloop
endfacet
facet normal 0 1 0
outer loop
vertex 1.00665 24.97972 0
vertex -1.00665 24.97972 10
vertex 1.00665 24.97972 10
endloop
endfacet
facet normal 0.08046497840589929 0.9967574365160955 0
outer loop
vertex 1.00665 24.97972 0
vertex 1.00665 24.97972 10
vertex 3.01342 24.81772 0
endloop
endfacet
facet normal 0.08046497840589929 0.9967574365160955 0
outer loop
vertex 3.01342 24.81772 0
vertex 1.00665 24.97972 10
vertex 3.01342 24.81772 10
endloop
endfacet
facet normal 0.1604090142411291 0.9870506309962975 0
outer loop
vertex 3.01342 24.81772 0
vertex 3.01342 24.81772 10
vertex 5.00064 24.49477 0
endloop
endfacet
facet normal 0.1604090142411291 0.9870506309962975 0
outer loop
vertex 5.00064 24.49477 0
vertex 3.01342 24.81772 10
vertex 5.00064 24.49477 10
endloop
endfacet
facet normal 0.2393180398765221 0.970941231892878 0
outer loop
vertex 5.00064 24.49477 0
vertex 5.00064 24.49477 10
vertex 6.95544 24.01295 0
endloop
endfacet
facet normal 0.2393180398765221 0.970941231892878 0
outer loop
vertex 6.95544 24.01295 0
vertex 5.00064 24.49477 10
vertex 6.95544 24.01295 10
endloop
endfacet
facet normal 0.3166658212891025 0.9485371672355798 0
outer loop
vertex 6.95544 24.01295 0
vertex 6.95544 24.01295 10
vertex 8.86512 23.37541 0
endloop
endfacet
facet normal 0.3166658212891025 0.9485371672355798 0
outer loop
vertex 8.86512 23.37541 0
vertex 6.95544 24.01295 10
vertex 8.86512 23.37541 10
endloop
endfacet
facet normal 0.39196895989099034 0.9199784424006767 0
outer loop
vertex 8.86512 23.37541 0
vertex 8.86512 23.37541 10
vertex 10.71731 22.58626 0
endloop
endfacet
facet normal 0.39196895989099034 0.9199784424006767 0
outer loop
vertex 10.71731 22.58626 0
vertex 8.86512 23.37541 10
vertex 10.71731 22.58626 10
endloop
endfacet
facet normal 0.46472010007795544 0.8854576379384478 0
outer loop
vertex 10.71731 22.58626 0
vertex 10.71731 22.58626 10
vertex 12.5 21.65064 0
endloop
endfacet
facet normal 0.46472010007795544 0.8854576379384478 0
outer loop
vertex 12.5 21.65064 0
vertex 10.71731 22.58626 10
vertex 12.5 21.65064 10
endloop
endfacet
facet normal 0.5344660782588423 0.8451899261057322 0
outer loop
vertex 12.5 21.65064 0
vertex 12.5 21.65064 10
vertex 14.20162 20.5746 0
endloop
endfacet
facet normal 0.5344660782588423 0.8451899261057322 0
outer loop
vertex 14.20162 20.5746 0
vertex 12.5 21.65064 10
vertex 14.20162 20.5746 10
endloop
endfacet
facet normal 0.6007459776445667 0.7994399729459829 0
outer loop
vertex 14.20162 20.5746 0
vertex 14.20162 20.5746 10
vertex 15.81113 19.36512 0
endloop
endfacet
facet normal 0.6007459776445667 0.7994399729459829 0
outer loop
vertex 15.81113 19.36512 0
vertex 14.20162 20.5746 10
vertex 15.81113 19.36512 10
endloop
endfacet
facet normal 0.6631204929497373 0.7485126664459978 0
outer loop
vertex 15.81113 19.36512 0
vertex 15.81113 19.36512 10
vertex 17.31811 18.03006 0
endloop
endfacet
facet normal 0.6631204929497373 0.7485126664459978 0
outer loop
vertex 17.31811 18.03006 0
vertex 15.81113 19.36512 10
vertex 17.31811 18.03006 10
endloop
endfacet
facet normal 0.7212012874103362 0.6927255611262468 0
outer loop
vertex 17.31811 18.03006 0
vertex 17.31811 18.03006 10
vertex 18.71277 16.57807 0
endloop
endfacet
facet normal 0.7212012874103362 0.6927255611262468 0
outer loop
vertex 18.71277 16.57807 0
vertex 17.31811 18.03006 10
vertex 18.71277 16.57807 10
endloop
endfacet
facet normal 0.7746050842770174 0.6324452256221047 0
outer loop
vertex 18.71277 16.57807 0
vertex 18.71277 16.57807 10
vertex 19.98607 15.01856 0
endloop
endfacet
facet normal 0.7746050842770174 0.6324452256221047 0
outer loop
vertex 19.98607 15.01856 0
vertex 18.71277 16.57807 10
vertex 19.98607 15.01856 10
endloop
endfacet
facet normal 0.8229844222390703 0.5680639407248305 0
outer loop
vertex 19.98607 15.01856 0
vertex 19.98607 15.01856 10
vertex 21.12975 13.36165 0
endloop
endfacet
facet normal 0.8229844222390703 0.5680639407248305 0
outer loop
vertex 21.12975 13.36165 0
vertex 19.98607 15.01856 10
vertex 21.12975 13.36165 10
endloop
endfacet
facet normal 0.866025534733636 0.49999977318926847 0
outer loop
vertex 21.12975 13.36165 0
vertex 21.12975 13.36165 10
vertex 22.1364 11.61808 0
endloop
endfacet
facet normal 0.866025534733636 0.49999977318926847 0
outer loop
vertex 22.1364 11.61808 0
vertex 21.12975 13.36165 10
vertex 22.1364 11.61808 10
endloop
endfacet
facet normal 0.9034491892283987 0.42869518598014267 0
outer loop
vertex 22.1364 11.61808 0
vertex 22.1364 11.61808 10
vertex 22.99949 9.79917 0
endloop
endfacet
facet normal 0.9034491892283987 0.42869518598014267 0
outer loop
vertex 22.99949 9.79917 0
vertex 22.1364 11.61808 10
vertex 22.99949 9.79917 10
endloop
endfacet
facet normal 0.9350173462720255 0.3546019771101385 0
outer loop
vertex 22.99949 9.79917 0
vertex 22.99949 9.79917 10
vertex 23.71341 7.9167 0
endloop
endfacet
facet normal 0.9350173462720255 0.3546019771101385 0
outer loop
vertex 23.71341 7.9167 0
vertex 22.99949 9.79917 10
vertex 23.71341 7.9167 10
endloop
endfacet
facet normal 0.9605174343394185 0.27821980218888237 0
outer loop
vertex 23.71341 7.9167 0
vertex 23.71341 7.9167 10
vertex 24.27355 5.98289 0
endloop
endfacet
facet normal 0.9605174343394185 0.27821980218888237 0
outer loop
vertex 24.27355 5.98289 0
vertex 23.71341 7.9167 10
vertex 24.27355 5.98289 10
endloop
endfacet
facet normal 0.979790770302684 0.20002511449733745 0
outer loop
vertex 24.27355 5.98289 0
vertex 24.27355 5.98289 10
vertex 24.67626 4.01028 0
endloop
endfacet
facet normal 0.979790770302684 0.20002511449733745 0
outer loop
vertex 24.67626 4.01028 0
vertex 24.27355 5.98289 10
vertex 24.67626 4.01028 10
endloop
endfacet
facet normal 0.992709254713098 0.12053354556705523 0
outer loop
vertex 24.67626 4.01028 0
vertex 24.67626 4.01028 10
vertex 24.91893 2.01166 0
endloop
endfacet
facet normal 0.992709254713098 0.12053354556705523 0
outer loop
vertex 24.91893 2.01166 0
vertex 24.67626 4.01028 10
vertex 24.91893 2.01166 10
endloop
endfacet
facet normal 0.9991889407504114 0.04026736497551091 0
outer loop
vertex 24.91893 2.01166 0
vertex 24.91893 2.01166 10
vertex 25 0 0
endloop
endfacet
facet normal 0.9991889407504114 0.04026736497551091 0
outer loop
vertex 25 0 0
vertex 24.91893 2.01166 10
vertex 25 0 10
endloop
endfacet
facet normal 0.9991889407504114 -0.04026736497551091 0
outer loop
vertex 25 0 0
vertex 25 0 10
vertex 24.91893 -2.01166 0
endloop
endfacet
facet normal 0.9991889407504114 -0.04026736497551091 0
outer loop
vertex 24.91893 -2.01166 0
vertex 25 0 10
vertex 24.91893 -2.01166 10
endloop
endfacet
facet normal 0 0 1
outer loop
vertex 24.91893 2.01166 10
vertex 24.91893 -2.01166 10
vertex 25 0 10
endloop
endfacet
facet normal 0 0 1
outer loop
vertex 24.67626 4.01028 10
vertex 24.91893 -2.01166 10
vertex 24.91893 2.01166 10
endloop
endfacet
facet normal 0 0 1
outer loop
vertex 24.67626 4.01028 10
vertex 24.67626 -4.01028 10
vertex 24.91893 -2.01166 10
endloop
endfacet
facet normal 0 0 1
outer loop
vertex 24.27355 5.98289 10
vertex 24.67626 -4.01028 10
vertex 24.67626 4.01028 10
endloop
endfacet
facet normal 0 0 1
outer loop
vertex 24.27355 5.98289 10
vertex 24.27355 -5.98289 10
vertex 24.67626 -4.01028 10
endloop
endfacet
facet normal 0 0 1
outer loop
vertex 24.27355 5.98289 10
vertex 23.71341 -7.9167 10
vertex 24.27355 -5.98289 10
endloop
endfacet
facet normal 0 0 1
outer loop
vertex 23.71341 7.9167 10
vertex 23.71341 -7.9167 10
vertex 24.27355 5.98289 10
endloop
endfacet
facet normal 0 0 1
outer loop
vertex 22.99949 9.79917 10
vertex 23.71341 -7.9167 10
vertex 23.71341 7.9167 10
endloop
endfacet
facet normal 0 0 1
outer loop
vertex 22.99949 9.79917 10
vertex 22.99949 -9.79917 10
vertex 23.71341 -7.9167 10
endloop
endfacet
facet normal 0 0 1
outer loop
vertex 22.99949 9.79917 10
vertex 22.1364 -11.61808 10
vertex 22.99949 -9.79917 10
endloop
endfacet
facet normal 0 0 1
outer loop
vertex 22.1364 11.61808 10
vertex 22.1364 -11.61808 10
vertex 22.99949 9.79917 10
endloop
endfacet
facet normal 0 0 1
outer loop
vertex 21.12975 13.36165 10
vertex 22.1364 -11.61808 10
vertex 22.1364 11.61808 10
endloop
endfacet
facet normal 0 0 1
outer loop
vertex 21.12975 13.36165 10
vertex 21.12975 -13.36165 10
vertex 22.1364 -11.61808 10
endloop
endfacet
facet normal 0 0 1
outer loop
vertex 19.98607 15.01856 10
vertex 21.12975 -13.36165 10
vertex 21.12975 13.36165 10
endloop
endfacet
facet normal 0 0 1
outer loop
vertex 19.98607 15.01856 10
vertex 19.98607 -15.01856 10
vertex 21.12975 -13.36165 10
endloop
endfacet
facet normal 0 0 1
outer loop
vertex 18.71277 16.57807 10
vertex 19.98607 -15.01856 10
vertex 19.98607 15.01856 10
endloop
endfacet
facet normal 0 0 1
outer loop
vertex 18.71277 16.57807 10
vertex 18.71277 -16.57807 10
vertex 19.98607 -15.01856 10
endloop
endfacet
facet normal 0 0 1
outer loop
vertex 17.31811 18.03006 10
vertex 18.71277 -16.57807 10
vertex 18.71277 16.57807 10
endloop
endfacet
facet normal 0 0 1
outer loop
vertex 17.31811 18.03006 10
vertex 17.31811 -18.03006 10
vertex 18.71277 -16.57807 10
endloop
endfacet
facet normal 0 0 1
outer loop
vertex 15.81113 19.36512 10
vertex 17.31811 -18.03006 10
vertex 17.31811 18.03006 10
endloop
endfacet
facet normal 0 0 1
outer loop
vertex 15.81113 19.36512 10
vertex 15.81113 -19.36512 10
vertex 17.31811 -18.03006 10
endloop
endfacet
facet normal 0 0 1
outer loop
vertex 14.20162 20.5746 10
vertex 15.81113 -19.36512 10
vertex 15.81113 19.36512 10
endloop
endfacet
facet normal 0 0 1
outer loop
vertex 14.20162 20.5746 10
vertex 14.20162 -20.5746 10
vertex 15.81113 -19.36512 10
endloop
endfacet
facet normal 0 0 1
outer loop
vertex 12.5 21.65064 10
vertex 14.20162 -20.5746 10
vertex 14.20162 20.5746 10
endloop
endfacet
facet normal 0 0 1
outer loop
vertex 12.5 21.65064 10
vertex 12.5 -21.65064 10
vertex 14.20162 -20.5746 10
endloop
endfacet
facet normal 0 0 1
outer loop
vertex 10.71731 22.58626 10
vertex 12.5 -21.65064 10
vertex 12.5 21.65064 10
endloop
endfacet
facet normal 0 0 1
outer loop
vertex 10.71731 22.58626 10
vertex 10.71731 -22.58626 10
vertex 12.5 -21.65064 10
endloop
endfacet
facet normal 0 0 1
outer loop
vertex 8.86512 23.37541 10
vertex 10.71731 -22.58626 10
vertex 10.71731 22.58626 10
endloop
endfacet
facet normal 0 0 1
outer loop
vertex 8.86512 23.37541 10
vertex 8.86512 -23.37541 10
vertex 10.71731 -22.58626 10
endloop
endfacet
facet normal 0 0 1
outer loop
vertex 6.95544 24.01295 10
vertex 8.86512 -23.37541 10
vertex 8.86512 23.37541 10
endloop
endfacet
facet normal 0 0 1
outer loop
vertex 6.95544 24.01295 10
vertex 6.95544 -24.01295 10
vertex 8.86512 -23.37541 10
endloop
endfacet
facet normal 0 0 1
outer loop
vertex 5.00064 24.49477 10
vertex 6.95544 -24.01295 10
vertex 6.95544 24.01295 10
endloop
endfacet
facet normal 0 0 1
outer loop
vertex 5.00064 24.49477 10
vertex 5.00064 -24.49477 10
vertex 6.95544 -24.01295 10
endloop
endfacet
facet normal 0 0 1
outer loop
vertex 3.01342 24.81772 10
vertex 5.00064 -24.49477 10
vertex 5.00064 24.49477 10
endloop
endfacet
facet normal 0 0 1
outer loop
vertex 3.01342 24.81772 10
vertex 3.01342 -24.81772 10
vertex 5.00064 -24.49477 10
endloop
endfacet
facet normal 0 0 1
outer loop
vertex 1.00665 24.97972 10
vertex 3.01342 -24.81772 10
vertex 3.01342 24.81772 10
endloop
endfacet
facet normal 0 0 1
outer loop
vertex 1.00665 24.97972 10
vertex 1.00665 -24.97972 10
vertex 3.01342 -24.81772 10
endloop
endfacet
facet normal 0 0 1
outer loop
vertex -1.00665 24.97972 10
vertex 1.00665 -24.97972 10
vertex 1.00665 24.97972 10
endloop
endfacet
facet normal 0 0 1
outer loop
vertex -1.00665 24.97972 10
vertex -1.00665 -24.97972 10
vertex 1.00665 -24.97972 10
endloop
endfacet
facet normal 0 0 1
outer loop
vertex -3.01342 24.81772 10
vertex -1.00665 -24.97972 10
vertex -1.00665 24.97972 10
endloop
endfacet
facet normal 0 0 1
outer loop
vertex -3.01342 24.81772 10
vertex -3.01342 -24.81772 10
vertex -1.00665 -24.97972 10
endloop
endfacet
facet normal 0 0 1
outer loop
vertex -5.00064 24.49477 10
vertex -3.01342 -24.81772 10
vertex -3.01342 24.81772 10
endloop
endfacet
facet normal 0 0 1
outer loop
vertex -5.00064 24.49477 10
vertex -5.00064 -24.49477 10
vertex -3.01342 -24.81772 10
endloop
endfacet
facet normal 0 0 1
outer loop
vertex -6.95544 24.01295 10
vertex -5.00064 -24.49477 10
vertex -5.00064 24.49477 10
endloop
endfacet
facet normal 0 0 1
outer loop
vertex -6.95544 24.01295 10
vertex -6.95544 -24.01295 10
vertex -5.00064 -24.49477 10
endloop
endfacet
facet normal 0 0 1
outer loop
vertex -8.86512 23.37541 10
vertex -6.95544 -24.01295 10
vertex -6.95544 24.01295 10
endloop
endfacet
facet normal 0 0 1
outer loop
vertex -8.86512 23.37541 10
vertex -8.86512 -23.37541 10
vertex -6.95544 -24.01295 10
endloop
endfacet
facet normal 0 0 1
outer loop
vertex -8.86512 23.37541 10
vertex -10.71731 -22.58626 10
vertex -8.86512 -23.37541 10
endloop
endfacet
facet normal 0 0 1
outer loop
vertex -10.71731 22.58626 10
vertex -10.71731 -22.58626 10
vertex -8.86512 23.37541 10
endloop
endfacet
facet normal 0 0 1
outer loop
vertex -10.71731 22.58626 10
vertex -12.5 -21.65064 10
vertex -10.71731 -22.58626 10
endloop
endfacet
facet normal 0 0 1
outer loop
vertex -12.5 21.65064 10
vertex -12.5 -21.65064 10
vertex -10.71731 22.58626 10
endloop
endfacet
facet normal 0 0 1
outer loop
vertex -14.20162 20.5746 10
vertex -12.5 -21.65064 10
vertex -12.5 21.65064 10
endloop
endfacet
facet normal 0 0 1
outer loop
vertex -14.20162 20.5746 10
vertex -14.20162 -20.5746 10
vertex -12.5 -21.65064 10
endloop
endfacet
facet normal 0 0 1
outer loop
vertex -14.20162 20.5746 10
vertex -15.81113 -19.36512 10
vertex -14.20162 -20.5746 10
endloop
endfacet
facet normal 0 0 1
outer loop
vertex -15.81113 19.36512 10
vertex -15.81113 -19.36512 10
vertex -14.20162 20.5746 10
endloop
endfacet
facet normal 0 0 1
outer loop
vertex -17.31811 18.03006 10
vertex -15.81113 -19.36512 10
vertex -15.81113 19.36512 10
endloop
endfacet
facet normal 0 0 1
outer loop
vertex -17.31811 18.03006 10
vertex -17.31811 -18.03006 10
vertex -15.81113 -19.36512 10
endloop
endfacet
facet normal 0 0 1
outer loop
vertex -18.71277 16.57807 10
vertex -17.31811 -18.03006 10
vertex -17.31811 18.03006 10
endloop
endfacet
facet normal 0 0 1
outer loop
vertex -18.71277 16.57807 10
vertex -18.71277 -16.57807 10
vertex -17.31811 -18.03006 10
endloop
endfacet
facet normal 0 0 1
outer loop
vertex -19.98607 15.01856 10
vertex -18.71277 -16.57807 10
vertex -18.71277 16.57807 10
endloop
endfacet
facet normal 0 0 1
outer loop
vertex -19.98607 15.01856 10
vertex -19.98607 -15.01856 10
vertex -18.71277 -16.57807 10
endloop
endfacet
facet normal 0 0 1
outer loop
vertex -21.12975 13.36165 10
vertex -19.98607 -15.01856 10
vertex -19.98607 15.01856 10
endloop
endfacet
facet normal 0 0 1
outer loop
vertex -21.12975 13.36165 10
vertex -21.12975 -13.36165 10
vertex -19.98607 -15.01856 10
endloop
endfacet
facet normal 0 0 1
outer loop
vertex -22.1364 11.61808 10
vertex -21.12975 -13.36165 10
vertex -21.12975 13.36165 10
endloop
endfacet
facet normal 0 0 1
outer loop
vertex -22.1364 11.61808 10
vertex -22.1364 -11.61808 10
vertex -21.12975 -13.36165 10
endloop
endfacet
facet normal 0 0 1
outer loop
vertex -22.99949 9.79917 10
vertex -22.1364 -11.61808 10
vertex -22.1364 11.61808 10
endloop
endfacet
facet normal 0 0 1
outer loop
vertex -22.99949 9.79917 10
vertex -22.99949 -9.79917 10
vertex -22.1364 -11.61808 10
endloop
endfacet
facet normal 0 0 1
outer loop
vertex -23.71341 7.9167 10
vertex -22.99949 -9.79917 10
vertex -22.99949 9.79917 10
endloop
endfacet
facet normal 0 0 1
outer loop
vertex -23.71341 7.9167 10
vertex -23.71341 -7.9167 10
vertex -22.99949 -9.79917 10
endloop
endfacet
facet normal 0 0 1
outer loop
vertex -24.27355 5.98289 10
vertex -23.71341 -7.9167 10
vertex -23.71341 7.9167 10
endloop
endfacet
facet normal 0 0 1
outer loop
vertex -24.27355 5.98289 10
vertex -24.27355 -5.98289 10
vertex -23.71341 -7.9167 10
endloop
endfacet
facet normal 0 0 1
outer loop
vertex -24.67626 4.01028 10
vertex -24.27355 -5.98289 10
vertex -24.27355 5.98289 10
endloop
endfacet
facet normal 0 0 1
outer loop
vertex -24.67626 4.01028 10
vertex -24.67626 -4.01028 10
vertex -24.27355 -5.98289 10
endloop
endfacet
facet normal 0 0 1
outer loop
vertex -24.91893 2.01166 10
vertex -24.67626 -4.01028 10
vertex -24.67626 4.01028 10
endloop
endfacet
facet normal 0 0 1
outer loop
vertex -24.91893 2.01166 10
vertex -24.91893 -2.01166 10
vertex -24.67626 -4.01028 10
endloop
endfacet
facet normal 0 0 1
outer loop
vertex -24.91893 -2.01166 10
vertex -24.91893 2.01166 10
vertex -25 0 10
endloop
endfacet
facet normal 0 0 -1
outer loop
vertex 25 0 0
vertex 24.91893 -2.01166 0
vertex 24.91893 2.01166 0
endloop
endfacet
facet normal 0 0 -1
outer loop
vertex 24.91893 2.01166 0
vertex 24.91893 -2.01166 0
vertex 24.67626 4.01028 0
endloop
endfacet
facet normal 0 0 -1
outer loop
vertex 24.91893 -2.01166 0
vertex 24.67626 -4.01028 0
vertex 24.67626 4.01028 0
endloop
endfacet
facet normal 0 0 -1
outer loop
vertex 24.67626 4.01028 0
vertex 24.67626 -4.01028 0
vertex 24.27355 5.98289 0
endloop
endfacet
facet normal 0 0 -1
outer loop
vertex 24.67626 -4.01028 0
vertex 24.27355 -5.98289 0
vertex 24.27355 5.98289 0
endloop
endfacet
facet normal 0 0 -1
outer loop
vertex 24.27355 -5.98289 0
vertex 23.71341 -7.9167 0
vertex 24.27355 5.98289 0
endloop
endfacet
facet normal 0 0 -1
outer loop
vertex 24.27355 5.98289 0
vertex 23.71341 -7.9167 0
vertex 23.71341 7.9167 0
endloop
endfacet
facet normal 0 0 -1
outer loop
vertex 23.71341 7.9167 0
vertex 23.71341 -7.9167 0
vertex 22.99949 9.79917 0
endloop
endfacet
facet normal 0 0 -1
outer loop
vertex 23.71341 -7.9167 0
vertex 22.99949 -9.79917 0
vertex 22.99949 9.79917 0
endloop
endfacet
facet normal 0 0 -1
outer loop
vertex 22.99949 -9.79917 0
vertex 22.1364 -11.61808 0
vertex 22.99949 9.79917 0
endloop
endfacet
facet normal 0 0 -1
outer loop
vertex 22.99949 9.79917 0
vertex 22.1364 -11.61808 0
vertex 22.1364 11.61808 0
endloop
endfacet
facet normal 0 0 -1
outer loop
vertex 22.1364 11.61808 0
vertex 22.1364 -11.61808 0
vertex 21.12975 13.36165 0
endloop
endfacet
facet normal 0 0 -1
outer loop
vertex 22.1364 -11.61808 0
vertex 21.12975 -13.36165 0
vertex 21.12975 13.36165 0
endloop
endfacet
facet normal 0 0 -1
outer loop
vertex 21.12975 13.36165 0
vertex 21.12975 -13.36165 0
vertex 19.98607 15.01856 0
endloop
endfacet
facet normal 0 0 -1
outer loop
vertex 21.12975 -13.36165 0
vertex 19.98607 -15.01856 0
vertex 19.98607 15.01856 0
endloop
endfacet
facet normal 0 0 -1
outer loop
vertex 19.98607 15.01856 0
vertex 19.98607 -15.01856 0
vertex 18.71277 16.57807 0
endloop
endfacet
facet normal 0 0 -1
outer loop
vertex 19.98607 -15.01856 0
vertex 18.71277 -16.57807 0
vertex 18.71277 16.57807 0
endloop
endfacet
facet normal 0 0 -1
outer loop
vertex 18.71277 16.57807 0
vertex 18.71277 -16.57807 0
vertex 17.31811 18.03006 0
endloop
endfacet
facet normal 0 0 -1
outer loop
vertex 18.71277 -16.57807 0
vertex 17.31811 -18.03006 0
vertex 17.31811 18.03006 0
endloop
endfacet
facet normal 0 0 -1
outer loop
vertex 17.31811 18.03006 0
vertex 17.31811 -18.03006 0
vertex 15.81113 19.36512 0
endloop
endfacet
facet normal 0 0 -1
outer loop
vertex 17.31811 -18.03006 0
vertex 15.81113 -19.36512 0
vertex 15.81113 19.36512 0
endloop
endfacet
facet normal 0 0 -1
outer loop
vertex 15.81113 19.36512 0
vertex 15.81113 -19.36512 0
vertex 14.20162 20.5746 0
endloop
endfacet
facet normal 0 0 -1
outer loop
vertex 15.81113 -19.36512 0
vertex 14.20162 -20.5746 0
vertex 14.20162 20.5746 0
endloop
endfacet
facet normal 0 0 -1
outer loop
vertex 14.20162 20.5746 0
vertex 14.20162 -20.5746 0
vertex 12.5 21.65064 0
endloop
endfacet
facet normal 0 0 -1
outer loop
vertex 14.20162 -20.5746 0
vertex 12.5 -21.65064 0
vertex 12.5 21.65064 0
endloop
endfacet
facet normal 0 0 -1
outer loop
vertex 12.5 21.65064 0
vertex 12.5 -21.65064 0
vertex 10.71731 22.58626 0
endloop
endfacet
facet normal 0 0 -1
outer loop
vertex 12.5 -21.65064 0
vertex 10.71731 -22.58626 0
vertex 10.71731 22.58626 0
endloop
endfacet
facet normal 0 0 -1
outer loop
vertex 10.71731 22.58626 0
vertex 10.71731 -22.58626 0
vertex 8.86512 23.37541 0
endloop
endfacet
facet normal 0 0 -1
outer loop
vertex 10.71731 -22.58626 0
vertex 8.86512 -23.37541 0
vertex 8.86512 23.37541 0
endloop
endfacet
facet normal 0 0 -1
outer loop
vertex 8.86512 23.37541 0
vertex 8.86512 -23.37541 0
vertex 6.95544 24.01295 0
endloop
endfacet
facet normal 0 0 -1
outer loop
vertex 8.86512 -23.37541 0
vertex 6.95544 -24.01295 0
vertex 6.95544 24.01295 0
endloop
endfacet
facet normal 0 0 -1
outer loop
vertex 6.95544 24.01295 0
vertex 6.95544 -24.01295 0
vertex 5.00064 24.49477 0
endloop
endfacet
facet normal 0 0 -1
outer loop
vertex 6.95544 -24.01295 0
vertex 5.00064 -24.49477 0
vertex 5.00064 24.49477 0
endloop
endfacet
facet normal 0 0 -1
outer loop
vertex 5.00064 24.49477 0
vertex 5.00064 -24.49477 0
vertex 3.01342 24.81772 0
endloop
endfacet
facet normal 0 0 -1
outer loop
vertex 5.00064 -24.49477 0
vertex 3.01342 -24.81772 0
vertex 3.01342 24.81772 0
endloop
endfacet
facet normal 0 0 -1
outer loop
vertex 3.01342 24.81772 0
vertex 3.01342 -24.81772 0
vertex 1.00665 24.97972 0
endloop
endfacet
facet normal 0 0 -1
outer loop
vertex 3.01342 -24.81772 0
vertex 1.00665 -24.97972 0
vertex 1.00665 24.97972 0
endloop
endfacet
facet normal 0 0 -1
outer loop
vertex 1.00665 24.97972 0
vertex 1.00665 -24.97972 0
vertex -1.00665 24.97972 0
endloop
endfacet
facet normal 0 0 -1
outer loop
vertex 1.00665 -24.97972 0
vertex -1.00665 -24.97972 0
vertex -1.00665 24.97972 0
endloop
endfacet
facet normal 0 0 -1
outer loop
vertex -1.00665 24.97972 0
vertex -1.00665 -24.97972 0
vertex -3.01342 24.81772 0
endloop
endfacet
facet normal 0 0 -1
outer loop
vertex -1.00665 -24.97972 0
vertex -3.01342 -24.81772 0
vertex -3.01342 24.81772 0
endloop
endfacet
facet normal 0 0 -1
outer loop
vertex -3.01342 24.81772 0
vertex -3.01342 -24.81772 0
vertex -5.00064 24.49477 0
endloop
endfacet
facet normal 0 0 -1
outer loop
vertex -3.01342 -24.81772 0
vertex -5.00064 -24.49477 0
vertex -5.00064 24.49477 0
endloop
endfacet
facet normal 0 0 -1
outer loop
vertex -5.00064 24.49477 0
vertex -5.00064 -24.49477 0
vertex -6.95544 24.01295 0
endloop
endfacet
facet normal 0 0 -1
outer loop
vertex -5.00064 -24.49477 0
vertex -6.95544 -24.01295 0
vertex -6.95544 24.01295 0
endloop
endfacet
facet normal 0 0 -1
outer loop
vertex -6.95544 24.01295 0
vertex -6.95544 -24.01295 0
vertex -8.86512 23.37541 0
endloop
endfacet
facet normal 0 0 -1
outer loop
vertex -6.95544 -24.01295 0
vertex -8.86512 -23.37541 0
vertex -8.86512 23.37541 0
endloop
endfacet
facet normal 0 0 -1
outer loop
vertex -8.86512 -23.37541 0
vertex -10.71731 -22.58626 0
vertex -8.86512 23.37541 0
endloop
endfacet
facet normal 0 0 -1
outer loop
vertex -8.86512 23.37541 0
vertex -10.71731 -22.58626 0
vertex -10.71731 22.58626 0
endloop
endfacet
facet normal 0 0 -1
outer loop
vertex -10.71731 -22.58626 0
vertex -12.5 -21.65064 0
vertex -10.71731 22.58626 0
endloop
endfacet
facet normal 0 0 -1
outer loop
vertex -10.71731 22.58626 0
vertex -12.5 -21.65064 0
vertex -12.5 21.65064 0
endloop
endfacet
facet normal 0 0 -1
outer loop
vertex -12.5 21.65064 0
vertex -12.5 -21.65064 0
vertex -14.20162 20.5746 0
endloop
endfacet
facet normal 0 0 -1
outer loop
vertex -12.5 -21.65064 0
vertex -14.20162 -20.5746 0
vertex -14.20162 20.5746 0
endloop
endfacet
facet normal 0 0 -1
outer loop
vertex -14.20162 -20.5746 0
vertex -15.81113 -19.36512 0
vertex -14.20162 20.5746 0
endloop
endfacet
facet normal 0 0 -1
outer loop
vertex -14.20162 20.5746 0
vertex -15.81113 -19.36512 0
vertex -15.81113 19.36512 0
endloop
endfacet
facet normal 0 0 -1
outer loop
vertex -15.81113 19.36512 0
vertex -15.81113 -19.36512 0
vertex -17.31811 18.03006 0
endloop
endfacet
facet normal 0 0 -1
outer loop
vertex -15.81113 -19.36512 0
vertex -17.31811 -18.03006 0
vertex -17.31811 18.03006 0
endloop
endfacet
facet normal 0 0 -1
outer loop
vertex -17.31811 18.03006 0
vertex -17.31811 -18.03006 0
vertex -18.71277 16.57807 0
endloop
endfacet
facet normal 0 0 -1
outer loop
vertex -17.31811 -18.03006 0
vertex -18.71277 -16.57807 0
vertex -18.71277 16.57807 0
endloop
endfacet
facet normal 0 0 -1
outer loop
vertex -18.71277 16.57807 0
vertex -18.71277 -16.57807 0
vertex -19.98607 15.01856 0
endloop
endfacet
facet normal 0 0 -1
outer loop
vertex -18.71277 -16.57807 0
vertex -19.98607 -15.01856 0
vertex -19.98607 15.01856 0
endloop
endfacet
facet normal 0 0 -1
outer loop
vertex -19.98607 15.01856 0
vertex -19.98607 -15.01856 0
vertex -21.12975 13.36165 0
endloop
endfacet
facet normal 0 0 -1
outer loop
vertex -19.98607 -15.01856 0
vertex -21.12975 -13.36165 0
vertex -21.12975 13.36165 0
endloop
endfacet
facet normal 0 0 -1
outer loop
vertex -21.12975 13.36165 0
vertex -21.12975 -13.36165 0
vertex -22.1364 11.61808 0
endloop
endfacet
facet normal 0 0 -1
outer loop
vertex -21.12975 -13.36165 0
vertex -22.1364 -11.61808 0
vertex -22.1364 11.61808 0
endloop
endfacet
facet normal 0 0 -1
outer loop
vertex -22.1364 11.61808 0
vertex -22.1364 -11.61808 0
vertex -22.99949 9.79917 0
endloop
endfacet
facet normal 0 0 -1
outer loop
vertex -22.1364 -11.61808 0
vertex -22.99949 -9.79917 0
vertex -22.99949 9.79917 0
endloop
endfacet
facet normal 0 0 -1
outer loop
vertex -22.99949 9.79917 0
vertex -22.99949 -9.79917 0
vertex -23.71341 7.9167 0
endloop
endfacet
facet normal 0 0 -1
outer loop
vertex -22.99949 -9.79917 0
vertex -23.71341 -7.9167 0
vertex -23.71341 7.9167 0
endloop
endfacet
facet normal 0 0 -1
outer loop
vertex -23.71341 7.9167 0
vertex -23.71341 -7.9167 0
vertex -24.27355 5.98289 0
endloop
endfacet
facet normal 0 0 -1
outer loop
vertex -23.71341 -7.9167 0
vertex -24.27355 -5.98289 0
vertex -24.27355 5.98289 0
endloop
endfacet
facet normal 0 0 -1
outer loop
vertex -24.27355 5.98289 0
vertex -24.27355 -5.98289 0
vertex -24.67626 4.01028 0
endloop
endfacet
facet normal 0 0 -1
outer loop
vertex -24.27355 -5.98289 0
vertex -24.67626 -4.01028 0
vertex -24.67626 4.01028 0
endloop
endfacet
facet normal 0 0 -1
outer loop
vertex -24.67626 4.01028 0
vertex -24.67626 -4.01028 0
vertex -24.91893 2.01166 0
endloop
endfacet
facet normal 0 0 -1
outer loop
vertex -24.67626 -4.01028 0
vertex -24.91893 -2.01166 0
vertex -24.91893 2.01166 0
endloop
endfacet
facet normal 0 0 -1
outer loop
vertex -25 0 0
vertex -24.91893 2.01166 0
vertex -24.91893 -2.01166 0
endloop
endfacet
endsolid JSxCAD
