solid JSxCAD
facet normal 0.8090155291723139 -0.587787268965602 0
outer loop
vertex 4.56773 -2.03368 0
vertex 4.56773 -2.03368 10
vertex 3.34565 -3.71572 0
endloop
endfacet
facet normal 0.8090155291723139 -0.587787268965602 0
outer loop
vertex 3.34565 -3.71572 0
vertex 4.56773 -2.03368 10
vertex 3.34565 -3.71572 10
endloop
endfacet
facet normal 0.5000001536005657 -0.8660253151030924 0
outer loop
vertex 3.34565 -3.71572 0
vertex 3.34565 -3.71572 10
vertex 1.54508 -4.75528 0
endloop
endfacet
facet normal 0.5000001536005657 -0.8660253151030924 0
outer loop
vertex 1.54508 -4.75528 0
vertex 3.34565 -3.71572 10
vertex 1.54508 -4.75528 10
endloop
endfacet
facet normal 0.10453030461541622 -0.9945217018331015 0
outer loop
vertex 1.54508 -4.75528 0
vertex 1.54508 -4.75528 10
vertex -0.52264 -4.97261 0
endloop
endfacet
facet normal 0.10453030461541622 -0.9945217018331015 0
outer loop
vertex -0.52264 -4.97261 0
vertex 1.54508 -4.75528 10
vertex -0.52264 -4.97261 10
endloop
endfacet
facet normal -0.30901559764627917 -0.9510569701186743 0
outer loop
vertex -0.52264 -4.97261 0
vertex -0.52264 -4.97261 10
vertex -2.5 -4.33013 0
endloop
endfacet
facet normal -0.30901559764627917 -0.9510569701186743 0
outer loop
vertex -2.5 -4.33013 0
vertex -0.52264 -4.97261 10
vertex -2.5 -4.33013 10
endloop
endfacet
facet normal -0.6691315942802624 -0.7431439359477773 0
outer loop
vertex -2.5 -4.33013 0
vertex -2.5 -4.33013 10
vertex -4.04508 -2.93893 0
endloop
endfacet
facet normal -0.6691315942802624 -0.7431439359477773 0
outer loop
vertex -4.04508 -2.93893 0
vertex -2.5 -4.33013 10
vertex -4.04508 -2.93893 10
endloop
endfacet
facet normal -0.9135443867754874 -0.40673904827419577 0
outer loop
vertex -4.04508 -2.93893 0
vertex -4.04508 -2.93893 10
vertex -4.89074 -1.03956 0
endloop
endfacet
facet normal -0.9135443867754874 -0.40673904827419577 0
outer loop
vertex -4.89074 -1.03956 0
vertex -4.04508 -2.93893 10
vertex -4.89074 -1.03956 10
endloop
endfacet
facet normal -1 0 0
outer loop
vertex -4.89074 -1.03956 0
vertex -4.89074 -1.03956 10
vertex -4.89074 1.03956 0
endloop
endfacet
facet normal -1 0 0
outer loop
vertex -4.89074 1.03956 0
vertex -4.89074 -1.03956 10
vertex -4.89074 1.03956 10
endloop
endfacet
facet normal -0.9135443867754874 0.40673904827419577 0
outer loop
vertex -4.89074 1.03956 0
vertex -4.89074 1.03956 10
vertex -4.04508 2.93893 0
endloop
endfacet
facet normal -0.9135443867754874 0.40673904827419577 0
outer loop
vertex -4.04508 2.93893 0
vertex -4.89074 1.03956 10
vertex -4.04508 2.93893 10
endloop
endfacet
facet normal -0.6691315942802624 0.7431439359477773 0
outer loop
vertex -4.04508 2.93893 0
vertex -4.04508 2.93893 10
vertex -2.5 4.33013 0
endloop
endfacet
facet normal -0.6691315942802624 0.7431439359477773 0
outer loop
vertex -2.5 4.33013 0
vertex -4.04508 2.93893 10
vertex -2.5 4.33013 10
endloop
endfacet
facet normal -0.30901559764627917 0.9510569701186743 0
outer loop
vertex -2.5 4.33013 0
vertex -2.5 4.33013 10
vertex -0.52264 4.97261 0
endloop
endfacet
facet normal -0.30901559764627917 0.9510569701186743 0
outer loop
vertex -0.52264 4.97261 0
vertex -2.5 4.33013 10
vertex -0.52264 4.97261 10
endloop
endfacet
facet normal 0.10453030461541622 0.9945217018331015 0
outer loop
vertex -0.52264 4.97261 0
vertex -0.52264 4.97261 10
vertex 1.54508 4.75528 0
endloop
endfacet
facet normal 0.10453030461541622 0.9945217018331015 0
outer loop
vertex 1.54508 4.75528 0
vertex -0.52264 4.97261 10
vertex 1.54508 4.75528 10
endloop
endfacet
facet normal 0.5000001536005657 0.8660253151030924 0
outer loop
vertex 1.54508 4.75528 0
vertex 1.54508 4.75528 10
vertex 3.34565 3.71572 0
endloop
endfacet
facet normal 0.5000001536005657 0.8660253151030924 0
outer loop
vertex 3.34565 3.71572 0
vertex 1.54508 4.75528 10
vertex 3.34565 3.71572 10
endloop
endfacet
facet normal 0.8090155291723139 0.587787268965602 0
outer loop
vertex 3.34565 3.71572 0
vertex 3.34565 3.71572 10
vertex 4.56773 2.03368 0
endloop
endfacet
facet normal 0.8090155291723139 0.587787268965602 0
outer loop
vertex 4.56773 2.03368 0
vertex 3.34565 3.71572 10
vertex 4.56773 2.03368 10
endloop
endfacet
facet normal 0.97814779913502 0.2079107574112422 0
outer loop
vertex 4.56773 2.03368 0
vertex 4.56773 2.03368 10
vertex 5 0 0
endloop
endfacet
facet normal 0.97814779913502 0.2079107574112422 0
outer loop
vertex 5 0 0
vertex 4.56773 2.03368 10
vertex 5 0 10
endloop
endfacet
facet normal 0.97814779913502 -0.2079107574112422 0
outer loop
vertex 5 0 0
vertex 5 0 10
vertex 4.56773 -2.03368 0
endloop
endfacet
facet normal 0.97814779913502 -0.2079107574112422 0
outer loop
vertex 4.56773 -2.03368 0
vertex 5 0 10
vertex 4.56773 -2.03368 10
endloop
endfacet
facet normal 0 0 1
outer loop
vertex 4.56773 2.03368 10
vertex 4.56773 -2.03368 10
vertex 5 0 10
endloop
endfacet
facet normal 0 0 1
outer loop
vertex 4.56773 2.03368 10
vertex 3.34565 -3.71572 10
vertex 4.56773 -2.03368 10
endloop
endfacet
facet normal 0 0 1
outer loop
vertex 3.34565 3.71572 10
vertex 3.34565 -3.71572 10
vertex 4.56773 2.03368 10
endloop
endfacet
facet normal 0 0 1
outer loop
vertex 1.54508 4.75528 10
vertex 3.34565 -3.71572 10
vertex 3.34565 3.71572 10
endloop
endfacet
facet normal 0 0 1
outer loop
vertex 1.54508 4.75528 10
vertex 1.54508 -4.75528 10
vertex 3.34565 -3.71572 10
endloop
endfacet
facet normal 0 0 1
outer loop
vertex -0.52264 4.97261 10
vertex 1.54508 -4.75528 10
vertex 1.54508 4.75528 10
endloop
endfacet
facet normal 0 0 1
outer loop
vertex -0.52264 4.97261 10
vertex -0.52264 -4.97261 10
vertex 1.54508 -4.75528 10
endloop
endfacet
facet normal 0 0 1
outer loop
vertex -2.5 4.33013 10
vertex -0.52264 -4.97261 10
vertex -0.52264 4.97261 10
endloop
endfacet
facet normal 0 0 1
outer loop
vertex -2.5 4.33013 10
vertex -2.5 -4.33013 10
vertex -0.52264 -4.97261 10
endloop
endfacet
facet normal 0 0 1
outer loop
vertex -4.04508 2.93893 10
vertex -2.5 -4.33013 10
vertex -2.5 4.33013 10
endloop
endfacet
facet normal 0 0 1
outer loop
vertex -4.04508 2.93893 10
vertex -4.04508 -2.93893 10
vertex -2.5 -4.33013 10
endloop
endfacet
facet normal 0 0 1
outer loop
vertex -4.89074 1.03956 10
vertex -4.04508 -2.93893 10
vertex -4.04508 2.93893 10
endloop
endfacet
facet normal 0 0 1
outer loop
vertex -4.04508 -2.93893 10
vertex -4.89074 1.03956 10
vertex -4.89074 -1.03956 10
endloop
endfacet
facet normal 0 0 -1
outer loop
vertex 5 0 0
vertex 4.56773 -2.03368 0
vertex 4.56773 2.03368 0
endloop
endfacet
facet normal 0 0 -1
outer loop
vertex 4.56773 -2.03368 0
vertex 3.34565 -3.71572 0
vertex 4.56773 2.03368 0
endloop
endfacet
facet normal 0 0 -1
outer loop
vertex 4.56773 2.03368 0
vertex 3.34565 -3.71572 0
vertex 3.34565 3.71572 0
endloop
endfacet
facet normal 0 0 -1
outer loop
vertex 3.34565 3.71572 0
vertex 3.34565 -3.71572 0
vertex 1.54508 4.75528 0
endloop
endfacet
facet normal 0 0 -1
outer loop
vertex 3.34565 -3.71572 0
vertex 1.54508 -4.75528 0
vertex 1.54508 4.75528 0
endloop
endfacet
facet normal 0 0 -1
outer loop
vertex 1.54508 4.75528 0
vertex 1.54508 -4.75528 0
vertex -0.52264 4.97261 0
endloop
endfacet
facet normal 0 0 -1
outer loop
vertex 1.54508 -4.75528 0
vertex -0.52264 -4.97261 0
vertex -0.52264 4.97261 0
endloop
endfacet
facet normal 0 0 -1
outer loop
vertex -0.52264 4.97261 0
vertex -0.52264 -4.97261 0
vertex -2.5 4.33013 0
endloop
endfacet
facet normal 0 0 -1
outer loop
vertex -0.52264 -4.97261 0
vertex -2.5 -4.33013 0
vertex -2.5 4.33013 0
endloop
endfacet
facet normal 0 0 -1
outer loop
vertex -2.5 4.33013 0
vertex -2.5 -4.33013 0
vertex -4.04508 2.93893 0
endloop
endfacet
facet normal 0 0 -1
outer loop
vertex -2.5 -4.33013 0
vertex -4.04508 -2.93893 0
vertex -4.04508 2.93893 0
endloop
endfacet
facet normal 0 0 -1
outer loop
vertex -4.04508 2.93893 0
vertex -4.04508 -2.93893 0
vertex -4.89074 1.03956 0
endloop
endfacet
facet normal 0 0 -1
outer loop
vertex -4.89074 -1.03956 0
vertex -4.89074 1.03956 0
vertex -4.04508 -2.93893 0
endloop
endfacet
endsolid JSxCAD
