<svg viewBox="-250 -250 500 500" width="500" height="500" xmlns="http://www.w3.org/2000/svg"><path d="M-153.74390459852935,-189.35115830981434L-25.51610730886584,-245.94757573830563L-91.95913012523388,-224.67325759484163zM-25.51610730886584,-245.94757573830563L-153.74390459852935,-189.35115830981434L37.9347980717532,-249.9598619326939z" style="fill:rgb(83,212,212)"/><path d="M204.3363757086369,54.895781151219204L119.18857904119898,-198.35884905722193L206.75886663624948,108.06441925945668z" style="fill:rgb(246,148,167)"/><path d="M37.9347980717532,-249.9598619326939L-153.74390459852935,-189.35115830981434L-203.77793539074995,-143.81430937138157zM37.9347980717532,-249.9598619326939L-203.77793539074995,-143.81430937138157L89.52612531543414,-234.28877039282153zM89.52612531543414,-234.28877039282153L-203.77793539074995,-143.81430937138157L-234.95574382578403,-92.949726477353z" style="fill:rgb(83,212,212)"/><path d="M-6.833074310240048,238.32625000909678L-157.2585309375685,15.771184411025693L-58.16797777739093,213.90052033263055z" style="fill:rgb(57,36,182)"/><path d="M206.75886663624948,108.06441925945668L117.36464228871978,-145.34438204645934L179.98014784128128,164.48142684680278z" style="fill:rgb(231,109,199)"/><path d="M59.707831898562894,238.1959600988889L-76.82102139827458,7.9470552828267795L-6.833074310240048,238.32625000909678z" style="fill:rgb(102,32,209)"/><path d="M179.98014784128128,164.48142684680278L79.10417249810858,-83.98639604570657L127.22526071752424,211.67145426032818z" style="fill:rgb(197,72,218)"/><path d="M89.52612531543414,-234.28877039282153L-234.95574382578403,-92.949726477353L119.18857904119898,-198.35884905722193z" style="fill:rgb(83,212,212)"/><path d="M127.22526071752424,211.67145426032818L9.099665862585997,-28.104651984914444L59.707831898562894,238.1959600988889z" style="fill:rgb(152,45,222)"/><path d="M119.18857904119898,-198.35884905722193L-234.95574382578403,-92.949726477353L-240.30585473133402,-43.39252928553554z" style="fill:rgb(83,212,212)"/><path d="M206.75886663624948,108.06441925945668L119.18857904119898,-198.35884905722193L117.36464228871978,-145.34438204645934z" style="fill:rgb(246,148,167)"/><path d="M-58.16797777739093,213.90052033263055L-157.2585309375685,15.771184411025693L-214.52945920043013,-3.8790069639428673z" style="fill:rgb(57,36,182)"/><path d="M179.98014784128128,164.48142684680278L117.36464228871978,-145.34438204645934L79.10417249810858,-83.98639604570657z" style="fill:rgb(231,109,199)"/><path d="M119.18857904119898,-198.35884905722193L-240.30585473133402,-43.39252928553554L117.36464228871978,-145.34438204645934z" style="fill:rgb(83,212,212)"/><path d="M-6.833074310240048,238.32625000909678L-76.82102139827458,7.9470552828267795L-157.2585309375685,15.771184411025693z" style="fill:rgb(102,32,209)"/><path d="M117.36464228871978,-145.34438204645934L-240.30585473133402,-43.39252928553554L-214.52945920043013,-3.8790069639428673z" style="fill:rgb(83,212,212)"/><path d="M127.22526071752424,211.67145426032818L79.10417249810858,-83.98639604570657L9.099665862585997,-28.104651984914444z" style="fill:rgb(197,72,218)"/><path d="M59.707831898562894,238.1959600988889L9.099665862585997,-28.104651984914444L-76.82102139827458,7.9470552828267795z" style="fill:rgb(152,45,222)"/><path d="M117.36464228871978,-145.34438204645934L-214.52945920043013,-3.8790069639428673L79.10417249810858,-83.98639604570657zM9.099665862585997,-28.104651984914444L-214.52945920043013,-3.8790069639428673L-157.2585309375685,15.771184411025693zM79.10417249810858,-83.98639604570657L-214.52945920043013,-3.8790069639428673L9.099665862585997,-28.104651984914444zM9.099665862585997,-28.104651984914444L-157.2585309375685,15.771184411025693L-76.82102139827458,7.9470552828267795z" style="fill:rgb(83,212,212)"/></svg>