<svg viewBox="-250 -250 500 500" width="500" height="500" xmlns="http://www.w3.org/2000/svg"><path d="M60.5790652667788,-49.462643771154795L-21.312795389507368,-77.01885437149839L-30.43234129413469,-73.43428060321929zM60.5790652667788,-49.462643771154795L-30.43234129413469,-73.43428060321929L-39.44301298133567,-69.59135307105733zM60.5790652667788,-49.462643771154795L-12.153496838340322,-80.31757577007123L-21.312795389507368,-77.01885437149839zM60.5790652667788,-49.462643771154795L-39.44301298133567,-69.59135307105733L-48.276161443194994,-65.51892353207855zM60.5790652667788,-49.462643771154795L-3.0242013286407254,-83.30400125253671L-12.153496838340322,-80.31757577007123zM60.5790652667788,-49.462643771154795L-48.276161443194994,-65.51892353207855L-56.86337645972973,-61.247146987169735zM60.5790652667788,-49.462643771154795L6.004438755719907,-85.95319937925389L-3.0242013286407254,-83.30400125253671zM60.5790652667788,-49.462643771154795L-56.86337645972973,-61.247146987169735L-65.13707075949274,-56.80752116542887zM60.5790652667788,-49.462643771154795L14.861521523838816,-88.241505510662L6.004438755719907,-85.95319937925389zM60.5790652667788,-49.462643771154795L-65.13707075949274,-56.80752116542887L-73.02979824341124,-52.23319921262269zM60.5790652667788,-49.462643771154795L23.475037022327736,-90.14655145433431L14.861521523838816,-88.241505510662zM60.5790652667788,-49.462643771154795L-73.02979824341124,-52.23319921262269L-80.47474756946339,-47.55860028030156zM60.5790652667788,-49.462643771154795L31.772459236894278,-91.64779994781757L23.475037022327736,-90.14655145433431zM60.5790652667788,-49.462643771154795L-80.47474756946339,-47.55860028030156L-87.40556225760677,-42.819859224495076zM60.5790652667788,-49.462643771154795L39.68086702962141,-92.72620450565861L31.772459236894278,-91.64779994781757zM60.5790652667788,-49.462643771154795L-87.40556225760677,-42.819859224495076L-93.75711690524254,-38.05469774951583zM60.5790652667788,-49.462643771154795L47.12691259803067,-93.364909254545L39.68086702962141,-92.72620450565861zM60.5790652667788,-49.462643771154795L-93.75711690524254,-38.05469774951583L-99.46527534697165,-33.302384214519655zM60.5790652667788,-49.462643771154795L54.037332780474095,-93.54932973722877L47.12691259803067,-93.364909254545zM60.5790652667788,-49.462643771154795L-99.46527534697165,-33.302384214519655L-104.4675664447484,-28.60413370096591z" style="fill:rgb(82,237,172)"/><path d="M115.36280651016014,11.132555184562301L81.56238896265201,-81.56991483158772L115.89493187123581,15.429897603137897z" style="fill:rgb(246,166,151)"/><path d="M60.5790652667788,-49.462643771154795L60.33928917715675,-93.26749930138546L54.037332780474095,-93.54932973722877zM60.5790652667788,-49.462643771154795L-104.4675664447484,-28.60413370096591L-108.70404898732144,-24.00235583449174z" style="fill:rgb(82,237,172)"/><path d="M-71.71216742549932,92.40529891931803L-112.76843666556456,1.7263361740327112L-74.4255228118493,88.99942965336392z" style="fill:rgb(15,71,152)"/><path d="M60.5790652667788,-49.462643771154795L65.96141825880854,-92.51076285567453L60.33928917715675,-93.26749930138546zM60.5790652667788,-49.462643771154795L-108.70404898732144,-24.00235583449174L-112.11769468612883,-19.540906365640044z" style="fill:rgb(82,237,172)"/><path d="M115.89493187123581,15.429897603137897L81.78680519877082,-78.01205298683954L115.40064785046224,20.113089735683573z" style="fill:rgb(245,161,162)"/><path d="M-74.4255228118493,88.99942965336392L-112.76843666556456,1.7263361740327112L-115.18750554689149,-0.9351680568304643z" style="fill:rgb(15,71,152)"/><path d="M-67.9961669803809,95.36449404310441L-109.30446324415993,3.933312135674926L-71.71216742549932,92.40529891931803z" style="fill:rgb(20,68,163)"/><path d="M60.5790652667788,-49.462643771154795L70.83396920675574,-91.27368943341429L65.96141825880854,-92.51076285567453zM60.5790652667788,-49.462643771154795L-112.11769468612883,-19.540906365640044L-114.65544690642622,-15.264876356920766z" style="fill:rgb(82,237,172)"/><path d="M115.89493187123581,15.429897603137897L81.56238896265201,-81.56991483158772L81.78680519877082,-78.01205298683954z" style="fill:rgb(246,166,151)"/><path d="M115.40064785046224,20.113089735683573L80.94906253353221,-74.04488693837152L113.85705067326384,25.140162394909296z" style="fill:rgb(242,155,174)"/><path d="M60.5790652667788,-49.462643771154795L74.89025321465661,-89.5551629452481L70.83396920675574,-91.27368943341429zM60.5790652667788,-49.462643771154795L-114.65544690642622,-15.264876356920766L-116.26932204246042,-11.220034281979258z" style="fill:rgb(82,237,172)"/><path d="M-71.71216742549932,92.40529891931803L-109.30446324415993,3.933312135674926L-112.76843666556456,1.7263361740327112z" style="fill:rgb(20,68,163)"/><path d="M-63.29170854106028,97.83110577927744L-104.80495933195604,5.648032500600102L-67.9961669803809,95.36449404310441z" style="fill:rgb(26,66,175)"/><path d="M115.40064785046224,20.113089735683573L81.78680519877082,-78.01205298683954L80.94906253353221,-74.04488693837152z" style="fill:rgb(245,161,162)"/><path d="M60.5790652667788,-49.462643771154795L78.06756393884893,-87.35851818585137L74.89025321465661,-89.5551629452481zM60.5790652667788,-49.462643771154795L-116.26932204246042,-11.220034281979258L-116.91748165247817,-7.452876713254685z" style="fill:rgb(82,237,172)"/><path d="M113.85705067326384,25.140162394909296L79.02826492250927,-69.70148956486076L111.25372714368082,30.462243873860256z" style="fill:rgb(239,149,184)"/><path d="M-57.626867908935104,99.76352625762222L-99.29317115186629,6.836572003008878L-63.29170854106028,97.83110577927744z" style="fill:rgb(32,65,185)"/><path d="M-67.9961669803809,95.36449404310441L-104.80495933195604,5.648032500600102L-109.30446324415993,3.933312135674926z" style="fill:rgb(26,66,175)"/><path d="M60.5790652667788,-49.462643771154795L80.30853845304772,-84.69205584684896L78.06756393884893,-87.35851818585137zM60.5790652667788,-49.462643771154795L-116.91748165247817,-7.452876713254685L-116.56537840402271,-4.0094822749271755z" style="fill:rgb(82,237,172)"/><path d="M113.85705067326384,25.140162394909296L80.94906253353221,-74.04488693837152L79.02826492250927,-69.70148956486076z" style="fill:rgb(242,155,174)"/><path d="M111.25372714368082,30.462243873860256L76.01635496337464,-65.02169432949623L107.59413787820218,36.02404262543455z" style="fill:rgb(234,143,195)"/><path d="M60.5790652667788,-49.462643771154795L81.56238896265201,-81.56991483158772L80.30853845304772,-84.69205584684896zM60.5790652667788,-49.462643771154795L-116.56537840402271,-4.0094822749271755L-115.18750554689149,-0.9351680568304643z" style="fill:rgb(82,237,172)"/><path d="M-51.04387800020785,101.12495758291239L-92.80796794236534,7.4710042999662525L-57.626867908935104,99.76352625762222z" style="fill:rgb(40,64,196)"/><path d="M-63.29170854106028,97.83110577927744L-99.29317115186629,6.836572003008878L-104.80495933195604,5.648032500600102z" style="fill:rgb(32,65,185)"/><path d="M111.25372714368082,30.462243873860256L79.02826492250927,-69.70148956486076L76.01635496337464,-65.02169432949623z" style="fill:rgb(239,149,184)"/><path d="M107.59413787820218,36.02404262543455L71.91990650451028,-60.052289134368685L102.89657774715444,41.764276621101686z" style="fill:rgb(228,137,204)"/><path d="M60.5790652667788,-49.462643771154795L81.78680519877082,-78.01205298683954L81.56238896265201,-81.56991483158772zM60.5790652667788,-49.462643771154795L-115.18750554689149,-0.9351680568304643L-112.76843666556456,1.7263361740327112z" style="fill:rgb(82,237,172)"/><path d="M-43.600277724011086,101.88507891529146L-85.4035776289805,7.52932506106218L-51.04387800020785,101.12495758291239z" style="fill:rgb(49,63,205)"/><path d="M-57.626867908935104,99.76352625762222L-92.80796794236534,7.4710042999662525L-99.29317115186629,6.836572003008878z" style="fill:rgb(40,64,196)"/><path d="M60.5790652667788,-49.462643771154795L80.94906253353221,-74.04488693837152L81.78680519877082,-78.01205298683954z" style="fill:rgb(82,237,172)"/><path d="M107.59413787820218,36.02404262543455L76.01635496337464,-65.02169432949623L71.91990650451028,-60.052289134368685z" style="fill:rgb(234,143,195)"/><path d="M60.5790652667788,-49.462643771154795L-112.76843666556456,1.7263361740327112L-109.30446324415993,3.933312135674926z" style="fill:rgb(82,237,172)"/><path d="M102.89657774715444,41.764276621101686L66.76120216719163,-54.846245864593335L97.19551078691946,47.615940926992664z" style="fill:rgb(221,130,213)"/><path d="M-35.36860165462761,102.02088874232857L-77.15063395432506,6.997266211506775L-43.600277724011086,101.88507891529146z" style="fill:rgb(58,64,214)"/><path d="M60.5790652667788,-49.462643771154795L79.02826492250927,-69.70148956486076L80.94906253353221,-74.04488693837152z" style="fill:rgb(82,237,172)"/><path d="M-51.04387800020785,101.12495758291239L-85.4035776289805,7.52932506106218L-92.80796794236534,7.4710042999662525z" style="fill:rgb(49,63,205)"/><path d="M60.5790652667788,-49.462643771154795L-109.30446324415993,3.933312135674926L-104.80495933195604,5.648032500600102z" style="fill:rgb(82,237,172)"/><path d="M97.19551078691946,47.615940926992664L60.5790652667788,-49.462643771154795L90.54171718962593,53.50793219695018z" style="fill:rgb(213,124,221)"/><path d="M102.89657774715444,41.764276621101686L71.91990650451028,-60.052289134368685L66.76120216719163,-54.846245864593335z" style="fill:rgb(228,137,204)"/><path d="M-26.43619552460817,101.5177040125335L-68.13546694850238,5.869181529429841L-35.36860165462761,102.02088874232857z" style="fill:rgb(69,65,222)"/><path d="M60.5790652667788,-49.462643771154795L76.01635496337464,-65.02169432949623L79.02826492250927,-69.70148956486076zM60.5790652667788,-49.462643771154795L-104.80495933195604,5.648032500600102L-99.29317115186629,6.836572003008878z" style="fill:rgb(82,237,172)"/><path d="M90.54171718962593,53.50793219695018L53.42965796567481,-43.965776702401875L83.0021930983679,59.365768377742604z" style="fill:rgb(204,117,228)"/><path d="M-43.600277724011086,101.88507891529146L-77.15063395432506,6.997266211506775L-85.4035776289805,7.52932506106218z" style="fill:rgb(58,64,214)"/><path d="M97.19551078691946,47.615940926992664L66.76120216719163,-54.846245864593335L60.5790652667788,-49.462643771154795z" style="fill:rgb(221,130,213)"/><path d="M-16.90424796877295,100.37036166837724L-58.4597282799091,4.147887048476081L-26.43619552460817,101.5177040125335z" style="fill:rgb(79,66,228)"/><path d="M60.5790652667788,-49.462643771154795L71.91990650451028,-60.052289134368685L76.01635496337464,-65.02169432949623zM60.5790652667788,-49.462643771154795L-99.29317115186629,6.836572003008878L-92.80796794236534,7.4710042999662525z" style="fill:rgb(82,237,172)"/><path d="M83.0021930983679,59.365768377742604L45.38636820858117,-38.42406556038L74.66039587480722,65.11302963772451z" style="fill:rgb(195,111,234)"/><path d="M-6.886736596485476,98.5832428028737L-48.238923808582,1.846306936861946L-16.90424796877295,100.37036166837724z" style="fill:rgb(91,68,234)"/><path d="M-35.36860165462761,102.02088874232857L-68.13546694850238,5.869181529429841L-77.15063395432506,6.997266211506775z" style="fill:rgb(69,65,222)"/><path d="M90.54171718962593,53.50793219695018L60.5790652667788,-49.462643771154795L53.42965796567481,-43.965776702401875z" style="fill:rgb(213,124,221)"/><path d="M74.66039587480722,65.11302963772451L36.53896967161304,-32.909345908045005L65.61463914684462,70.67307111428597z" style="fill:rgb(184,105,239)"/><path d="M60.5790652667788,-49.462643771154795L66.76120216719163,-54.846245864593335L71.91990650451028,-60.052289134368685zM60.5790652667788,-49.462643771154795L-92.80796794236534,7.4710042999662525L-85.4035776289805,7.52932506106218z" style="fill:rgb(82,237,172)"/><path d="M3.49132830273325,96.17138070454811L-37.60045214367242,-1.0135116493357228L-6.886736596485476,98.5832428028737z" style="fill:rgb(102,71,239)"/><path d="M65.61463914684462,70.67307111428597L26.993054659788942,-27.494718261738424L55.976975901986314,75.97023238881025z" style="fill:rgb(174,99,242)"/><path d="M-26.43619552460817,101.5177040125335L-58.4597282799091,4.147887048476081L-68.13546694850238,5.869181529429841z" style="fill:rgb(79,66,228)"/><path d="M14.09679826717462,93.16007384536599L-26.681837291503868,-4.399190561147312L3.49132830273325,96.17138070454811z" style="fill:rgb(114,75,243)"/><path d="M83.0021930983679,59.365768377742604L53.42965796567481,-43.965776702401875L45.38636820858117,-38.42406556038z" style="fill:rgb(204,117,228)"/><path d="M55.976975901986314,75.97023238881025L16.86805506666813,-22.25343197743429L45.87072044880312,80.93209065663848z" style="fill:rgb(162,93,245)"/><path d="M60.5790652667788,-49.462643771154795L-85.4035776289805,7.52932506106218L-77.15063395432506,6.997266211506775z" style="fill:rgb(82,237,172)"/><path d="M24.790056864065086,89.5847656105483L-15.62735705684035,-8.269510982055285L14.09679826717462,93.16007384536599z" style="fill:rgb(126,79,245)"/><path d="M45.87072044880312,80.93209065663848L6.295236961424228,-17.2572773620926L35.428754977173874,85.4907977427921z" style="fill:rgb(151,88,246)"/><path d="M35.428754977173874,85.4907977427921L-4.585298065867492,-12.574653993512229L24.790056864065086,89.5847656105483z" style="fill:rgb(139,83,246)"/><path d="M-16.90424796877295,100.37036166837724L-48.238923808582,1.846306936861946L-58.4597282799091,4.147887048476081z" style="fill:rgb(91,68,234)"/><path d="M74.66039587480722,65.11302963772451L45.38636820858117,-38.42406556038L36.53896967161304,-32.909345908045005z" style="fill:rgb(195,111,234)"/><path d="M60.5790652667788,-49.462643771154795L-77.15063395432506,6.997266211506775L-68.13546694850238,5.869181529429841z" style="fill:rgb(82,237,172)"/><path d="M-6.886736596485476,98.5832428028737L-37.60045214367242,-1.0135116493357228L-48.238923808582,1.846306936861946z" style="fill:rgb(102,71,239)"/><path d="M60.5790652667788,-49.462643771154795L45.38636820858117,-38.42406556038L53.42965796567481,-43.965776702401875z" style="fill:rgb(82,237,172)"/><path d="M65.61463914684462,70.67307111428597L36.53896967161304,-32.909345908045005L26.993054659788942,-27.494718261738424z" style="fill:rgb(184,105,239)"/><path d="M60.5790652667788,-49.462643771154795L-68.13546694850238,5.869181529429841L-58.4597282799091,4.147887048476081z" style="fill:rgb(82,237,172)"/><path d="M3.49132830273325,96.17138070454811L-26.681837291503868,-4.399190561147312L-37.60045214367242,-1.0135116493357228z" style="fill:rgb(114,75,243)"/><path d="M55.976975901986314,75.97023238881025L26.993054659788942,-27.494718261738424L16.86805506666813,-22.25343197743429z" style="fill:rgb(174,99,242)"/><path d="M60.5790652667788,-49.462643771154795L36.53896967161304,-32.909345908045005L45.38636820858117,-38.42406556038zM60.5790652667788,-49.462643771154795L-58.4597282799091,4.147887048476081L-48.238923808582,1.846306936861946z" style="fill:rgb(82,237,172)"/><path d="M14.09679826717462,93.16007384536599L-15.62735705684035,-8.269510982055285L-26.681837291503868,-4.399190561147312z" style="fill:rgb(126,79,245)"/><path d="M45.87072044880312,80.93209065663848L16.86805506666813,-22.25343197743429L6.295236961424228,-17.2572773620926z" style="fill:rgb(162,93,245)"/><path d="M24.790056864065086,89.5847656105483L-4.585298065867492,-12.574653993512229L-15.62735705684035,-8.269510982055285z" style="fill:rgb(139,83,246)"/><path d="M35.428754977173874,85.4907977427921L6.295236961424228,-17.2572773620926L-4.585298065867492,-12.574653993512229z" style="fill:rgb(151,88,246)"/><path d="M60.5790652667788,-49.462643771154795L26.993054659788942,-27.494718261738424L36.53896967161304,-32.909345908045005zM60.5790652667788,-49.462643771154795L-48.238923808582,1.846306936861946L-37.60045214367242,-1.0135116493357228zM60.5790652667788,-49.462643771154795L16.86805506666813,-22.25343197743429L26.993054659788942,-27.494718261738424zM60.5790652667788,-49.462643771154795L-37.60045214367242,-1.0135116493357228L-26.681837291503868,-4.399190561147312zM60.5790652667788,-49.462643771154795L6.295236961424228,-17.2572773620926L16.86805506666813,-22.25343197743429zM60.5790652667788,-49.462643771154795L-26.681837291503868,-4.399190561147312L-15.62735705684035,-8.269510982055285zM60.5790652667788,-49.462643771154795L-4.585298065867492,-12.574653993512229L6.295236961424228,-17.2572773620926zM60.5790652667788,-49.462643771154795L-15.62735705684035,-8.269510982055285L-4.585298065867492,-12.574653993512229z" style="fill:rgb(82,237,172)"/></svg>